<?xml version="1.0" encoding="UTF-8" standalone="no"?>
<svg
   xmlns:dc="http://purl.org/dc/elements/1.1/"
   xmlns:cc="http://creativecommons.org/ns#"
   xmlns:rdf="http://www.w3.org/1999/02/22-rdf-syntax-ns#"
   xmlns:svg="http://www.w3.org/2000/svg"
   xmlns="http://www.w3.org/2000/svg"
   viewBox="0 0 332.08801 255.44667"
   height="255.44667"
   width="332.08801"
   xml:space="preserve"
   id="svg10"
   version="1.1"><metadata
     id="metadata16"><rdf:RDF><cc:Work
         rdf:about=""><dc:format>image/svg+xml</dc:format><dc:type
           rdf:resource="http://purl.org/dc/dcmitype/StillImage" /><dc:title></dc:title></cc:Work></rdf:RDF></metadata><defs
     id="defs14"><linearGradient
       id="linearGradient36"
       spreadMethod="pad"
       gradientTransform="matrix(167,-175,-175,-167,169.94073,81.703369)"
       gradientUnits="userSpaceOnUse"
       y2="0"
       x2="1"
       y1="0"
       x1="0"><stop
         id="stop32"
         offset="0"
         style="stop-opacity:1;stop-color:#f05f6f" /><stop
         id="stop34"
         offset="1"
         style="stop-opacity:1;stop-color:#9f2c69" /></linearGradient></defs><g
     transform="matrix(1.3333333,0,0,-1.3333333,0,255.44667)"
     id="g18"><g
       id="g20"><g
         id="g22"><g
           id="g28"><g
             id="g30"><path
               id="path38"
               style="fill:url(#linearGradient36);stroke:none"
               d="m 219.397,188.702 h -0.946 L 90.066,55.589 c -1.955,-1.954 -4.791,-1.954 -6.745,0 v 0 l -52.69,56.472 -0.945,1.009 c -3.845,3.782 -9.581,3.782 -13.426,0 v 0 L 2.899,99.645 C 0.945,97.691 0,94.855 0,92.901 v 0 c 0,-1.89 0.945,-4.79 2.899,-6.681 v 0 L 4.79,83.321 79.54,2.899 C 81.43,0.945 83.321,0 86.221,0 v 0 c 2.899,0 4.79,0.945 6.681,2.899 v 0 l 153.28,159.016 c 3.844,3.845 3.844,9.581 0,13.426 v 0 l -13.361,13.361 c -1.922,1.922 -4.317,2.883 -6.712,2.883 v 0 c -2.395,0 -4.79,-0.961 -6.712,-2.883" /></g></g></g></g></g></svg>