<?xml version="1.0" encoding="UTF-8" standalone="no"?>
<svg
   xmlns:dc="http://purl.org/dc/elements/1.1/"
   xmlns:cc="http://creativecommons.org/ns#"
   xmlns:rdf="http://www.w3.org/1999/02/22-rdf-syntax-ns#"
   xmlns:svg="http://www.w3.org/2000/svg"
   xmlns="http://www.w3.org/2000/svg"
   viewBox="0 0 273.15189 357.47198"
   height="357.47198"
   width="273.15189"
   xml:space="preserve"
   id="svg10"
   version="1.1"><metadata
     id="metadata16"><rdf:RDF><cc:Work
         rdf:about=""><dc:format>image/svg+xml</dc:format><dc:type
           rdf:resource="http://purl.org/dc/dcmitype/StillImage" /><dc:title></dc:title></cc:Work></rdf:RDF></metadata><defs
     id="defs14"><clipPath
       id="clipPath388"
       clipPathUnits="userSpaceOnUse"><path
         id="path386"
         d="M 0,327.047 H 1176.441 V 0 H 0 Z" /></clipPath><clipPath
       id="clipPath396"
       clipPathUnits="userSpaceOnUse"><path
         id="path394"
         d="M 556.94,197.961 H 701.372 V 30.0514 H 556.94 Z" /></clipPath><linearGradient
       id="linearGradient408"
       spreadMethod="pad"
       gradientTransform="matrix(311.50369,67.065948,67.065948,-311.50369,502.25214,79.485809)"
       gradientUnits="userSpaceOnUse"
       y2="0"
       x2="1"
       y1="0"
       x1="0"><stop
         id="stop402"
         offset="0"
         style="stop-opacity:1;stop-color:#e7fff8" /><stop
         id="stop404"
         offset="0.585559"
         style="stop-opacity:1;stop-color:#7be3fc" /><stop
         id="stop406"
         offset="1"
         style="stop-opacity:1;stop-color:#2ed0ff" /></linearGradient><linearGradient
       id="linearGradient440"
       spreadMethod="pad"
       gradientTransform="matrix(248.56335,-254.88687,-254.88687,-248.56335,548.43646,196.68707)"
       gradientUnits="userSpaceOnUse"
       y2="0"
       x2="1"
       y1="0"
       x1="0"><stop
         id="stop436"
         offset="0"
         style="stop-opacity:1;stop-color:#e7fff8" /><stop
         id="stop438"
         offset="1"
         style="stop-opacity:1;stop-color:#2ed0ff" /></linearGradient><clipPath
       id="clipPath450"
       clipPathUnits="userSpaceOnUse"><path
         id="path448"
         d="m 645.563,222.033 c -25.78,-22.241 17.117,-89.19 -71.172,-85.137 v 0 c -41.352,1.899 -72.252,-23.336 -75.227,-43.693 v 0 c -4.867,-33.314 32.631,-58.559 92.794,-57.208 v 0 c 80.181,1.801 99.551,34.685 82.434,61.262 v 0 c -17.118,26.577 -5.256,48.933 22.072,87.839 v 0 c 19.264,27.427 -4.07,44.913 -27.119,44.911 v 0 c -8.75,0 -17.461,-2.521 -23.782,-7.974" /></clipPath><clipPath
       id="clipPath458"
       clipPathUnits="userSpaceOnUse"><path
         id="path456"
         d="M 504.194,65.875 H 709.95 v -52.1 H 504.194 Z" /></clipPath><linearGradient
       id="linearGradient468"
       spreadMethod="pad"
       gradientTransform="matrix(7.3861723,-219.84724,-219.84724,-7.3861723,603.61975,144.00139)"
       gradientUnits="userSpaceOnUse"
       y2="0"
       x2="1"
       y1="0"
       x1="0"><stop
         id="stop464"
         offset="0"
         style="stop-opacity:1;stop-color:#a8f3f8" /><stop
         id="stop466"
         offset="1"
         style="stop-opacity:1;stop-color:#6ab2ff" /></linearGradient><clipPath
       id="clipPath490"
       clipPathUnits="userSpaceOnUse"><path
         id="path488"
         d="m 654.461,228.585 h 75.878 v -128 h -75.878 z" /></clipPath><linearGradient
       id="linearGradient500"
       spreadMethod="pad"
       gradientTransform="matrix(7.782805,-120.63348,-120.63348,-7.782805,692.7243,184.90584)"
       gradientUnits="userSpaceOnUse"
       y2="0"
       x2="1"
       y1="0"
       x1="0"><stop
         id="stop496"
         offset="0"
         style="stop-opacity:1;stop-color:#a8f3f8" /><stop
         id="stop498"
         offset="1"
         style="stop-opacity:1;stop-color:#6ab2ff" /></linearGradient><clipPath
       id="clipPath522"
       clipPathUnits="userSpaceOnUse"><path
         id="path520"
         d="m 604.387,327.047 h 80.22 V 193.985 h -80.22 z" /></clipPath><linearGradient
       id="linearGradient532"
       spreadMethod="pad"
       gradientTransform="matrix(-37.302402,89.964615,89.964615,37.302402,671.1723,171.91417)"
       gradientUnits="userSpaceOnUse"
       y2="0"
       x2="1"
       y1="0"
       x1="0"><stop
         id="stop528"
         offset="0"
         style="stop-opacity:1;stop-color:#a8f3f8" /><stop
         id="stop530"
         offset="1"
         style="stop-opacity:1;stop-color:#6ab2ff" /></linearGradient><clipPath
       id="clipPath554"
       clipPathUnits="userSpaceOnUse"><path
         id="path552"
         d="m 491.51,248.606 h 74.562 V 100.918 H 491.51 Z" /></clipPath><linearGradient
       id="linearGradient564"
       spreadMethod="pad"
       gradientTransform="matrix(-41.877914,100.99968,100.99968,41.877914,561.85498,75.300011)"
       gradientUnits="userSpaceOnUse"
       y2="0"
       x2="1"
       y1="0"
       x1="0"><stop
         id="stop560"
         offset="0"
         style="stop-opacity:1;stop-color:#a8f3f8" /><stop
         id="stop562"
         offset="1"
         style="stop-opacity:1;stop-color:#6ab2ff" /></linearGradient><clipPath
       id="clipPath586"
       clipPathUnits="userSpaceOnUse"><path
         id="path584"
         d="M 0,327.047 H 1176.441 V 0 H 0 Z" /></clipPath><clipPath
       id="clipPath594"
       clipPathUnits="userSpaceOnUse"><path
         id="path592"
         d="m 580.834,159.382 h 15.285 v -10.624 h -15.285 z" /></clipPath><linearGradient
       id="linearGradient604"
       spreadMethod="pad"
       gradientTransform="matrix(142.86853,-91.160309,-91.160309,-142.86853,604.15698,144.06496)"
       gradientUnits="userSpaceOnUse"
       y2="0"
       x2="1"
       y1="0"
       x1="0"><stop
         id="stop600"
         offset="0"
         style="stop-opacity:1;stop-color:#f05f6f" /><stop
         id="stop602"
         offset="1"
         style="stop-opacity:1;stop-color:#9f2c69" /></linearGradient><clipPath
       id="clipPath626"
       clipPathUnits="userSpaceOnUse"><path
         id="path624"
         d="m 681.372,193.431 h 9.336 v -7.099 h -9.336 z" /></clipPath><linearGradient
       id="linearGradient636"
       spreadMethod="pad"
       gradientTransform="matrix(87.879585,-64.888626,-52.039955,-95.373581,695.68506,182.75928)"
       gradientUnits="userSpaceOnUse"
       y2="0"
       x2="1"
       y1="0"
       x1="0"><stop
         id="stop632"
         offset="0"
         style="stop-opacity:1;stop-color:#f05f6f" /><stop
         id="stop634"
         offset="1"
         style="stop-opacity:1;stop-color:#9f2c69" /></linearGradient><linearGradient
       id="linearGradient668"
       spreadMethod="pad"
       gradientTransform="matrix(121.30991,-48.433437,-48.433437,-121.30991,516.36572,187.42343)"
       gradientUnits="userSpaceOnUse"
       y2="0"
       x2="1"
       y1="0"
       x1="0"><stop
         id="stop664"
         offset="0"
         style="stop-opacity:1;stop-color:#f09a6f" /><stop
         id="stop666"
         offset="1"
         style="stop-opacity:1;stop-color:#d62c69" /></linearGradient><clipPath
       id="clipPath682"
       clipPathUnits="userSpaceOnUse"><path
         id="path680"
         d="m 509.171,168.129 c 0,-30.662 24.858,-55.52 55.52,-55.52 v 0 c 30.663,0 55.521,24.858 55.521,55.52 v 0 c 0,30.663 -24.858,55.52 -55.521,55.52 v 0 c -30.662,0 -55.52,-24.857 -55.52,-55.52" /></clipPath><clipPath
       id="clipPath690"
       clipPathUnits="userSpaceOnUse"><path
         id="path688"
         d="M 542.657,236.315 H 654.16 V 120.95 H 542.657 Z" /></clipPath><linearGradient
       id="linearGradient700"
       spreadMethod="pad"
       gradientTransform="matrix(135.55119,-54.119324,-54.119324,-135.55119,538.13678,199.20615)"
       gradientUnits="userSpaceOnUse"
       y2="0"
       x2="1"
       y1="0"
       x1="0"><stop
         id="stop696"
         offset="0"
         style="stop-opacity:1;stop-color:#ff002a" /><stop
         id="stop698"
         offset="1"
         style="stop-opacity:1;stop-color:#940035" /></linearGradient><linearGradient
       id="linearGradient732"
       spreadMethod="pad"
       gradientTransform="matrix(101.1933,-40.401802,-40.401802,-101.1933,611.92926,90.59816)"
       gradientUnits="userSpaceOnUse"
       y2="0"
       x2="1"
       y1="0"
       x1="0"><stop
         id="stop728"
         offset="0"
         style="stop-opacity:1;stop-color:#f09a6f" /><stop
         id="stop730"
         offset="1"
         style="stop-opacity:1;stop-color:#d62c69" /></linearGradient><linearGradient
       id="linearGradient752"
       spreadMethod="pad"
       gradientTransform="matrix(85.870316,-158.77364,-158.77364,-85.870316,623.16779,133.20885)"
       gradientUnits="userSpaceOnUse"
       y2="0"
       x2="1"
       y1="0"
       x1="0"><stop
         id="stop748"
         offset="0"
         style="stop-opacity:1;stop-color:#ffffff" /><stop
         id="stop750"
         offset="1"
         style="stop-opacity:1;stop-color:#ffe8b1" /></linearGradient><linearGradient
       id="linearGradient772"
       spreadMethod="pad"
       gradientTransform="matrix(-11.832982,27.561295,27.561295,11.832982,654.0202,73.696571)"
       gradientUnits="userSpaceOnUse"
       y2="0"
       x2="1"
       y1="0"
       x1="0"><stop
         id="stop768"
         offset="0"
         style="stop-opacity:1;stop-color:#f09a6f" /><stop
         id="stop770"
         offset="1"
         style="stop-opacity:1;stop-color:#d62c69" /></linearGradient><linearGradient
       id="linearGradient792"
       spreadMethod="pad"
       gradientTransform="matrix(12.128929,-22.426308,-22.426308,-12.128929,648.21674,39.36071)"
       gradientUnits="userSpaceOnUse"
       y2="0"
       x2="1"
       y1="0"
       x1="0"><stop
         id="stop788"
         offset="0"
         style="stop-opacity:1;stop-color:#ffffff" /><stop
         id="stop790"
         offset="1"
         style="stop-opacity:1;stop-color:#ffe8b1" /></linearGradient><clipPath
       id="clipPath802"
       clipPathUnits="userSpaceOnUse"><path
         id="path800"
         d="M 0,327.047 H 1176.441 V 0 H 0 Z" /></clipPath><clipPath
       id="clipPath818"
       clipPathUnits="userSpaceOnUse"><path
         id="path816"
         d="m 1003.04,193.455 h 144.43 V 25.5453 h -144.43 z" /></clipPath><linearGradient
       id="linearGradient830"
       spreadMethod="pad"
       gradientTransform="matrix(311.50369,67.065948,67.065948,-311.50369,948.35382,74.979736)"
       gradientUnits="userSpaceOnUse"
       y2="0"
       x2="1"
       y1="0"
       x1="0"><stop
         id="stop824"
         offset="0"
         style="stop-opacity:1;stop-color:#e7fff8" /><stop
         id="stop826"
         offset="0.585559"
         style="stop-opacity:1;stop-color:#7be3fc" /><stop
         id="stop828"
         offset="1"
         style="stop-opacity:1;stop-color:#2ed0ff" /></linearGradient></defs><g
     transform="matrix(1.3333333,0,0,-1.3333333,-664.98777,371.93852)"
     id="g18"><g
       id="g382"><g
         clip-path="url(#clipPath388)"
         id="g384"><g
           id="g390"><g
             id="g392" /><g
             id="g422"><g
               style="opacity:0.19999701"
               id="g420"
               clip-path="url(#clipPath396)"><g
                 id="g418"><g
                   id="g416"><g
                     id="g414"><g
                       id="g412"><path
                         id="path410"
                         style="fill:url(#linearGradient408);stroke:none"
                         d="m 701.372,197.844 c 0,0 -37.942,-63.064 -17.726,-90.892 30.614,-42.139 -1.333,-82.037 -98.745,-76.359 -97.412,5.678 88.787,172.401 116.471,167.251" /></g></g></g></g></g></g></g></g></g><g
       id="g424"><g
         id="g426"><g
           id="g432"><g
             id="g434"><path
               id="path442"
               style="fill:url(#linearGradient440);stroke:none"
               d="m 645.563,222.033 c -25.78,-22.241 17.117,-89.19 -71.172,-85.137 v 0 c -41.352,1.899 -72.252,-23.336 -75.227,-43.693 v 0 c -4.867,-33.314 32.631,-58.559 92.794,-57.208 v 0 c 80.181,1.801 99.551,34.685 82.434,61.262 v 0 c -17.118,26.577 -5.256,48.933 22.072,87.839 v 0 c 19.264,27.427 -4.07,44.913 -27.119,44.911 v 0 c -8.75,0 -17.461,-2.521 -23.782,-7.974" /></g></g></g></g><g
       id="g444"><g
         clip-path="url(#clipPath450)"
         id="g446"><g
           id="g452"><g
             id="g454" /><g
             id="g482"><g
               style="opacity:0.42999303"
               id="g480"
               clip-path="url(#clipPath458)"><g
                 id="g478"><g
                   id="g476"><g
                     id="g474"><g
                       id="g472"><path
                         id="path470"
                         style="fill:url(#linearGradient468);fill-rule:evenodd;stroke:none"
                         d="M 504.498,35.943 C 508.065,54.75 501.417,68.422 639.201,65.474 793.684,62.171 650.905,12.191 624.738,15.249 598.57,18.305 497.964,1.49 504.498,35.943" /></g></g></g></g></g></g></g><g
           id="g484"><g
             id="g486" /><g
             id="g514"><g
               style="opacity:0.33999604"
               id="g512"
               clip-path="url(#clipPath490)"><g
                 id="g510"><g
                   id="g508"><g
                     id="g506"><g
                       id="g504"><path
                         id="path502"
                         style="fill:url(#linearGradient500);stroke:none"
                         d="m 690.688,224.58 c 0,0 -62.086,-48.247 -23.702,-110.579 38.385,-62.332 63.353,112.763 63.353,112.763 0,0 -31.537,5.3 -39.651,-2.184" /></g></g></g></g></g></g></g><g
           id="g516"><g
             id="g518" /><g
             id="g546"><g
               style="opacity:0.64999402"
               id="g544"
               clip-path="url(#clipPath522)"><g
                 id="g542"><g
                   id="g540"><g
                     id="g538"><g
                       id="g536"><path
                         id="path534"
                         style="fill:url(#linearGradient532);stroke:none"
                         d="m 612.874,299.554 c 0,0 -35.257,-105.569 37.946,-105.569 81.107,0 -9.293,133.063 -9.293,133.063 0,0 -27.376,-16.531 -28.653,-27.494" /></g></g></g></g></g></g></g><g
           id="g548"><g
             id="g550" /><g
             id="g578"><g
               style="opacity:0.64999402"
               id="g576"
               clip-path="url(#clipPath554)"><g
                 id="g574"><g
                   id="g572"><g
                     id="g570"><g
                       id="g568"><path
                         id="path566"
                         style="fill:url(#linearGradient564);stroke:none"
                         d="m 497.858,221.112 c 0,0 -29.844,-95.89 39.889,-118.16 69.732,-22.271 -11.236,145.654 -11.236,145.654 0,0 -27.376,-16.529 -28.653,-27.494" /></g></g></g></g></g></g></g></g></g><g
       id="g580"><g
         clip-path="url(#clipPath586)"
         id="g582"><g
           id="g588"><g
             id="g590" /><g
             id="g618"><g
               style="opacity:0.08000183"
               id="g616"
               clip-path="url(#clipPath594)"><g
                 id="g614"><g
                   id="g612"><g
                     id="g610"><g
                       id="g608"><path
                         id="path606"
                         style="fill:url(#linearGradient604);stroke:none"
                         d="m 592.625,150.374 -6.148,-1.488 c -2.442,-0.591 -4.924,0.923 -5.515,3.366 -0.591,2.442 0.924,4.924 3.366,5.514 l 6.149,1.489 c 2.441,0.591 4.923,-0.924 5.514,-3.367 0.591,-2.442 -0.924,-4.923 -3.366,-5.514" /></g></g></g></g></g></g></g><g
           id="g620"><g
             id="g622" /><g
             id="g650"><g
               style="opacity:0.05000311"
               id="g648"
               clip-path="url(#clipPath626)"><g
                 id="g646"><g
                   id="g644"><g
                     id="g642"><g
                       id="g640"><path
                         id="path638"
                         style="fill:url(#linearGradient636);stroke:none"
                         d="m 688.267,187.136 -2.952,-0.715 c -1.707,-0.413 -3.441,0.645 -3.854,2.352 -0.413,1.707 0.645,3.442 2.352,3.854 l 2.952,0.715 c 1.707,0.413 3.441,-0.646 3.854,-2.353 0.413,-1.707 -0.645,-3.441 -2.352,-3.853" /></g></g></g></g></g></g></g></g></g><g
       id="g652"><g
         id="g654"><g
           id="g660"><g
             id="g662"><path
               id="path670"
               style="fill:url(#linearGradient668);stroke:none"
               d="m 509.171,168.129 c 0,-30.662 24.858,-55.52 55.52,-55.52 v 0 c 30.663,0 55.521,24.858 55.521,55.52 v 0 c 0,30.663 -24.858,55.52 -55.521,55.52 v 0 c -30.662,0 -55.52,-24.857 -55.52,-55.52" /></g></g><g
           transform="translate(564.7241,13.7459)"
           id="g672"><path
             id="path674"
             style="fill:#f7f7f7;fill-opacity:1;fill-rule:nonzero;stroke:none"
             d="m 0,0 c -29.727,0 -53.911,28.3 -53.911,63.084 0,24.978 12.47,46.609 30.507,56.823 0.74,-1.856 1.543,-3.636 2.409,-5.328 5.61,-10.965 13.18,-17.003 21.317,-17.003 8.136,0 15.707,6.038 21.316,17.003 0.819,1.599 1.58,3.277 2.286,5.025 C 41.679,109.271 53.911,87.819 53.911,63.084 53.911,28.3 29.726,0 0,0 m -26.542,152.881 h 25.093 v -23.838 c -7.112,-0.205 -14.001,-1.919 -20.397,-5.011 -2.922,8.482 -4.553,18.41 -4.696,28.849 m 5.293,33.516 c 6.229,-1.801 12.913,-2.803 19.8,-2.926 v -27.693 h -25.095 c 0.142,11.168 1.989,21.757 5.295,30.619 m -32.662,37.936 c 0,20.941 24.184,37.979 53.911,37.979 29.726,0 53.911,-17.038 53.911,-37.979 0,-15.007 -12.421,-28.008 -30.399,-34.172 -0.588,1.39 -1.213,2.735 -1.874,4.026 -5.609,10.965 -13.18,17.003 -21.316,17.003 -8.137,0 -15.707,-6.038 -21.317,-17.003 -0.692,-1.35 -1.343,-2.757 -1.954,-4.214 -18.281,6.083 -30.962,19.197 -30.962,34.36 m 52.462,-37.965 c -6.601,0.123 -12.908,1.088 -18.718,2.745 0.551,1.296 1.134,2.55 1.75,3.755 4.659,9.105 10.628,14.462 16.968,15.305 z m 2.897,21.875 c 6.58,-0.556 12.796,-5.963 17.612,-15.375 0.59,-1.154 1.148,-2.353 1.679,-3.59 -5.967,-1.758 -12.472,-2.783 -19.291,-2.91 z M 27.187,155.778 H 1.448 v 27.693 c 7.103,0.127 13.988,1.186 20.381,3.095 3.346,-8.896 5.215,-19.548 5.358,-30.788 M 1.448,101.224 v 24.921 c 7.058,-0.22 13.781,-2.037 19.917,-5.148 -0.709,-1.778 -1.478,-3.481 -2.305,-5.099 -5.09,-9.947 -11.744,-15.425 -18.738,-15.425 -6.994,0 -13.649,5.478 -18.739,15.425 -0.869,1.7 -1.672,3.495 -2.41,5.371 5.991,2.946 12.527,4.663 19.378,4.876 v -24.921 z m 20.945,22.535 c -6.55,3.262 -13.629,5.073 -20.945,5.284 v 23.838 H 27.185 C 27.041,142.33 25.375,132.3 22.393,123.759 m 2.584,-1.378 c 3.181,8.942 4.958,19.458 5.106,30.5 h 25.276 v 2.897 H 30.084 c -0.143,11.525 -2.061,22.48 -5.497,31.677 5.634,1.944 10.835,4.569 15.398,7.818 10.848,7.727 16.822,18.047 16.822,29.06 0,11.013 -5.974,21.333 -16.822,29.059 -10.699,7.62 -24.9,11.816 -39.985,11.816 -15.086,0 -29.286,-4.196 -39.985,-11.816 -10.848,-7.726 -16.823,-18.046 -16.823,-29.059 0,-11.013 5.975,-21.333 16.823,-29.06 4.716,-3.359 10.115,-6.051 15.968,-8.014 -3.39,-9.156 -5.282,-20.037 -5.424,-31.481 h -25.918 v -2.897 h 25.92 c 0.146,-10.917 1.884,-21.319 4.998,-30.195 -5.796,-3.211 -11.136,-7.587 -15.803,-13.028 -10.681,-12.451 -16.564,-28.991 -16.564,-46.574 0,-17.583 5.883,-34.123 16.564,-46.574 C -29.509,3.996 -15.217,-2.896 0,-2.896 c 15.216,0 29.508,6.892 40.244,19.406 10.68,12.451 16.563,28.991 16.563,46.574 0,17.583 -5.883,34.123 -16.563,46.574 -4.523,5.272 -9.678,9.541 -15.267,12.723" /></g></g></g><g
       id="g676"><g
         clip-path="url(#clipPath682)"
         id="g678"><g
           id="g684"><g
             id="g686" /><g
             id="g714"><g
               style="opacity:0.19999701"
               id="g712"
               clip-path="url(#clipPath690)"><g
                 id="g710"><g
                   id="g708"><g
                     id="g706"><g
                       id="g704"><path
                         id="path702"
                         style="fill:url(#linearGradient700);stroke:none"
                         d="m 542.657,221.073 c 0,0 69.453,-11.266 51.312,-100.123 0,0 82.599,25.4 54.276,66.275 -28.323,40.876 -75.675,67.374 -105.588,33.848" /></g></g></g></g></g></g></g></g></g><g
       id="g716"><g
         id="g718"><g
           id="g724"><g
             id="g726"><path
               id="path734"
               style="fill:url(#linearGradient732);stroke:none"
               d="m 630.373,127.942 c -5.424,0 -9.862,-4.438 -9.862,-9.861 v 0 -87.155 c 0,-5.425 4.438,-9.862 9.862,-9.862 v 0 h 43.736 c 5.424,0 9.861,4.437 9.861,9.862 v 0 87.155 c 0,5.423 -4.437,9.861 -9.861,9.861 v 0 z" /></g></g></g></g><g
       id="g736"><g
         id="g738"><g
           id="g744"><g
             id="g746"><path
               id="path754"
               style="fill:url(#linearGradient752);stroke:none"
               d="m 635.17,120.912 c -4.463,0 -8.082,-3.62 -8.082,-8.084 v 0 -68.802 h 50.308 v 68.802 c 0,4.464 -3.62,8.084 -8.085,8.084 v 0 z" /></g></g></g></g><g
       id="g756"><g
         id="g758"><g
           id="g764"><g
             id="g766"><path
               id="path774"
               style="fill:url(#linearGradient772);stroke:none"
               d="M 640.52,92.248 V 72.863 c 0,-3.063 3.407,-4.895 5.963,-3.207 v 0 l 15.605,10.305 c 2.379,1.573 2.28,5.097 -0.186,6.532 v 0 l -15.604,9.078 c -0.623,0.362 -1.283,0.527 -1.928,0.527 v 0 c -2.007,0 -3.85,-1.605 -3.85,-3.85" /></g></g></g></g><g
       id="g776"><g
         id="g778"><g
           id="g784"><g
             id="g786"><path
               id="path794"
               style="fill:url(#linearGradient792);stroke:none"
               d="m 645.979,31.919 c 0,-3.458 2.804,-6.262 6.262,-6.262 v 0 c 3.459,0 6.263,2.804 6.263,6.262 v 0 c 0,3.459 -2.804,6.263 -6.263,6.263 v 0 c -3.458,0 -6.262,-2.804 -6.262,-6.263" /></g></g></g></g><g
       id="g796"><g
         clip-path="url(#clipPath802)"
         id="g798"><g
           transform="translate(627.8359,197.4979)"
           id="g804"><path
             id="path806"
             style="fill:#ffffff;fill-opacity:1;fill-rule:nonzero;stroke:none"
             d="m 0,0 c -2.929,1.791 -6.015,3.373 -9.171,4.702 l 0.94,2.234 C -4.963,5.559 -1.769,3.921 1.264,2.067 Z m 12.478,-9.754 c -2.444,2.408 -5.088,4.651 -7.86,6.669 l 1.426,1.959 c 2.868,-2.088 5.605,-4.41 8.135,-6.902 z m 9.937,-12.332 c -1.829,2.897 -3.895,5.681 -6.141,8.279 l 1.833,1.583 c 2.324,-2.687 4.462,-5.57 6.356,-8.567 z m 6.861,-14.268 c -1.117,3.236 -2.492,6.418 -4.086,9.458 l 2.146,1.125 c 1.65,-3.146 3.074,-6.442 4.231,-9.793 z m 3.406,-15.463 c -0.347,3.417 -0.955,6.831 -1.807,10.145 l 2.348,0.603 c 0.881,-3.432 1.51,-6.966 1.869,-10.504 z m 2.778,-7.055 h -2.423 c 0,0.505 -0.006,1.009 -0.016,1.511 l 2.422,0.051 c 0.011,-0.519 0.017,-1.041 0.017,-1.562" /></g><g
           transform="translate(531.683,95.0545)"
           id="g808"><path
             id="path810"
             style="fill:#ffffff;fill-opacity:1;fill-rule:nonzero;stroke:none"
             d="M 0,0 C -0.215,0.473 -0.426,0.949 -0.632,1.43 L 1.594,2.387 C 1.793,1.923 1.997,1.46 2.206,1.003 Z M 8.443,-14.049 C 6.28,-11.24 4.309,-8.241 2.584,-5.132 l 2.119,1.175 c 1.666,-3.004 3.57,-5.901 5.659,-8.611 z m 11.441,-11.74 c -2.756,2.242 -5.363,4.709 -7.749,7.334 l 1.793,1.629 c 2.304,-2.535 4.822,-4.918 7.485,-7.082 z M 33.706,-34.6 c -3.192,1.553 -6.294,3.36 -9.219,5.369 l 1.372,1.997 c 2.826,-1.941 5.823,-3.687 8.907,-5.188 z m 15.461,-5.443 c -3.458,0.788 -6.889,1.844 -10.196,3.137 l 0.881,2.257 c 3.197,-1.25 6.512,-2.27 9.853,-3.031 z m 15.83,-1.782 c -3.392,0 -6.816,0.246 -10.176,0.732 l 0.346,2.398 c 3.246,-0.469 6.553,-0.707 9.83,-0.707 l 0.454,0.002 0.012,-2.423 z" /></g><g
           id="g812"><g
             id="g814" /><g
             id="g844"><g
               style="opacity:0.19999701"
               id="g842"
               clip-path="url(#clipPath818)"><g
                 id="g840"><g
                   id="g838"><g
                     id="g836"><g
                       id="g834"><path
                         id="path832"
                         style="fill:url(#linearGradient830);stroke:none"
                         d="m 1147.475,193.338 c 0,0 -37.943,-63.065 -17.727,-90.893 30.613,-42.138 -1.333,-82.036 -98.745,-76.358 -97.412,5.678 88.788,172.401 116.472,167.251" /></g></g></g></g></g></g></g></g></g></g></svg>