<?xml version="1.0" encoding="UTF-8" standalone="no"?>
<svg
   xmlns:dc="http://purl.org/dc/elements/1.1/"
   xmlns:cc="http://creativecommons.org/ns#"
   xmlns:rdf="http://www.w3.org/1999/02/22-rdf-syntax-ns#"
   xmlns:svg="http://www.w3.org/2000/svg"
   xmlns="http://www.w3.org/2000/svg"
   viewBox="0 0 273.15156 291.35812"
   height="291.35812"
   width="273.15155"
   xml:space="preserve"
   id="svg10"
   version="1.1"><metadata
     id="metadata16"><rdf:RDF><cc:Work
         rdf:about=""><dc:format>image/svg+xml</dc:format><dc:type
           rdf:resource="http://purl.org/dc/dcmitype/StillImage" /><dc:title></dc:title></cc:Work></rdf:RDF></metadata><defs
     id="defs14"><clipPath
       id="clipPath26"
       clipPathUnits="userSpaceOnUse"><path
         id="path24"
         d="M 0,327.047 H 1176.441 V 0 H 0 Z" /></clipPath><clipPath
       id="clipPath34"
       clipPathUnits="userSpaceOnUse"><path
         id="path32"
         d="M 65.4297,184.186 H 209.863 V 16.2764 H 65.4297 Z" /></clipPath><linearGradient
       id="linearGradient46"
       spreadMethod="pad"
       gradientTransform="matrix(311.50369,67.065948,67.065948,-311.50369,10.742221,65.710846)"
       gradientUnits="userSpaceOnUse"
       y2="0"
       x2="1"
       y1="0"
       x1="0"><stop
         id="stop40"
         offset="0"
         style="stop-opacity:1;stop-color:#e7fff8" /><stop
         id="stop42"
         offset="0.585559"
         style="stop-opacity:1;stop-color:#7be3fc" /><stop
         id="stop44"
         offset="1"
         style="stop-opacity:1;stop-color:#2ed0ff" /></linearGradient><linearGradient
       id="linearGradient78"
       spreadMethod="pad"
       gradientTransform="matrix(248.56335,-254.88687,-254.88687,-248.56335,56.926582,182.91211)"
       gradientUnits="userSpaceOnUse"
       y2="0"
       x2="1"
       y1="0"
       x1="0"><stop
         id="stop74"
         offset="0"
         style="stop-opacity:1;stop-color:#e7fff8" /><stop
         id="stop76"
         offset="1"
         style="stop-opacity:1;stop-color:#2ed0ff" /></linearGradient><clipPath
       id="clipPath88"
       clipPathUnits="userSpaceOnUse"><path
         id="path86"
         d="m 154.052,208.257 c -25.779,-22.241 17.117,-89.19 -71.172,-85.135 v 0 C 41.53,125.02 10.629,99.786 7.654,79.428 v 0 C 2.787,46.113 40.285,20.868 100.448,22.219 v 0 c 80.181,1.802 99.551,34.686 82.433,61.263 v 0 c -17.117,26.576 -5.254,48.933 22.072,87.838 v 0 c 19.265,27.428 -4.068,44.915 -27.118,44.913 v 0 c -8.749,-0.001 -17.462,-2.522 -23.783,-7.976" /></clipPath><clipPath
       id="clipPath96"
       clipPathUnits="userSpaceOnUse"><path
         id="path94"
         d="M 12.6838,52.1001 H 218.44 V 0 H 12.6838 Z" /></clipPath><linearGradient
       id="linearGradient106"
       spreadMethod="pad"
       gradientTransform="matrix(7.3861723,-219.84724,-219.84724,-7.3861723,112.10983,130.22643)"
       gradientUnits="userSpaceOnUse"
       y2="0"
       x2="1"
       y1="0"
       x1="0"><stop
         id="stop102"
         offset="0"
         style="stop-opacity:1;stop-color:#a8f3f8" /><stop
         id="stop104"
         offset="1"
         style="stop-opacity:1;stop-color:#6ab2ff" /></linearGradient><clipPath
       id="clipPath128"
       clipPathUnits="userSpaceOnUse"><path
         id="path126"
         d="m 162.951,214.81 h 75.878 V 86.8102 h -75.878 z" /></clipPath><linearGradient
       id="linearGradient138"
       spreadMethod="pad"
       gradientTransform="matrix(7.782805,-120.63348,-120.63348,-7.782805,201.21439,171.13087)"
       gradientUnits="userSpaceOnUse"
       y2="0"
       x2="1"
       y1="0"
       x1="0"><stop
         id="stop134"
         offset="0"
         style="stop-opacity:1;stop-color:#a8f3f8" /><stop
         id="stop136"
         offset="1"
         style="stop-opacity:1;stop-color:#6ab2ff" /></linearGradient><clipPath
       id="clipPath160"
       clipPathUnits="userSpaceOnUse"><path
         id="path158"
         d="m 112.877,313.272 h 80.22 V 180.21 h -80.22 z" /></clipPath><linearGradient
       id="linearGradient170"
       spreadMethod="pad"
       gradientTransform="matrix(-37.302402,89.964615,89.964615,37.302402,179.66237,158.13921)"
       gradientUnits="userSpaceOnUse"
       y2="0"
       x2="1"
       y1="0"
       x1="0"><stop
         id="stop166"
         offset="0"
         style="stop-opacity:1;stop-color:#a8f3f8" /><stop
         id="stop168"
         offset="1"
         style="stop-opacity:1;stop-color:#6ab2ff" /></linearGradient><clipPath
       id="clipPath192"
       clipPathUnits="userSpaceOnUse"><path
         id="path190"
         d="M 0,234.831 H 74.5621 V 87.143 H 0 Z" /></clipPath><linearGradient
       id="linearGradient202"
       spreadMethod="pad"
       gradientTransform="matrix(-41.877914,100.99968,100.99968,41.877914,70.345108,61.525047)"
       gradientUnits="userSpaceOnUse"
       y2="0"
       x2="1"
       y1="0"
       x1="0"><stop
         id="stop198"
         offset="0"
         style="stop-opacity:1;stop-color:#a8f3f8" /><stop
         id="stop200"
         offset="1"
         style="stop-opacity:1;stop-color:#6ab2ff" /></linearGradient><clipPath
       id="clipPath224"
       clipPathUnits="userSpaceOnUse"><path
         id="path222"
         d="M 0,327.047 H 1176.441 V 0 H 0 Z" /></clipPath><clipPath
       id="clipPath232"
       clipPathUnits="userSpaceOnUse"><path
         id="path230"
         d="M 89.3241,145.607 H 104.609 V 134.983 H 89.3241 Z" /></clipPath><linearGradient
       id="linearGradient242"
       spreadMethod="pad"
       gradientTransform="matrix(142.86853,-91.160309,-91.160309,-142.86853,112.64708,130.29001)"
       gradientUnits="userSpaceOnUse"
       y2="0"
       x2="1"
       y1="0"
       x1="0"><stop
         id="stop238"
         offset="0"
         style="stop-opacity:1;stop-color:#f05f6f" /><stop
         id="stop240"
         offset="1"
         style="stop-opacity:1;stop-color:#9f2c69" /></linearGradient><clipPath
       id="clipPath264"
       clipPathUnits="userSpaceOnUse"><path
         id="path262"
         d="m 189.862,179.656 h 9.336 v -7.099 h -9.336 z" /></clipPath><linearGradient
       id="linearGradient274"
       spreadMethod="pad"
       gradientTransform="matrix(87.879585,-64.888626,-52.039955,-95.373581,204.17519,168.98431)"
       gradientUnits="userSpaceOnUse"
       y2="0"
       x2="1"
       y1="0"
       x1="0"><stop
         id="stop270"
         offset="0"
         style="stop-opacity:1;stop-color:#f05f6f" /><stop
         id="stop272"
         offset="1"
         style="stop-opacity:1;stop-color:#9f2c69" /></linearGradient><linearGradient
       id="linearGradient306"
       spreadMethod="pad"
       gradientTransform="matrix(182.66216,-4.5317421,-4.5317421,-182.66216,45.785019,83.810989)"
       gradientUnits="userSpaceOnUse"
       y2="0"
       x2="1"
       y1="0"
       x1="0"><stop
         id="stop302"
         offset="0"
         style="stop-opacity:1;stop-color:#f09a6f" /><stop
         id="stop304"
         offset="1"
         style="stop-opacity:1;stop-color:#d62c69" /></linearGradient><linearGradient
       id="linearGradient326"
       spreadMethod="pad"
       gradientTransform="matrix(102.89124,-25.44261,-25.44261,-102.89124,32.467403,188.8007)"
       gradientUnits="userSpaceOnUse"
       y2="0"
       x2="1"
       y1="0"
       x1="0"><stop
         id="stop322"
         offset="0"
         style="stop-opacity:1;stop-color:#f09a6f" /><stop
         id="stop324"
         offset="1"
         style="stop-opacity:1;stop-color:#d62c69" /></linearGradient><clipPath
       id="clipPath336"
       clipPathUnits="userSpaceOnUse"><path
         id="path334"
         d="M 0,327.047 H 1176.441 V 0 H 0 Z" /></clipPath><linearGradient
       id="linearGradient358"
       spreadMethod="pad"
       gradientTransform="matrix(78.542046,-19.421621,-19.421621,-78.542046,43.988731,179.07132)"
       gradientUnits="userSpaceOnUse"
       y2="0"
       x2="1"
       y1="0"
       x1="0"><stop
         id="stop354"
         offset="0"
         style="stop-opacity:1;stop-color:#f09a6f" /><stop
         id="stop356"
         offset="1"
         style="stop-opacity:1;stop-color:#d62c69" /></linearGradient><linearGradient
       id="linearGradient378"
       spreadMethod="pad"
       gradientTransform="matrix(-17.622044,37.391693,28.98374,10.804258,98.288704,139.61501)"
       gradientUnits="userSpaceOnUse"
       y2="0"
       x2="1"
       y1="0"
       x1="0"><stop
         id="stop374"
         offset="0"
         style="stop-opacity:1;stop-color:#f09a6f" /><stop
         id="stop376"
         offset="1"
         style="stop-opacity:1;stop-color:#d62c69" /></linearGradient></defs><g
     transform="matrix(1.3333333,0,0,-1.3333333,-9.6411189,313.05999)"
     id="g18"><g
       id="g20"><g
         clip-path="url(#clipPath26)"
         id="g22"><g
           id="g28"><g
             id="g30" /><g
             id="g60"><g
               style="opacity:0.19999701"
               id="g58"
               clip-path="url(#clipPath34)"><g
                 id="g56"><g
                   id="g54"><g
                     id="g52"><g
                       id="g50"><path
                         id="path48"
                         style="fill:url(#linearGradient46);stroke:none"
                         d="m 209.863,184.069 c 0,0 -37.943,-63.064 -17.726,-90.892 30.612,-42.139 -1.334,-82.038 -98.746,-76.359 -97.412,5.678 88.788,172.402 116.472,167.251" /></g></g></g></g></g></g></g></g></g><g
       id="g62"><g
         id="g64"><g
           id="g70"><g
             id="g72"><path
               id="path80"
               style="fill:url(#linearGradient78);stroke:none"
               d="m 154.052,208.257 c -25.779,-22.241 17.117,-89.19 -71.172,-85.135 v 0 C 41.53,125.02 10.629,99.786 7.654,79.428 v 0 C 2.787,46.113 40.285,20.868 100.448,22.219 v 0 c 80.181,1.802 99.551,34.686 82.433,61.263 v 0 c -17.117,26.576 -5.254,48.933 22.072,87.838 v 0 c 19.265,27.428 -4.068,44.915 -27.118,44.913 v 0 c -8.749,-0.001 -17.462,-2.522 -23.783,-7.976" /></g></g></g></g><g
       id="g82"><g
         clip-path="url(#clipPath88)"
         id="g84"><g
           id="g90"><g
             id="g92" /><g
             id="g120"><g
               style="opacity:0.42999303"
               id="g118"
               clip-path="url(#clipPath96)"><g
                 id="g116"><g
                   id="g114"><g
                     id="g112"><g
                       id="g110"><path
                         id="path108"
                         style="fill:url(#linearGradient106);fill-rule:evenodd;stroke:none"
                         d="M 12.988,22.168 C 16.555,40.974 9.908,54.646 147.691,51.7 302.173,48.396 159.395,-1.584 133.228,1.473 107.06,4.531 6.454,-12.285 12.988,22.168" /></g></g></g></g></g></g></g><g
           id="g122"><g
             id="g124" /><g
             id="g152"><g
               style="opacity:0.33999604"
               id="g150"
               clip-path="url(#clipPath128)"><g
                 id="g148"><g
                   id="g146"><g
                     id="g144"><g
                       id="g142"><path
                         id="path140"
                         style="fill:url(#linearGradient138);stroke:none"
                         d="m 199.179,210.805 c 0,0 -62.087,-48.248 -23.702,-110.579 38.385,-62.332 63.352,112.764 63.352,112.764 0,0 -31.538,5.3 -39.65,-2.185" /></g></g></g></g></g></g></g><g
           id="g154"><g
             id="g156" /><g
             id="g184"><g
               style="opacity:0.64999402"
               id="g182"
               clip-path="url(#clipPath160)"><g
                 id="g180"><g
                   id="g178"><g
                     id="g176"><g
                       id="g174"><path
                         id="path172"
                         style="fill:url(#linearGradient170);stroke:none"
                         d="m 121.364,285.778 c 0,0 -35.257,-105.568 37.946,-105.568 81.107,0 -9.292,133.062 -9.292,133.062 0,0 -27.377,-16.53 -28.654,-27.494" /></g></g></g></g></g></g></g><g
           id="g186"><g
             id="g188" /><g
             id="g216"><g
               style="opacity:0.64999402"
               id="g214"
               clip-path="url(#clipPath192)"><g
                 id="g212"><g
                   id="g210"><g
                     id="g208"><g
                       id="g206"><path
                         id="path204"
                         style="fill:url(#linearGradient202);stroke:none"
                         d="m 6.348,207.338 c 0,0 -29.844,-95.89 39.888,-118.16 69.733,-22.271 -11.235,145.654 -11.235,145.654 0,0 -27.376,-16.53 -28.653,-27.494" /></g></g></g></g></g></g></g></g></g><g
       id="g218"><g
         clip-path="url(#clipPath224)"
         id="g220"><g
           id="g226"><g
             id="g228" /><g
             id="g256"><g
               style="opacity:0.08000183"
               id="g254"
               clip-path="url(#clipPath232)"><g
                 id="g252"><g
                   id="g250"><g
                     id="g248"><g
                       id="g246"><path
                         id="path244"
                         style="fill:url(#linearGradient242);stroke:none"
                         d="m 101.115,136.598 -6.148,-1.487 c -2.442,-0.591 -4.924,0.924 -5.515,3.366 -0.591,2.442 0.923,4.924 3.366,5.515 l 6.148,1.487 c 2.442,0.591 4.924,-0.924 5.515,-3.365 0.591,-2.442 -0.923,-4.924 -3.366,-5.516" /></g></g></g></g></g></g></g><g
           id="g258"><g
             id="g260" /><g
             id="g288"><g
               style="opacity:0.05000311"
               id="g286"
               clip-path="url(#clipPath264)"><g
                 id="g284"><g
                   id="g282"><g
                     id="g280"><g
                       id="g278"><path
                         id="path276"
                         style="fill:url(#linearGradient274);stroke:none"
                         d="m 196.757,173.36 -2.952,-0.714 c -1.706,-0.413 -3.441,0.646 -3.854,2.352 -0.413,1.707 0.646,3.441 2.352,3.854 l 2.952,0.714 c 1.706,0.413 3.441,-0.645 3.854,-2.351 0.413,-1.707 -0.646,-3.442 -2.352,-3.855" /></g></g></g></g></g></g></g></g></g><g
       id="g290"><g
         id="g292"><g
           id="g298"><g
             id="g300"><path
               id="path308"
               style="fill:url(#linearGradient306);stroke:none"
               d="m 139.832,134.804 c -16.635,-6.169 -27.053,-21.8 -27.446,-38.544 v 0 c -12.464,10.539 -26.662,18.482 -44.39,11.909 v 0 C 46.227,100.097 35.082,75.82 43.154,54.049 v 0 C 51.225,32.281 75.503,21.137 97.272,29.208 v 0 c 5.731,2.125 15.775,7.345 22.221,19.112 v 0 l 10.662,-4.894 -8.364,22.56 -22.561,-8.364 9.865,-4.529 C 104.387,45.032 97.367,41.398 93.31,39.894 v 0 C 77.433,34.007 59.727,42.135 53.84,58.012 v 0 c -5.887,15.877 2.241,33.584 18.118,39.471 v 0 c 16.594,6.152 29.198,-5.849 43.791,-19.745 v 0 c 14.62,-13.92 31.172,-29.663 52.994,-22.011 v 0 c 0.121,0.036 0.245,0.07 0.366,0.115 v 0 c 0.051,0.02 0.102,0.043 0.153,0.062 v 0 c 0.048,0.018 0.095,0.031 0.144,0.049 v 0 c 0.101,0.037 0.196,0.084 0.293,0.126 v 0 c 21.375,8.291 32.249,32.314 24.252,53.883 v 0 c -6.288,16.959 -22.413,27.47 -39.525,27.47 v 0 c -4.853,0 -9.784,-0.845 -14.594,-2.628 m -13.921,-51 c -0.059,0.283 -0.131,0.565 -0.234,0.844 v 0 c -5.888,15.877 2.24,33.582 18.118,39.469 v 0 c 15.877,5.887 33.583,-2.24 39.469,-18.119 v 0 c 5.867,-15.823 -2.188,-33.46 -17.961,-39.406 v 0 c -2.732,-0.996 -5.362,-1.451 -7.92,-1.451 v 0 c -11.082,0 -20.796,8.544 -31.472,18.663" /></g></g></g></g><g
       id="g310"><g
         id="g312"><g
           id="g318"><g
             id="g320"><path
               id="path328"
               style="fill:url(#linearGradient326);stroke:none"
               d="m 91.581,231.05 -2.318,-9.376 c -26.475,3.592 -51.95,-13.276 -58.509,-39.802 v 0 C 23.728,153.459 41.066,124.73 69.478,117.705 v 0 c 28.413,-7.027 57.141,10.311 64.167,38.723 v 0 c 6.56,26.527 -8.118,53.325 -33.216,62.485 v 0 l 2.319,9.375 c 0.65,2.631 -0.971,5.319 -3.602,5.969 v 0 l -1.596,0.395 c -0.393,0.097 -0.788,0.143 -1.177,0.143 v 0 c -2.213,0 -4.238,-1.507 -4.792,-3.745" /></g></g></g></g><g
       id="g330"><g
         clip-path="url(#clipPath336)"
         id="g332"><g
           transform="translate(125.3359,158.9656)"
           id="g338"><path
             id="path340"
             style="fill:#fff7f1;fill-opacity:1;fill-rule:nonzero;stroke:none"
             d="m 0,0 c -5.746,-23.236 -29.241,-37.416 -52.478,-31.67 -23.236,5.746 -37.416,29.241 -31.67,52.478 5.746,23.236 29.241,37.416 52.478,31.67 C -8.434,46.731 5.746,23.236 0,0" /></g></g></g><g
       id="g342"><g
         id="g344"><g
           id="g350"><g
             id="g352"><path
               id="path360"
               style="fill:url(#linearGradient358);stroke:none"
               d="m 76.643,209.288 c -1.568,-0.26 -3.139,-0.619 -4.671,-1.065 v 0 c -0.871,-0.255 -1.372,-1.166 -1.117,-2.037 v 0 c 0.169,-0.584 0.634,-1 1.185,-1.136 v 0 c 0.271,-0.068 0.564,-0.066 0.853,0.019 v 0 c 1.406,0.409 2.849,0.738 4.288,0.977 v 0 c 0.895,0.149 1.501,0.994 1.352,1.89 v 0 c -0.133,0.804 -0.831,1.374 -1.62,1.374 v 0 c -0.089,0 -0.179,-0.007 -0.27,-0.022 m 32.286,-10.751 c -0.628,-0.654 -0.607,-1.695 0.048,-2.323 v 0 c 1.056,-1.013 2.062,-2.101 2.991,-3.232 v 0 c 0.233,-0.285 0.543,-0.47 0.875,-0.552 v 0 c 0.486,-0.121 1.021,-0.018 1.438,0.325 v 0 c 0.701,0.575 0.803,1.611 0.227,2.312 v 0 c -1.011,1.232 -2.107,2.415 -3.255,3.518 v 0 c -0.319,0.305 -0.73,0.457 -1.139,0.457 v 0 c -0.432,0 -0.863,-0.169 -1.185,-0.505 M 45.394,183.61 c -0.552,-1.472 -1.024,-2.996 -1.403,-4.53 v 0 l -0.011,-0.044 c -0.218,-0.881 0.32,-1.771 1.201,-1.989 v 0 c 0.881,-0.218 1.772,0.319 1.989,1.2 v 0 l 0.012,0.044 c 0.348,1.411 0.782,2.813 1.289,4.167 v 0 c 0.319,0.849 -0.112,1.796 -0.963,2.115 v 0 c -0.19,0.072 -0.385,0.105 -0.576,0.105 v 0 c -0.665,0 -1.291,-0.408 -1.538,-1.068 m 73.97,-23.074 -0.021,-0.089 c -0.353,-1.426 -0.792,-2.841 -1.305,-4.206 v 0 c -0.32,-0.849 0.11,-1.797 0.959,-2.116 v 0 c 0.062,-0.023 0.124,-0.042 0.186,-0.058 v 0 c 0.798,-0.197 1.634,0.23 1.931,1.017 v 0 c 0.558,1.484 1.036,3.024 1.419,4.575 v 0 l 0.022,0.088 c 0.218,0.881 -0.321,1.771 -1.201,1.99 v 0 c -0.132,0.033 -0.265,0.049 -0.395,0.049 v 0 c -0.738,0 -1.41,-0.502 -1.595,-1.25 m -67.15,-14.515 c -0.702,-0.576 -0.804,-1.611 -0.229,-2.313 v 0 c 1.011,-1.233 2.104,-2.417 3.251,-3.52 v 0 c 0.216,-0.208 0.472,-0.345 0.743,-0.412 v 0 c 0.551,-0.137 1.158,0.017 1.58,0.456 v 0 c 0.63,0.654 0.61,1.693 -0.044,2.323 v 0 c -1.054,1.014 -2.059,2.103 -2.988,3.237 v 0 c -0.325,0.396 -0.797,0.602 -1.272,0.602 v 0 c -0.366,0 -0.735,-0.122 -1.041,-0.373 M 93.589,133.66 c -1.406,-0.408 -2.849,-0.736 -4.289,-0.974 v 0 c -0.897,-0.148 -1.502,-0.993 -1.355,-1.888 v 0 c 0.111,-0.668 0.61,-1.176 1.228,-1.329 v 0 c 0.21,-0.053 0.435,-0.063 0.661,-0.026 v 0 c 1.568,0.259 3.141,0.615 4.671,1.06 v 0 c 0.873,0.254 1.374,1.165 1.121,2.037 v 0 c -0.209,0.718 -0.865,1.185 -1.578,1.185 v 0 c -0.152,0 -0.306,-0.021 -0.459,-0.065" /></g></g></g></g><g
       id="g362"><g
         id="g364"><g
           id="g370"><g
             id="g372"><path
               id="path380"
               style="fill:url(#linearGradient378);stroke:none"
               d="m 81.895,167.427 14.521,-20.62 c 0.32,-0.496 0.867,-0.709 1.24,-0.484 v 0 c 0.374,0.226 0.44,0.81 0.15,1.323 v 0 L 86.273,169.73 c -0.593,0.984 -1.467,1.393 -2.307,1.393 v 0 c -1.708,0 -3.279,-1.695 -2.071,-3.696" /></g></g></g></g></g></svg>