<?xml version="1.0" encoding="UTF-8" standalone="no"?>
<svg
   xmlns:dc="http://purl.org/dc/elements/1.1/"
   xmlns:cc="http://creativecommons.org/ns#"
   xmlns:rdf="http://www.w3.org/1999/02/22-rdf-syntax-ns#"
   xmlns:svg="http://www.w3.org/2000/svg"
   xmlns="http://www.w3.org/2000/svg"
   viewBox="0 0 284.73911 258.78647"
   height="258.78647"
   width="284.73911"
   xml:space="preserve"
   id="svg10"
   version="1.1"><metadata
     id="metadata16"><rdf:RDF><cc:Work
         rdf:about=""><dc:format>image/svg+xml</dc:format><dc:type
           rdf:resource="http://purl.org/dc/dcmitype/StillImage" /><dc:title></dc:title></cc:Work></rdf:RDF></metadata><defs
     id="defs14"><clipPath
       id="clipPath802"
       clipPathUnits="userSpaceOnUse"><path
         id="path800"
         d="M 0,327.047 H 1176.441 V 0 H 0 Z" /></clipPath><clipPath
       id="clipPath818"
       clipPathUnits="userSpaceOnUse"><path
         id="path816"
         d="m 1003.04,193.455 h 144.43 V 25.5453 h -144.43 z" /></clipPath><linearGradient
       id="linearGradient830"
       spreadMethod="pad"
       gradientTransform="matrix(311.50369,67.065948,67.065948,-311.50369,948.35382,74.979736)"
       gradientUnits="userSpaceOnUse"
       y2="0"
       x2="1"
       y1="0"
       x1="0"><stop
         id="stop824"
         offset="0"
         style="stop-opacity:1;stop-color:#e7fff8" /><stop
         id="stop826"
         offset="0.585559"
         style="stop-opacity:1;stop-color:#7be3fc" /><stop
         id="stop828"
         offset="1"
         style="stop-opacity:1;stop-color:#2ed0ff" /></linearGradient><linearGradient
       id="linearGradient862"
       spreadMethod="pad"
       gradientTransform="matrix(248.56335,-254.88687,-254.88687,-248.56335,994.53821,192.181)"
       gradientUnits="userSpaceOnUse"
       y2="0"
       x2="1"
       y1="0"
       x1="0"><stop
         id="stop858"
         offset="0"
         style="stop-opacity:1;stop-color:#e7fff8" /><stop
         id="stop860"
         offset="1"
         style="stop-opacity:1;stop-color:#2ed0ff" /></linearGradient><clipPath
       id="clipPath872"
       clipPathUnits="userSpaceOnUse"><path
         id="path870"
         d="m 1091.664,217.526 c -25.78,-22.24 17.117,-89.19 -71.172,-85.136 v 0 c -41.351,1.9 -72.251,-23.335 -75.226,-43.694 v 0 c -4.868,-33.314 32.631,-58.559 92.793,-57.207 v 0 c 80.182,1.802 99.551,34.684 82.434,61.261 v 0 c -17.117,26.578 -5.254,48.933 22.072,87.839 v 0 c 19.265,27.427 -4.069,44.914 -27.119,44.912 v 0 c -8.749,-0.001 -17.461,-2.521 -23.782,-7.975" /></clipPath><clipPath
       id="clipPath880"
       clipPathUnits="userSpaceOnUse"><path
         id="path878"
         d="M 950.295,61.369 H 1156.05 V 9.26889 H 950.295 Z" /></clipPath><linearGradient
       id="linearGradient890"
       spreadMethod="pad"
       gradientTransform="matrix(7.3861723,-219.84724,-219.84724,-7.3861723,1049.7214,139.49532)"
       gradientUnits="userSpaceOnUse"
       y2="0"
       x2="1"
       y1="0"
       x1="0"><stop
         id="stop886"
         offset="0"
         style="stop-opacity:1;stop-color:#a8f3f8" /><stop
         id="stop888"
         offset="1"
         style="stop-opacity:1;stop-color:#6ab2ff" /></linearGradient><clipPath
       id="clipPath912"
       clipPathUnits="userSpaceOnUse"><path
         id="path910"
         d="m 1100.56,224.079 h 75.88 V 96.0791 h -75.88 z" /></clipPath><linearGradient
       id="linearGradient922"
       spreadMethod="pad"
       gradientTransform="matrix(7.782805,-120.63348,-120.63348,-7.782805,1138.8259,180.39976)"
       gradientUnits="userSpaceOnUse"
       y2="0"
       x2="1"
       y1="0"
       x1="0"><stop
         id="stop918"
         offset="0"
         style="stop-opacity:1;stop-color:#a8f3f8" /><stop
         id="stop920"
         offset="1"
         style="stop-opacity:1;stop-color:#6ab2ff" /></linearGradient><clipPath
       id="clipPath944"
       clipPathUnits="userSpaceOnUse"><path
         id="path942"
         d="m 1050.49,322.541 h 80.22 V 189.479 h -80.22 z" /></clipPath><linearGradient
       id="linearGradient954"
       spreadMethod="pad"
       gradientTransform="matrix(-37.302402,89.964615,89.964615,37.302402,1117.2739,167.4081)"
       gradientUnits="userSpaceOnUse"
       y2="0"
       x2="1"
       y1="0"
       x1="0"><stop
         id="stop950"
         offset="0"
         style="stop-opacity:1;stop-color:#a8f3f8" /><stop
         id="stop952"
         offset="1"
         style="stop-opacity:1;stop-color:#6ab2ff" /></linearGradient><clipPath
       id="clipPath976"
       clipPathUnits="userSpaceOnUse"><path
         id="path974"
         d="m 937.612,244.1 h 74.558 V 96.4118 h -74.558 z" /></clipPath><linearGradient
       id="linearGradient986"
       spreadMethod="pad"
       gradientTransform="matrix(-41.877914,100.99968,100.99968,41.877914,1007.9567,70.793938)"
       gradientUnits="userSpaceOnUse"
       y2="0"
       x2="1"
       y1="0"
       x1="0"><stop
         id="stop982"
         offset="0"
         style="stop-opacity:1;stop-color:#a8f3f8" /><stop
         id="stop984"
         offset="1"
         style="stop-opacity:1;stop-color:#6ab2ff" /></linearGradient><clipPath
       id="clipPath1008"
       clipPathUnits="userSpaceOnUse"><path
         id="path1006"
         d="M 0,327.047 H 1176.441 V 0 H 0 Z" /></clipPath><clipPath
       id="clipPath1016"
       clipPathUnits="userSpaceOnUse"><path
         id="path1014"
         d="m 1026.94,154.876 h 15.28 v -10.624 h -15.28 z" /></clipPath><linearGradient
       id="linearGradient1026"
       spreadMethod="pad"
       gradientTransform="matrix(142.86853,-91.160309,-91.160309,-142.86853,1050.2587,139.55888)"
       gradientUnits="userSpaceOnUse"
       y2="0"
       x2="1"
       y1="0"
       x1="0"><stop
         id="stop1022"
         offset="0"
         style="stop-opacity:1;stop-color:#f05f6f" /><stop
         id="stop1024"
         offset="1"
         style="stop-opacity:1;stop-color:#9f2c69" /></linearGradient><clipPath
       id="clipPath1048"
       clipPathUnits="userSpaceOnUse"><path
         id="path1046"
         d="m 1127.47,188.925 h 9.34 v -7.1 h -9.34 z" /></clipPath><linearGradient
       id="linearGradient1058"
       spreadMethod="pad"
       gradientTransform="matrix(87.879593,-64.888634,-52.039959,-95.373589,1141.7867,178.2532)"
       gradientUnits="userSpaceOnUse"
       y2="0"
       x2="1"
       y1="0"
       x1="0"><stop
         id="stop1054"
         offset="0"
         style="stop-opacity:1;stop-color:#f05f6f" /><stop
         id="stop1056"
         offset="1"
         style="stop-opacity:1;stop-color:#9f2c69" /></linearGradient><linearGradient
       id="linearGradient1090"
       spreadMethod="pad"
       gradientTransform="matrix(88.188087,-144.83444,-144.83444,-88.188087,971.20276,247.01437)"
       gradientUnits="userSpaceOnUse"
       y2="0"
       x2="1"
       y1="0"
       x1="0"><stop
         id="stop1086"
         offset="0"
         style="stop-opacity:1;stop-color:#f09a6f" /><stop
         id="stop1088"
         offset="1"
         style="stop-opacity:1;stop-color:#d62c69" /></linearGradient><linearGradient
       id="linearGradient1112"
       spreadMethod="pad"
       gradientTransform="matrix(-56.936455,-52.090801,-52.090801,56.936455,1066.8728,186.21797)"
       gradientUnits="userSpaceOnUse"
       y2="0"
       x2="1"
       y1="0"
       x1="0"><stop
         id="stop1106"
         offset="0"
         style="stop-opacity:1;stop-color:#ffffff" /><stop
         id="stop1108"
         offset="0.784239"
         style="stop-opacity:1;stop-color:#ffedc2" /><stop
         id="stop1110"
         offset="1"
         style="stop-opacity:1;stop-color:#ffe8b1" /></linearGradient><linearGradient
       id="linearGradient1132"
       spreadMethod="pad"
       gradientTransform="matrix(0.4581497,-10.903963,-10.903963,-0.4581497,1014.6655,165.99384)"
       gradientUnits="userSpaceOnUse"
       y2="0"
       x2="1"
       y1="0"
       x1="0"><stop
         id="stop1128"
         offset="0"
         style="stop-opacity:1;stop-color:#a8f3f8" /><stop
         id="stop1130"
         offset="1"
         style="stop-opacity:1;stop-color:#6ab2ff" /></linearGradient><linearGradient
       id="linearGradient1152"
       spreadMethod="pad"
       gradientTransform="matrix(0,-33.041092,-33.041092,0,1014.5269,177.88014)"
       gradientUnits="userSpaceOnUse"
       y2="0"
       x2="1"
       y1="0"
       x1="0"><stop
         id="stop1148"
         offset="0"
         style="stop-opacity:1;stop-color:#f09a6f" /><stop
         id="stop1150"
         offset="1"
         style="stop-opacity:1;stop-color:#d62c69" /></linearGradient><linearGradient
       id="linearGradient1172"
       spreadMethod="pad"
       gradientTransform="matrix(-63.727158,-53.213245,-53.213245,63.727158,1036.2435,223.0276)"
       gradientUnits="userSpaceOnUse"
       y2="0"
       x2="1"
       y1="0"
       x1="0"><stop
         id="stop1168"
         offset="0"
         style="stop-opacity:1;stop-color:#a8f3f8" /><stop
         id="stop1170"
         offset="1"
         style="stop-opacity:1;stop-color:#6ab2ff" /></linearGradient><linearGradient
       id="linearGradient1192"
       spreadMethod="pad"
       gradientTransform="matrix(1.7496396,-41.641422,-41.641422,-1.7496396,1014.6359,209.75282)"
       gradientUnits="userSpaceOnUse"
       y2="0"
       x2="1"
       y1="0"
       x1="0"><stop
         id="stop1188"
         offset="0"
         style="stop-opacity:1;stop-color:#ff826a" /><stop
         id="stop1190"
         offset="1"
         style="stop-opacity:1;stop-color:#ffcbaa" /></linearGradient><linearGradient
       id="linearGradient1212"
       spreadMethod="pad"
       gradientTransform="matrix(83.321014,-18.675398,-18.675398,-83.321014,971.83521,130.67972)"
       gradientUnits="userSpaceOnUse"
       y2="0"
       x2="1"
       y1="0"
       x1="0"><stop
         id="stop1208"
         offset="0"
         style="stop-opacity:1;stop-color:#f09a6f" /><stop
         id="stop1210"
         offset="1"
         style="stop-opacity:1;stop-color:#d62c69" /></linearGradient><linearGradient
       id="linearGradient1232"
       spreadMethod="pad"
       gradientTransform="matrix(144.51259,-2.5748346,-2.5748346,-144.51259,959.01447,127.7601)"
       gradientUnits="userSpaceOnUse"
       y2="0"
       x2="1"
       y1="0"
       x1="0"><stop
         id="stop1228"
         offset="0"
         style="stop-opacity:1;stop-color:#ff826a" /><stop
         id="stop1230"
         offset="1"
         style="stop-opacity:1;stop-color:#ffcbaa" /></linearGradient><linearGradient
       id="linearGradient1252"
       spreadMethod="pad"
       gradientTransform="matrix(144.51259,-2.5748346,-2.5748346,-144.51259,958.89508,121.05824)"
       gradientUnits="userSpaceOnUse"
       y2="0"
       x2="1"
       y1="0"
       x1="0"><stop
         id="stop1248"
         offset="0"
         style="stop-opacity:1;stop-color:#ff826a" /><stop
         id="stop1250"
         offset="1"
         style="stop-opacity:1;stop-color:#ffcbaa" /></linearGradient><linearGradient
       id="linearGradient1272"
       spreadMethod="pad"
       gradientTransform="matrix(-154.91075,-129.35307,-129.35307,154.91075,1117.3229,118.45223)"
       gradientUnits="userSpaceOnUse"
       y2="0"
       x2="1"
       y1="0"
       x1="0"><stop
         id="stop1268"
         offset="0"
         style="stop-opacity:1;stop-color:#f09a6f" /><stop
         id="stop1270"
         offset="1"
         style="stop-opacity:1;stop-color:#d62c69" /></linearGradient><linearGradient
       id="linearGradient1292"
       spreadMethod="pad"
       gradientTransform="matrix(125.78531,-91.137863,-91.137863,-125.78531,998.10547,123.42941)"
       gradientUnits="userSpaceOnUse"
       y2="0"
       x2="1"
       y1="0"
       x1="0"><stop
         id="stop1288"
         offset="0"
         style="stop-opacity:1;stop-color:#f09a6f" /><stop
         id="stop1290"
         offset="1"
         style="stop-opacity:1;stop-color:#d62c69" /></linearGradient><clipPath
       id="clipPath1302"
       clipPathUnits="userSpaceOnUse"><path
         id="path1300"
         d="M 0,327.047 H 1176.441 V 0 H 0 Z" /></clipPath><clipPath
       id="clipPath1310"
       clipPathUnits="userSpaceOnUse"><path
         id="path1308"
         d="m 1040.11,94.2944 h 3.77 V 47.2191 h -3.77 z" /></clipPath><clipPath
       id="clipPath1324"
       clipPathUnits="userSpaceOnUse"><path
         id="path1322"
         d="m 1067.22,94.2944 h 3.77 V 47.2191 h -3.77 z" /></clipPath><clipPath
       id="clipPath1338"
       clipPathUnits="userSpaceOnUse"><path
         id="path1336"
         d="m 1092.08,94.2944 h 3.77 V 47.2191 h -3.77 z" /></clipPath><clipPath
       id="clipPath1352"
       clipPathUnits="userSpaceOnUse"><path
         id="path1350"
         d="m 1023.54,81.1133 h 94.53 v -3.766 h -94.53 z" /></clipPath><clipPath
       id="clipPath1366"
       clipPathUnits="userSpaceOnUse"><path
         id="path1364"
         d="m 1023.54,63.413 h 94.53 v -3.766 h -94.53 z" /></clipPath><clipPath
       id="clipPath1380"
       clipPathUnits="userSpaceOnUse"><path
         id="path1378"
         d="m 1028.43,108.229 h 86.25 V 98.0604 h -86.25 z" /></clipPath></defs><g
     transform="matrix(1.3333333,0,0,-1.3333333,-1248.2026,300.70266)"
     id="g18"><g
       id="g796"><g
         clip-path="url(#clipPath802)"
         id="g798"><g
           transform="translate(627.8359,197.4979)"
           id="g804"><path
             id="path806"
             style="fill:#ffffff;fill-opacity:1;fill-rule:nonzero;stroke:none"
             d="m 0,0 c -2.929,1.791 -6.015,3.373 -9.171,4.702 l 0.94,2.234 C -4.963,5.559 -1.769,3.921 1.264,2.067 Z m 12.478,-9.754 c -2.444,2.408 -5.088,4.651 -7.86,6.669 l 1.426,1.959 c 2.868,-2.088 5.605,-4.41 8.135,-6.902 z m 9.937,-12.332 c -1.829,2.897 -3.895,5.681 -6.141,8.279 l 1.833,1.583 c 2.324,-2.687 4.462,-5.57 6.356,-8.567 z m 6.861,-14.268 c -1.117,3.236 -2.492,6.418 -4.086,9.458 l 2.146,1.125 c 1.65,-3.146 3.074,-6.442 4.231,-9.793 z m 3.406,-15.463 c -0.347,3.417 -0.955,6.831 -1.807,10.145 l 2.348,0.603 c 0.881,-3.432 1.51,-6.966 1.869,-10.504 z m 2.778,-7.055 h -2.423 c 0,0.505 -0.006,1.009 -0.016,1.511 l 2.422,0.051 c 0.011,-0.519 0.017,-1.041 0.017,-1.562" /></g><g
           transform="translate(531.683,95.0545)"
           id="g808"><path
             id="path810"
             style="fill:#ffffff;fill-opacity:1;fill-rule:nonzero;stroke:none"
             d="M 0,0 C -0.215,0.473 -0.426,0.949 -0.632,1.43 L 1.594,2.387 C 1.793,1.923 1.997,1.46 2.206,1.003 Z M 8.443,-14.049 C 6.28,-11.24 4.309,-8.241 2.584,-5.132 l 2.119,1.175 c 1.666,-3.004 3.57,-5.901 5.659,-8.611 z m 11.441,-11.74 c -2.756,2.242 -5.363,4.709 -7.749,7.334 l 1.793,1.629 c 2.304,-2.535 4.822,-4.918 7.485,-7.082 z M 33.706,-34.6 c -3.192,1.553 -6.294,3.36 -9.219,5.369 l 1.372,1.997 c 2.826,-1.941 5.823,-3.687 8.907,-5.188 z m 15.461,-5.443 c -3.458,0.788 -6.889,1.844 -10.196,3.137 l 0.881,2.257 c 3.197,-1.25 6.512,-2.27 9.853,-3.031 z m 15.83,-1.782 c -3.392,0 -6.816,0.246 -10.176,0.732 l 0.346,2.398 c 3.246,-0.469 6.553,-0.707 9.83,-0.707 l 0.454,0.002 0.012,-2.423 z" /></g><g
           id="g812"><g
             id="g814" /><g
             id="g844"><g
               style="opacity:0.19999701"
               id="g842"
               clip-path="url(#clipPath818)"><g
                 id="g840"><g
                   id="g838"><g
                     id="g836"><g
                       id="g834"><path
                         id="path832"
                         style="fill:url(#linearGradient830);stroke:none"
                         d="m 1147.475,193.338 c 0,0 -37.943,-63.065 -17.727,-90.893 30.613,-42.138 -1.333,-82.036 -98.745,-76.358 -97.412,5.678 88.788,172.401 116.472,167.251" /></g></g></g></g></g></g></g></g></g><g
       id="g846"><g
         id="g848"><g
           id="g854"><g
             id="g856"><path
               id="path864"
               style="fill:url(#linearGradient862);stroke:none"
               d="m 1091.664,217.526 c -25.78,-22.24 17.117,-89.19 -71.172,-85.136 v 0 c -41.351,1.9 -72.251,-23.335 -75.226,-43.694 v 0 c -4.868,-33.314 32.631,-58.559 92.793,-57.207 v 0 c 80.182,1.802 99.551,34.684 82.434,61.261 v 0 c -17.117,26.578 -5.254,48.933 22.072,87.839 v 0 c 19.265,27.427 -4.069,44.914 -27.119,44.912 v 0 c -8.749,-0.001 -17.461,-2.521 -23.782,-7.975" /></g></g></g></g><g
       id="g866"><g
         clip-path="url(#clipPath872)"
         id="g868"><g
           id="g874"><g
             id="g876" /><g
             id="g904"><g
               style="opacity:0.42999303"
               id="g902"
               clip-path="url(#clipPath880)"><g
                 id="g900"><g
                   id="g898"><g
                     id="g896"><g
                       id="g894"><path
                         id="path892"
                         style="fill:url(#linearGradient890);fill-rule:evenodd;stroke:none"
                         d="m 950.6,31.437 c 3.566,18.807 -3.081,32.478 134.703,29.532 C 1239.785,57.665 1097.007,7.685 1070.84,10.742 1044.672,13.8 944.065,-3.016 950.6,31.437" /></g></g></g></g></g></g></g><g
           id="g906"><g
             id="g908" /><g
             id="g936"><g
               style="opacity:0.33999604"
               id="g934"
               clip-path="url(#clipPath912)"><g
                 id="g932"><g
                   id="g930"><g
                     id="g928"><g
                       id="g926"><path
                         id="path924"
                         style="fill:url(#linearGradient922);stroke:none"
                         d="m 1136.79,220.074 c 0,0 -62.086,-48.247 -23.701,-110.579 38.385,-62.332 63.351,112.764 63.351,112.764 0,0 -31.537,5.299 -39.65,-2.185" /></g></g></g></g></g></g></g><g
           id="g938"><g
             id="g940" /><g
             id="g968"><g
               style="opacity:0.64999402"
               id="g966"
               clip-path="url(#clipPath944)"><g
                 id="g964"><g
                   id="g962"><g
                     id="g960"><g
                       id="g958"><path
                         id="path956"
                         style="fill:url(#linearGradient954);stroke:none"
                         d="m 1058.976,295.047 c 0,0 -35.257,-105.569 37.946,-105.569 81.107,0 -9.293,133.063 -9.293,133.063 0,0 -27.376,-16.529 -28.653,-27.494" /></g></g></g></g></g></g></g><g
           id="g970"><g
             id="g972" /><g
             id="g1000"><g
               style="opacity:0.64999402"
               id="g998"
               clip-path="url(#clipPath976)"><g
                 id="g996"><g
                   id="g994"><g
                     id="g992"><g
                       id="g990"><path
                         id="path988"
                         style="fill:url(#linearGradient986);stroke:none"
                         d="m 943.96,216.606 c 0,0 -29.845,-95.889 39.889,-118.16 69.732,-22.27 -11.236,145.654 -11.236,145.654 0,0 -27.377,-16.53 -28.653,-27.494" /></g></g></g></g></g></g></g></g></g><g
       id="g1002"><g
         clip-path="url(#clipPath1008)"
         id="g1004"><g
           id="g1010"><g
             id="g1012" /><g
             id="g1040"><g
               style="opacity:0.08000183"
               id="g1038"
               clip-path="url(#clipPath1016)"><g
                 id="g1036"><g
                   id="g1034"><g
                     id="g1032"><g
                       id="g1030"><path
                         id="path1028"
                         style="fill:url(#linearGradient1026);stroke:none"
                         d="m 1038.727,145.868 -6.149,-1.488 c -2.441,-0.591 -4.924,0.924 -5.515,3.366 -0.59,2.442 0.924,4.924 3.367,5.515 l 6.148,1.488 c 2.443,0.591 4.924,-0.924 5.515,-3.366 0.591,-2.443 -0.924,-4.924 -3.366,-5.515" /></g></g></g></g></g></g></g><g
           id="g1042"><g
             id="g1044" /><g
             id="g1072"><g
               style="opacity:0.05000311"
               id="g1070"
               clip-path="url(#clipPath1048)"><g
                 id="g1068"><g
                   id="g1066"><g
                     id="g1064"><g
                       id="g1062"><path
                         id="path1060"
                         style="fill:url(#linearGradient1058);stroke:none"
                         d="m 1134.368,182.629 -2.951,-0.714 c -1.707,-0.413 -3.441,0.645 -3.854,2.352 -0.414,1.706 0.645,3.441 2.352,3.854 l 2.951,0.715 c 1.707,0.412 3.442,-0.646 3.855,-2.353 0.413,-1.707 -0.646,-3.441 -2.353,-3.854" /></g></g></g></g></g></g></g></g></g><g
       id="g1074"><g
         id="g1076"><g
           id="g1082"><g
             id="g1084"><path
               id="path1092"
               style="fill:url(#linearGradient1090);stroke:none"
               d="m 975.261,134.065 h 80.448 v 80.447 h -80.448 z" /></g></g></g></g><g
       id="g1094"><g
         id="g1096"><g
           id="g1102"><g
             id="g1104"><path
               id="path1114"
               style="fill:url(#linearGradient1112);stroke:none"
               d="m 1015.484,166.099 c -0.161,0.013 -0.315,0.038 -0.478,0.049 v 0 -0.098 c -24.63,-2.386 -33.041,-31.985 -33.041,-31.985 v 0 h 33.041 0.958 33.041 c 0,0 -8.411,29.599 -33.041,31.985 v 0 0.098 c -0.164,-0.011 -0.318,-0.036 -0.48,-0.049" /></g></g></g></g><g
       id="g1116"><g
         id="g1118"><g
           id="g1124"><g
             id="g1126"><path
               id="path1134"
               style="fill:url(#linearGradient1132);stroke:none"
               d="m 1002.571,162.073 c 0,0 3.815,-7.897 12.913,-6.938 v 0 c 9.099,0.957 11.574,7.664 11.574,7.664 v 0 c 0,0 -5.02,3.194 -11.936,3.194 v 0 c -3.786,0.001 -8.14,-0.957 -12.551,-3.92" /></g></g></g></g><g
       id="g1136"><g
         id="g1138"><g
           id="g1144"><g
             id="g1146"><path
               id="path1154"
               style="fill:url(#linearGradient1152);stroke:none"
               d="m 1005.429,162.796 c 0,0 3.831,-5.746 10.535,-4.788 v 0 c 6.704,0.957 7.661,5.267 7.661,5.267 v 0 c 0,0 -3.352,4.31 -2.395,10.056 v 0 l -12.45,0.958 c 0,0 -0.956,-8.141 -3.351,-11.493" /></g></g></g></g><g
       id="g1156"><g
         id="g1158"><g
           id="g1164"><g
             id="g1166"><path
               id="path1174"
               style="fill:url(#linearGradient1172);stroke:none"
               d="m 1004.95,222.653 c -8.141,0 -4.789,-10.056 -4.789,-10.056 v 0 c 0,0 -4.788,-0.479 -5.268,-9.577 v 0 c -0.478,-9.098 5.268,-11.013 5.268,-11.013 v 0 l 31.15,-0.838 c 8.164,14.006 -1.461,21.907 -1.461,21.907 v 0 c 8.142,5.746 2.394,12.451 2.394,12.451 v 0 c -4.31,-5.747 -19.154,-2.874 -27.294,-2.874" /></g></g></g></g><g
       id="g1176"><g
         id="g1178"><g
           id="g1184"><g
             id="g1186"><path
               id="path1194"
               style="fill:url(#linearGradient1192);stroke:none"
               d="m 1002.506,209.174 c 0.017,0.023 0.033,0.047 0.05,0.071 v 0 c -0.035,-0.018 -0.051,-0.042 -0.05,-0.071 m -3.062,-19.801 c 0,-11.901 11.013,-21.549 15.801,-21.31 v 0 c 4.789,0.24 16.042,9.647 16.042,21.549 v 0 c 0,5.95 0.478,12.928 -2.873,15.323 v 0 c -3.956,2.826 -8.542,2.528 -12.93,1.917 v 0 c -5.965,-0.833 -12.945,1.748 -12.978,2.322 v 0 c -2.697,-3.919 -3.062,-14.074 -3.062,-19.801" /></g></g></g></g><g
       id="g1196"><g
         id="g1198"><g
           id="g1204"><g
             id="g1206"><path
               id="path1214"
               style="fill:url(#linearGradient1212);stroke:none"
               d="m 975.261,107.727 h 80.448 v 26.338 h -80.448 z" /></g></g></g></g><g
       id="g1216"><g
         id="g1218"><g
           id="g1224"><g
             id="g1226"><path
               id="path1234"
               style="fill:url(#linearGradient1232);stroke:none"
               d="m 981.965,124.967 h 52.673 v 3.831 h -52.673 z" /></g></g></g></g><g
       id="g1236"><g
         id="g1238"><g
           id="g1244"><g
             id="g1246"><path
               id="path1254"
               style="fill:url(#linearGradient1252);stroke:none"
               d="m 981.965,118.263 h 52.673 v 3.831 h -52.673 z" /></g></g></g></g><g
       id="g1256"><g
         id="g1258"><g
           id="g1264"><g
             id="g1266"><path
               id="path1274"
               style="fill:url(#linearGradient1272);stroke:none"
               d="m 1101.304,120.281 c -0.934,0 -1.692,-0.758 -1.692,-1.692 v 0 -6.594 h -15.063 v 6.594 c 0,0.934 -0.758,1.692 -1.692,1.692 v 0 h -3.019 c -0.935,0 -1.691,-0.758 -1.691,-1.692 v 0 -6.594 h -17.7 v 6.594 c 0,0.934 -0.758,1.692 -1.692,1.692 v 0 h -3.02 c -0.934,0 -1.691,-0.758 -1.691,-1.692 v 0 -6.594 h -15.064 v 6.594 c 0,0.934 -0.757,1.692 -1.692,1.692 v 0 h -3.02 c -0.933,0 -1.691,-0.758 -1.691,-1.692 v 0 -6.594 h -9.038 V 47.219 h 94.527 v 64.776 h -12.051 v 6.594 c 0,0.934 -0.757,1.692 -1.692,1.692 v 0 z" /></g></g></g></g><g
       id="g1276"><g
         id="g1278"><g
           id="g1284"><g
             id="g1286"><path
               id="path1294"
               style="fill:url(#linearGradient1292);stroke:none"
               d="m 1023.539,47.219 h 94.527 v 47.075 h -94.527 z" /></g></g></g></g><g
       id="g1296"><g
         clip-path="url(#clipPath1302)"
         id="g1298"><g
           id="g1304"><g
             id="g1306" /><g
             id="g1316"><g
               style="opacity:0.19999701"
               id="g1314"
               clip-path="url(#clipPath1310)"><path
                 id="path1312"
                 style="fill:#ffffff;fill-opacity:1;fill-rule:nonzero;stroke:none"
                 d="m 1043.875,47.22 h -3.766 v 47.075 h 3.766 z" /></g></g></g><g
           id="g1318"><g
             id="g1320" /><g
             id="g1330"><g
               style="opacity:0.19999701"
               id="g1328"
               clip-path="url(#clipPath1324)"><path
                 id="path1326"
                 style="fill:#ffffff;fill-opacity:1;fill-rule:nonzero;stroke:none"
                 d="m 1070.991,47.22 h -3.767 v 47.075 h 3.767 z" /></g></g></g><g
           id="g1332"><g
             id="g1334" /><g
             id="g1344"><g
               style="opacity:0.19999701"
               id="g1342"
               clip-path="url(#clipPath1338)"><path
                 id="path1340"
                 style="fill:#ffffff;fill-opacity:1;fill-rule:nonzero;stroke:none"
                 d="m 1095.847,47.22 h -3.767 v 47.075 h 3.767 z" /></g></g></g><g
           id="g1346"><g
             id="g1348" /><g
             id="g1358"><g
               style="opacity:0.19999701"
               id="g1356"
               clip-path="url(#clipPath1352)"><path
                 id="path1354"
                 style="fill:#ffffff;fill-opacity:1;fill-rule:nonzero;stroke:none"
                 d="m 1023.539,81.113 h 94.527 v -3.766 h -94.527 z" /></g></g></g><g
           id="g1360"><g
             id="g1362" /><g
             id="g1372"><g
               style="opacity:0.19999701"
               id="g1370"
               clip-path="url(#clipPath1366)"><path
                 id="path1368"
                 style="fill:#ffffff;fill-opacity:1;fill-rule:nonzero;stroke:none"
                 d="m 1023.539,63.413 h 94.527 v -3.766 h -94.527 z" /></g></g></g><g
           id="g1374"><g
             id="g1376" /><g
             id="g1388"><g
               style="opacity:0.60000598"
               id="g1386"
               clip-path="url(#clipPath1380)"><g
                 id="g1384"
                 transform="translate(1109.5928,98.0604)"><path
                   id="path1382"
                   style="fill:#ffffff;fill-opacity:1;fill-rule:nonzero;stroke:none"
                   d="m 0,0 h -76.074 c -2.808,0 -5.084,2.276 -5.084,5.084 0,2.809 2.276,5.084 5.084,5.084 H 0 c 2.808,0 5.084,-2.275 5.084,-5.084 C 5.084,2.276 2.808,0 0,0" /></g></g></g></g><g
           transform="translate(1072.6504,178.8299)"
           id="g1390"><path
             id="path1392"
             style="fill:#ffffff;fill-opacity:1;fill-rule:nonzero;stroke:none"
             d="m 0,0 c -2.93,1.791 -6.016,3.373 -9.172,4.703 l 0.941,2.233 C -4.964,5.56 -1.77,3.921 1.263,2.067 Z m 12.478,-9.754 c -2.445,2.408 -5.089,4.652 -7.861,6.669 l 1.426,1.959 c 2.869,-2.087 5.605,-4.41 8.135,-6.902 z m 9.938,-12.332 c -1.83,2.897 -3.896,5.682 -6.141,8.279 l 1.832,1.584 c 2.325,-2.688 4.462,-5.571 6.356,-8.567 z m 6.861,-14.268 c -1.118,3.237 -2.492,6.418 -4.086,9.459 l 2.145,1.124 c 1.651,-3.146 3.074,-6.441 4.231,-9.793 z m 3.404,-15.463 c -0.347,3.418 -0.955,6.831 -1.806,10.145 l 2.347,0.603 c 0.882,-3.432 1.51,-6.966 1.869,-10.503 z m 2.779,-7.055 h -2.423 c 0,0.506 -0.005,1.01 -0.016,1.512 l 2.422,0.052 c 0.012,-0.52 0.017,-1.041 0.017,-1.564" /></g><g
           transform="translate(936.54,131.2156)"
           id="g1394"><path
             id="path1396"
             style="fill:#ffffff;fill-opacity:1;fill-rule:nonzero;stroke:none"
             d="M 0,0 C -0.136,0.629 -0.265,1.261 -0.388,1.896 L 2.557,2.468 C 2.677,1.854 2.801,1.241 2.933,0.633 Z m 6.516,-19.221 c -1.878,3.967 -3.474,8.116 -4.742,12.331 l 2.873,0.864 c 1.225,-4.073 2.766,-8.08 4.58,-11.911 z m 10.75,-17.217 c -2.745,3.437 -5.249,7.109 -7.445,10.913 l 2.598,1.499 c 2.12,-3.674 4.539,-7.221 7.19,-10.54 z m 14.4,-14.301 c -3.453,2.719 -6.729,5.722 -9.739,8.923 l 2.185,2.054 c 2.909,-3.092 6.075,-5.993 9.41,-8.621 z m 17.273,-10.658 c -3.976,1.864 -7.849,4.044 -11.51,6.48 l 1.661,2.498 c 3.538,-2.354 7.28,-4.46 11.123,-6.261 z m 18.683,-6.326 c -4.103,0.894 -8.182,2.093 -12.119,3.566 l 1.051,2.809 c 3.803,-1.422 7.742,-2.581 11.707,-3.444 l 0.549,-0.117 -0.623,-2.935 z" /></g></g></g></g></svg>