<svg xmlns="http://www.w3.org/2000/svg" height="255.447" width="332.088"><defs><linearGradient id="a" spreadMethod="pad" gradientTransform="matrix(167 -175 -175 -167 169.94 81.703)" gradientUnits="userSpaceOnUse" y2="0" x2="1" y1="0" x1="0"><stop offset="0" stop-color="#f05f6f"/><stop offset="1" stop-color="#9f2c69"/></linearGradient></defs><path d="M219.397 188.702h-.946L90.066 55.589c-1.955-1.954-4.791-1.954-6.745 0l-52.69 56.472-.945 1.009c-3.845 3.782-9.581 3.782-13.426 0L2.899 99.645C.945 97.691 0 94.855 0 92.901c0-1.89.945-4.79 2.899-6.681l1.891-2.899L79.54 2.899C81.43.945 83.321 0 86.221 0c2.899 0 4.79.945 6.681 2.899l153.28 159.016c3.844 3.845 3.844 9.581 0 13.426l-13.361 13.361c-1.922 1.922-4.317 2.883-6.712 2.883-2.395 0-4.79-.961-6.712-2.883" fill="url(#a)" transform="matrix(1.33333 0 0 -1.33333 0 255.447)"/></svg>