<svg xmlns="http://www.w3.org/2000/svg" height="1676.088" width="1795.262"><defs><linearGradient id="d" spreadMethod="pad" gradientTransform="scale(-293.32552 293.32552) rotate(85.167 -2.456 -.477)" gradientUnits="userSpaceOnUse" y2="0" x2="1" y1="0" x1="0"><stop offset="0" stop-color="#fff"/><stop offset="1" stop-opacity=".5" stop-color="#fff"/></linearGradient><linearGradient id="aI" spreadMethod="pad" gradientTransform="scale(-294.84948 294.84948) rotate(-16.113 7.338 9.413)" gradientUnits="userSpaceOnUse" y2="0" x2="1" y1="0" x1="0"><stop offset="0" stop-color="#072ed7"/><stop offset="1" stop-color="#006fbf"/></linearGradient><linearGradient id="r" spreadMethod="pad" gradientTransform="scale(2195.9592 -2195.9592) rotate(45.72 .69 -.067)" gradientUnits="userSpaceOnUse" y2="0" x2="1" y1="0" x1="0"><stop offset="0" stop-color="#e7fff8"/><stop offset="1" stop-color="#2ed0ff"/></linearGradient><linearGradient id="u" spreadMethod="pad" gradientTransform="scale(1356.7957 -1356.7957) rotate(88.076 .56 -.032)" gradientUnits="userSpaceOnUse" y2="0" x2="1" y1="0" x1="0"><stop offset="0" stop-color="#a8f3f8"/><stop offset="1" stop-color="#6ab2ff"/></linearGradient><linearGradient id="w" spreadMethod="pad" gradientTransform="scale(745.62133 -745.62133) rotate(86.309 1.587 .18)" gradientUnits="userSpaceOnUse" y2="0" x2="1" y1="0" x1="0"><stop offset="0" stop-color="#a8f3f8"/><stop offset="1" stop-color="#6ab2ff"/></linearGradient><linearGradient id="y" spreadMethod="pad" gradientTransform="matrix(-238.00002 574 574 238.00002 1175.125 967.642)" gradientUnits="userSpaceOnUse" y2="0" x2="1" y1="0" x1="0"><stop offset="0" stop-color="#a8f3f8"/><stop offset="1" stop-color="#6ab2ff"/></linearGradient><linearGradient id="A" spreadMethod="pad" gradientTransform="scale(-674.40027 674.40027) rotate(67.479 -.743 -.2)" gradientUnits="userSpaceOnUse" y2="0" x2="1" y1="0" x1="0"><stop offset="0" stop-color="#a8f3f8"/><stop offset="1" stop-color="#6ab2ff"/></linearGradient><linearGradient id="B" spreadMethod="pad" gradientTransform="matrix(697 0 0 -697 312.394 215.31)" gradientUnits="userSpaceOnUse" y2="0" x2="1" y1="0" x1="0"><stop offset="0" stop-color="#f05f6f"/><stop offset="1" stop-color="#9f2c69"/></linearGradient><linearGradient id="E" spreadMethod="pad" gradientTransform="matrix(698.14825 0 0 -698.14825 305.504 319.197)" gradientUnits="userSpaceOnUse" y2="0" x2="1" y1="0" x1="0"><stop offset="0" stop-color="#fff"/><stop offset="1" stop-color="#fff"/></linearGradient><linearGradient id="k" spreadMethod="pad" gradientTransform="scale(581.90809 -581.90809) rotate(-89.689 .636 -.482)" gradientUnits="userSpaceOnUse" y2="0" x2="1" y1="0" x1="0"><stop offset="0" stop-opacity="0" stop-color="#fff"/><stop offset="1" stop-color="#fff"/></linearGradient><linearGradient id="J" spreadMethod="pad" gradientTransform="scale(581.90809 -581.90809) rotate(-89.689 .636 -.482)" gradientUnits="userSpaceOnUse" y2="0" x2="1" y1="0" x1="0"><stop offset="0" stop-color="#f05f6f"/><stop offset="1" stop-color="#6f2c69"/></linearGradient><linearGradient id="K" spreadMethod="pad" gradientTransform="scale(381.22703 -381.22703) rotate(-69.385 .3 -1.889)" gradientUnits="userSpaceOnUse" y2="0" x2="1" y1="0" x1="0"><stop offset="0" stop-color="#f09a6f"/><stop offset="1" stop-color="#d62c69"/></linearGradient><linearGradient id="j" spreadMethod="pad" gradientTransform="scale(106.61098 -106.61098) rotate(19.946 19.044 16.862)" gradientUnits="userSpaceOnUse" y2="0" x2="1" y1="0" x1="0"><stop offset="0" stop-opacity="0" stop-color="#fff"/><stop offset=".998" stop-color="#fff"/><stop offset="1" stop-color="#fff"/></linearGradient><linearGradient id="cd" spreadMethod="pad" gradientTransform="matrix(298.28213 -220.24591 -176.63477 -323.71838 955.044 1123.944)" gradientUnits="userSpaceOnUse" y2="0" x2="1" y1="0" x1="0"><stop offset="0" stop-color="#f05f6f"/><stop offset="1" stop-color="#9f2c69"/></linearGradient><linearGradient id="P" spreadMethod="pad" gradientTransform="scale(106.61098 -106.61098) rotate(19.946 19.044 16.862)" gradientUnits="userSpaceOnUse" y2="0" x2="1" y1="0" x1="0"><stop offset="0" stop-color="#f05f6f"/><stop offset=".998" stop-color="#512c30"/><stop offset="1" stop-color="#512c30"/></linearGradient><linearGradient id="R" spreadMethod="pad" gradientTransform="matrix(66.00789 0 0 -66.00789 739.798 579.161)" gradientUnits="userSpaceOnUse" y2="0" x2="1" y1="0" x1="0"><stop offset="0" stop-color="#fff"/><stop offset="1" stop-color="#fff"/></linearGradient><linearGradient id="T" spreadMethod="pad" gradientTransform="scale(305.99059 -305.99059) rotate(32.571 4.498 3.122)" gradientUnits="userSpaceOnUse" y2="0" x2="1" y1="0" x1="0"><stop offset="0" stop-color="#f05f6f"/><stop offset="1" stop-color="#482c5d"/></linearGradient><linearGradient id="i" spreadMethod="pad" gradientTransform="scale(150.16296 -150.16296) rotate(40.635 7.747 5.356)" gradientUnits="userSpaceOnUse" y2="0" x2="1" y1="0" x1="0"><stop offset="0" stop-opacity="0" stop-color="#fff"/><stop offset=".998" stop-color="#fff"/><stop offset="1" stop-color="#fff"/></linearGradient><linearGradient id="X" spreadMethod="pad" gradientTransform="scale(150.16296 -150.16296) rotate(40.635 7.747 5.356)" gradientUnits="userSpaceOnUse" y2="0" x2="1" y1="0" x1="0"><stop offset="0" stop-color="#f05f6f"/><stop offset=".998" stop-color="#512c30"/><stop offset="1" stop-color="#512c30"/></linearGradient><linearGradient id="Z" spreadMethod="pad" gradientTransform="matrix(7 86.33334 86.33334 -7 808.98 317.051)" gradientUnits="userSpaceOnUse" y2="0" x2="1" y1="0" x1="0"><stop offset="0" stop-color="#fff"/><stop offset="1" stop-color="#fff"/></linearGradient><linearGradient id="ab" spreadMethod="pad" gradientTransform="scale(171.28343 -171.28343) rotate(32.571 6.856 5.467)" gradientUnits="userSpaceOnUse" y2="0" x2="1" y1="0" x1="0"><stop offset="0" stop-color="#f05f6f"/><stop offset="1" stop-color="#482c5d"/></linearGradient><linearGradient id="ac" spreadMethod="pad" gradientTransform="scale(229.59638 -229.59638) rotate(-1.412 -53.485 -88.467)" gradientUnits="userSpaceOnUse" y2="0" x2="1" y1="0" x1="0"><stop offset="0" stop-color="#ff826a"/><stop offset="1" stop-color="#ffcbaa"/></linearGradient><linearGradient id="ad" spreadMethod="pad" gradientTransform="scale(-368.09688 368.09688) rotate(-52.224 .353 2.601)" gradientUnits="userSpaceOnUse" y2="0" x2="1" y1="0" x1="0"><stop offset="0" stop-color="#00c9ed"/><stop offset="1" stop-color="#0085bf"/></linearGradient><linearGradient id="h" spreadMethod="pad" gradientTransform="scale(-276.62572 276.62572) rotate(78.37 -1.931 -1.075)" gradientUnits="userSpaceOnUse" y2="0" x2="1" y1="0" x1="0"><stop offset="0" stop-color="#fff"/><stop offset="1" stop-opacity="0" stop-color="#fff"/></linearGradient><linearGradient id="cb" spreadMethod="pad" gradientTransform="matrix(616.70123 -455.36057 -365.19409 -669.29089 1113.147 1283.756)" gradientUnits="userSpaceOnUse" y2="0" x2="1" y1="0" x1="0"><stop offset="0" stop-color="#f05f6f"/><stop offset="1" stop-color="#9f2c69"/></linearGradient><linearGradient id="ai" spreadMethod="pad" gradientTransform="scale(-276.62572 276.62572) rotate(78.37 -1.931 -1.075)" gradientUnits="userSpaceOnUse" y2="0" x2="1" y1="0" x1="0"><stop offset="0" stop-color="#0077ed"/><stop offset="1" stop-color="#004def"/></linearGradient><linearGradient id="ak" spreadMethod="pad" gradientTransform="scale(226.04087 -226.04087) rotate(-88.358 .452 -2.42)" gradientUnits="userSpaceOnUse" y2="0" x2="1" y1="0" x1="0"><stop offset="0" stop-color="#00e2d7"/><stop offset="1" stop-color="#fff"/></linearGradient><linearGradient id="b" spreadMethod="pad" gradientTransform="scale(-334.77385 334.77385) rotate(-52.224 .303 3.015)" gradientUnits="userSpaceOnUse" y2="0" x2="1" y1="0" x1="0"><stop offset="0" stop-color="#fff"/><stop offset="1" stop-opacity="0" stop-color="#fff"/></linearGradient><linearGradient id="ao" spreadMethod="pad" gradientTransform="scale(-334.77385 334.77385) rotate(-52.224 .303 3.015)" gradientUnits="userSpaceOnUse" y2="0" x2="1" y1="0" x1="0"><stop offset="0" stop-color="#0077ed"/><stop offset="1" stop-color="#004def"/></linearGradient><linearGradient id="ap" spreadMethod="pad" gradientTransform="matrix(135.93005 0 0 -135.93005 285.036 595.04)" gradientUnits="userSpaceOnUse" y2="0" x2="1" y1="0" x1="0"><stop offset="0" stop-color="#ff826a"/><stop offset=".633" stop-color="#ffb092"/><stop offset="1" stop-color="#ffcbaa"/></linearGradient><linearGradient id="f" spreadMethod="pad" gradientTransform="scale(-313.45493 313.45493) rotate(-9.854 10.147 9.92)" gradientUnits="userSpaceOnUse" y2="0" x2="1" y1="0" x1="0"><stop offset="0" stop-color="#fff"/><stop offset="1" stop-opacity="0" stop-color="#fff"/></linearGradient><linearGradient id="bZ" spreadMethod="pad" gradientTransform="matrix(616.70123 -455.36057 -365.19409 -669.29089 1044.13 74.145)" gradientUnits="userSpaceOnUse" y2="0" x2="1" y1="0" x1="0"><stop offset="0" stop-color="#f05f6f"/><stop offset="1" stop-color="#9f2c69"/></linearGradient><linearGradient id="au" spreadMethod="pad" gradientTransform="scale(-313.45493 313.45493) rotate(-9.854 10.147 9.92)" gradientUnits="userSpaceOnUse" y2="0" x2="1" y1="0" x1="0"><stop offset="0" stop-color="#945700"/><stop offset="1" stop-color="#ffe5d4"/></linearGradient><linearGradient id="av" spreadMethod="pad" gradientTransform="matrix(145.57173 0 0 -145.57173 576.042 865.35)" gradientUnits="userSpaceOnUse" y2="0" x2="1" y1="0" x1="0"><stop offset="0" stop-color="#ff826a"/><stop offset=".633" stop-color="#ffb092"/><stop offset="1" stop-color="#ffcbaa"/></linearGradient><linearGradient id="e" spreadMethod="pad" gradientTransform="scale(-135.88725 135.88725) rotate(.21 -1722.102 -1488.9)" gradientUnits="userSpaceOnUse" y2="0" x2="1" y1="0" x1="0"><stop offset="0" stop-color="#fff"/><stop offset=".273" stop-color="#fff"/><stop offset="1" stop-opacity="0" stop-color="#fff"/></linearGradient><linearGradient id="aA" spreadMethod="pad" gradientTransform="scale(-135.88725 135.88725) rotate(.21 -1722.102 -1488.9)" gradientUnits="userSpaceOnUse" y2="0" x2="1" y1="0" x1="0"><stop offset="0" stop-color="#945700"/><stop offset=".273" stop-color="#945700"/><stop offset="1" stop-color="#ffe5d4"/></linearGradient><linearGradient id="aB" spreadMethod="pad" gradientTransform="matrix(441.27313 0 0 -441.27313 431.876 746.364)" gradientUnits="userSpaceOnUse" y2="0" x2="1" y1="0" x1="0"><stop offset="0" stop-color="#079fd7"/><stop offset=".272" stop-color="#079fd7"/><stop offset="1" stop-color="#0074bf"/></linearGradient><linearGradient id="aE" spreadMethod="pad" gradientTransform="matrix(446.93048 0 0 -446.93048 286.48 756.986)" gradientUnits="userSpaceOnUse" y2="0" x2="1" y1="0" x1="0"><stop offset="0" stop-color="#00e2d7"/><stop offset="1" stop-color="#fff"/></linearGradient><linearGradient id="o" spreadMethod="pad" gradientTransform="scale(1965.39929 -1965.39929) rotate(-12.15 -.952 -.261)" gradientUnits="userSpaceOnUse" y2="0" x2="1" y1="0" x1="0"><stop offset="0" stop-color="#e7fff8"/><stop offset=".586" stop-color="#7be3fc"/><stop offset="1" stop-color="#2ed0ff"/></linearGradient><linearGradient id="p" spreadMethod="pad" gradientTransform="scale(152.0296 -152.0296) rotate(45.266 10.178 2.069)" gradientUnits="userSpaceOnUse" y2="0" x2="1" y1="0" x1="0"><stop offset="0" stop-color="#e7fff8"/><stop offset="1" stop-color="#2ed0ff"/></linearGradient><linearGradient id="q" spreadMethod="pad" gradientTransform="scale(171.14322 -171.14322) rotate(45.947 9.095 1.312)" gradientUnits="userSpaceOnUse" y2="0" x2="1" y1="0" x1="0"><stop offset="0" stop-color="#e7fff8"/><stop offset="1" stop-color="#2ed0ff"/></linearGradient><linearGradient id="bX" spreadMethod="pad" gradientTransform="matrix(1686.014 -1244.9209 -998.41272 -1829.7902 678.965 890.208)" gradientUnits="userSpaceOnUse" y2="0" x2="1" y1="0" x1="0"><stop offset="0" stop-color="#f05f6f"/><stop offset="1" stop-color="#9f2c69"/></linearGradient><linearGradient id="aM" spreadMethod="pad" gradientTransform="scale(-293.32552 293.32552) rotate(85.167 -2.456 -.477)" gradientUnits="userSpaceOnUse" y2="0" x2="1" y1="0" x1="0"><stop offset="0" stop-color="#072ed7"/><stop offset="1" stop-color="#006fbf"/></linearGradient><linearGradient id="aP" spreadMethod="pad" gradientTransform="scale(132.78053 -132.78053) rotate(60.861 4.793 1.834)" gradientUnits="userSpaceOnUse" y2="0" x2="1" y1="0" x1="0"><stop offset="0" stop-color="#00e2d7"/><stop offset="1" stop-color="#fff"/></linearGradient><linearGradient id="aQ" spreadMethod="pad" gradientTransform="scale(453.30885 -453.30885) rotate(-48.18 -.992 -2.645)" gradientUnits="userSpaceOnUse" y2="0" x2="1" y1="0" x1="0"><stop offset="0" stop-color="#079fd7"/><stop offset="1" stop-color="#0074bf"/></linearGradient><linearGradient id="c" spreadMethod="pad" gradientTransform="matrix(-132.76103 4.2435 4.2435 132.76103 900.69 906.11)" gradientUnits="userSpaceOnUse" y2="0" x2="1" y1="0" x1="0"><stop offset="0" stop-color="#fff"/><stop offset="1" stop-opacity=".5" stop-color="#fff"/></linearGradient><linearGradient id="aV" spreadMethod="pad" gradientTransform="matrix(-132.76103 4.2435 4.2435 132.76103 900.69 906.11)" gradientUnits="userSpaceOnUse" y2="0" x2="1" y1="0" x1="0"><stop offset="0" stop-color="#072ed7"/><stop offset="1" stop-color="#0055bf"/></linearGradient><linearGradient id="aX" spreadMethod="pad" gradientTransform="scale(-333.63411 333.63411) rotate(-41.065 2.07 4.85)" gradientUnits="userSpaceOnUse" y2="0" x2="1" y1="0" x1="0"><stop offset="0" stop-color="#00e2d7"/><stop offset="1" stop-color="#fff"/></linearGradient><linearGradient id="a" spreadMethod="pad" gradientTransform="scale(331.7554 -331.7554) rotate(-86.019 .15 -2.478)" gradientUnits="userSpaceOnUse" y2="0" x2="1" y1="0" x1="0"><stop offset="0" stop-color="#fff"/><stop offset="1" stop-opacity=".5" stop-color="#fff"/></linearGradient><linearGradient id="bV" spreadMethod="pad" gradientTransform="matrix(1686.014 -1244.9209 -998.41272 -1829.7902 1495.826 1049.562)" gradientUnits="userSpaceOnUse" y2="0" x2="1" y1="0" x1="0"><stop offset="0" stop-color="#f05f6f"/><stop offset="1" stop-color="#9f2c69"/></linearGradient><linearGradient id="bb" spreadMethod="pad" gradientTransform="scale(331.7554 -331.7554) rotate(-86.019 .15 -2.478)" gradientUnits="userSpaceOnUse" y2="0" x2="1" y1="0" x1="0"><stop offset="0" stop-color="#072ed7"/><stop offset="1" stop-color="#006fbf"/></linearGradient><linearGradient id="bd" spreadMethod="pad" gradientTransform="scale(-307.05725 307.05725) rotate(-41.065 3.034 5.37)" gradientUnits="userSpaceOnUse" y2="0" x2="1" y1="0" x1="0"><stop offset="0" stop-color="#00e2d7"/><stop offset="1" stop-color="#fff"/></linearGradient><linearGradient id="be" spreadMethod="pad" gradientTransform="scale(101.07982 -101.07982) rotate(41.272 9.603 5.68)" gradientUnits="userSpaceOnUse" y2="0" x2="1" y1="0" x1="0"><stop offset="0" stop-color="#ff826a"/><stop offset="1" stop-color="#ffcbaa"/></linearGradient><linearGradient id="bf" spreadMethod="pad" gradientTransform="scale(88.57645 -88.57645) rotate(-13.656 -16.605 -33.255)" gradientUnits="userSpaceOnUse" y2="0" x2="1" y1="0" x1="0"><stop offset="0" stop-color="#f0806f"/><stop offset="1" stop-color="#d32c69"/></linearGradient><linearGradient id="bg" spreadMethod="pad" gradientTransform="scale(49.20259 -49.20259) rotate(-9.752 -46.918 -80.777)" gradientUnits="userSpaceOnUse" y2="0" x2="1" y1="0" x1="0"><stop offset="0" stop-color="#f0806f"/><stop offset="1" stop-color="#d32c69"/></linearGradient><linearGradient id="bh" spreadMethod="pad" gradientTransform="scale(295.20167 -295.20167) rotate(-42.337 .183 -2.7)" gradientUnits="userSpaceOnUse" y2="0" x2="1" y1="0" x1="0"><stop offset="0" stop-color="#ff826a"/><stop offset="1" stop-color="#ffcbaa"/></linearGradient><linearGradient id="g" spreadMethod="pad" gradientTransform="scale(-215.3852 215.3852) rotate(67.992 -2.542 -2.299)" gradientUnits="userSpaceOnUse" y2="0" x2="1" y1="0" x1="0"><stop offset="0" stop-color="#fff"/><stop offset="1" stop-opacity="0" stop-color="#fff"/></linearGradient><linearGradient id="bk" spreadMethod="pad" gradientTransform="scale(-215.3852 215.3852) rotate(67.992 -2.542 -2.299)" gradientUnits="userSpaceOnUse" y2="0" x2="1" y1="0" x1="0"><stop offset="0" stop-color="#945700"/><stop offset="1" stop-color="#ffe5d4"/></linearGradient><linearGradient id="bl" spreadMethod="pad" gradientTransform="scale(-273.91025 273.91025) rotate(-63.576 -.333 4.427)" gradientUnits="userSpaceOnUse" y2="0" x2="1" y1="0" x1="0"><stop offset="0" stop-color="#f05f6f"/><stop offset="1" stop-color="#9f2c69"/></linearGradient><linearGradient id="bm" spreadMethod="pad" gradientTransform="scale(-273.91025 273.91025) rotate(-63.576 -.121 4.295)" gradientUnits="userSpaceOnUse" y2="0" x2="1" y1="0" x1="0"><stop offset="0" stop-color="#f05f6f"/><stop offset="1" stop-color="#9f2c69"/></linearGradient><linearGradient id="bn" spreadMethod="pad" gradientTransform="scale(-273.91025 273.91025) rotate(-63.576 -.14 4.307)" gradientUnits="userSpaceOnUse" y2="0" x2="1" y1="0" x1="0"><stop offset="0" stop-color="#f05f6f"/><stop offset="1" stop-color="#9f2c69"/></linearGradient><linearGradient id="bo" spreadMethod="pad" gradientTransform="scale(-273.91025 273.91025) rotate(-63.576 -.208 4.35)" gradientUnits="userSpaceOnUse" y2="0" x2="1" y1="0" x1="0"><stop offset="0" stop-color="#f05f6f"/><stop offset="1" stop-color="#9f2c69"/></linearGradient><linearGradient id="bp" spreadMethod="pad" gradientTransform="scale(-273.91025 273.91025) rotate(-63.576 -.419 4.48)" gradientUnits="userSpaceOnUse" y2="0" x2="1" y1="0" x1="0"><stop offset="0" stop-color="#f05f6f"/><stop offset="1" stop-color="#9f2c69"/></linearGradient><linearGradient id="bq" spreadMethod="pad" gradientTransform="scale(-159.55377 159.55377) rotate(-47.62 -.625 8.865)" gradientUnits="userSpaceOnUse" y2="0" x2="1" y1="0" x1="0"><stop offset="0" stop-color="#f05f6f"/><stop offset="1" stop-color="#9f2c69"/></linearGradient><linearGradient id="bt" spreadMethod="pad" gradientTransform="scale(1225.97175 -1225.97175) rotate(32.541 1.145 .387)" gradientUnits="userSpaceOnUse" y2="0" x2="1" y1="0" x1="0"><stop offset="0" stop-color="#f05f6f"/><stop offset="1" stop-color="#9f2c69"/></linearGradient><linearGradient id="bv" spreadMethod="pad" gradientTransform="scale(1225.97175 -1225.97175) rotate(32.541 1.398 .67)" gradientUnits="userSpaceOnUse" y2="0" x2="1" y1="0" x1="0"><stop offset="0" stop-color="#f05f6f"/><stop offset="1" stop-color="#9f2c69"/></linearGradient><linearGradient id="bx" spreadMethod="pad" gradientTransform="scale(1225.97175 -1225.97175) rotate(32.541 .77 1.642)" gradientUnits="userSpaceOnUse" y2="0" x2="1" y1="0" x1="0"><stop offset="0" stop-color="#f05f6f"/><stop offset="1" stop-color="#9f2c69"/></linearGradient><linearGradient id="bz" spreadMethod="pad" gradientTransform="scale(1225.97175 -1225.97175) rotate(32.541 1.122 1.77)" gradientUnits="userSpaceOnUse" y2="0" x2="1" y1="0" x1="0"><stop offset="0" stop-color="#f05f6f"/><stop offset="1" stop-color="#9f2c69"/></linearGradient><linearGradient id="bB" spreadMethod="pad" gradientTransform="scale(1225.97175 -1225.97175) rotate(32.541 1.095 1.25)" gradientUnits="userSpaceOnUse" y2="0" x2="1" y1="0" x1="0"><stop offset="0" stop-color="#f05f6f"/><stop offset="1" stop-color="#9f2c69"/></linearGradient><linearGradient id="bD" spreadMethod="pad" gradientTransform="scale(1225.97175 -1225.97175) rotate(32.541 .666 .285)" gradientUnits="userSpaceOnUse" y2="0" x2="1" y1="0" x1="0"><stop offset="0" stop-color="#f05f6f"/><stop offset="1" stop-color="#9f2c69"/></linearGradient><linearGradient id="bF" spreadMethod="pad" gradientTransform="scale(735.0424 -735.0424) rotate(32.541 1.998 1.174)" gradientUnits="userSpaceOnUse" y2="0" x2="1" y1="0" x1="0"><stop offset="0" stop-color="#f05f6f"/><stop offset="1" stop-color="#9f2c69"/></linearGradient><linearGradient id="bH" spreadMethod="pad" gradientTransform="scale(735.0424 -735.0424) rotate(32.541 1.541 .971)" gradientUnits="userSpaceOnUse" y2="0" x2="1" y1="0" x1="0"><stop offset="0" stop-color="#f05f6f"/><stop offset="1" stop-color="#9f2c69"/></linearGradient><linearGradient id="bJ" spreadMethod="pad" gradientTransform="scale(735.0424 -735.0424) rotate(32.541 1.62 .377)" gradientUnits="userSpaceOnUse" y2="0" x2="1" y1="0" x1="0"><stop offset="0" stop-color="#f05f6f"/><stop offset="1" stop-color="#9f2c69"/></linearGradient><linearGradient id="bL" spreadMethod="pad" gradientTransform="scale(735.0424 -735.0424) rotate(32.541 1.953 1.519)" gradientUnits="userSpaceOnUse" y2="0" x2="1" y1="0" x1="0"><stop offset="0" stop-color="#f05f6f"/><stop offset="1" stop-color="#9f2c69"/></linearGradient><linearGradient id="bN" spreadMethod="pad" gradientTransform="scale(735.0424 -735.0424) rotate(32.541 1.117 .867)" gradientUnits="userSpaceOnUse" y2="0" x2="1" y1="0" x1="0"><stop offset="0" stop-color="#f05f6f"/><stop offset="1" stop-color="#9f2c69"/></linearGradient><linearGradient id="bP" spreadMethod="pad" gradientTransform="scale(665.75461 -665.75461) rotate(32.541 2.464 2.02)" gradientUnits="userSpaceOnUse" y2="0" x2="1" y1="0" x1="0"><stop offset="0" stop-color="#f05f6f"/><stop offset="1" stop-color="#9f2c69"/></linearGradient><linearGradient id="bR" spreadMethod="pad" gradientTransform="matrix(616.70123 -455.36057 -365.19409 -669.29089 1267.558 1036.255)" gradientUnits="userSpaceOnUse" y2="0" x2="1" y1="0" x1="0"><stop offset="0" stop-color="#f05f6f"/><stop offset="1" stop-color="#9f2c69"/></linearGradient><linearGradient id="bT" spreadMethod="pad" gradientTransform="matrix(616.70123 -455.36057 -365.19409 -669.29089 1298.187 788.805)" gradientUnits="userSpaceOnUse" y2="0" x2="1" y1="0" x1="0"><stop offset="0" stop-color="#f05f6f"/><stop offset="1" stop-color="#9f2c69"/></linearGradient><linearGradient id="cf" spreadMethod="pad" gradientTransform="matrix(190.95038 -119.12531 -123.08208 -188.64259 1021.394 890.886)" gradientUnits="userSpaceOnUse" y2="0" x2="1" y1="0" x1="0"><stop offset="0" stop-color="#f05f6f"/><stop offset="1" stop-color="#9f2c69"/></linearGradient><linearGradient id="l" spreadMethod="pad" gradientTransform="scale(-294.84948 294.84948) rotate(-16.113 7.338 9.413)" gradientUnits="userSpaceOnUse" y2="0" x2="1" y1="0" x1="0"><stop offset="0" stop-color="#fff"/><stop offset="1" stop-opacity=".5" stop-color="#fff"/></linearGradient><clipPath id="G" clipPathUnits="userSpaceOnUse"><path d="M459.372 298.337h382.374V167.434H459.372z"/></clipPath><clipPath id="n" clipPathUnits="userSpaceOnUse"><path d="M403.574 1136.07h890.866V100.394H403.574z"/></clipPath><clipPath id="Y" clipPathUnits="userSpaceOnUse"><path d="M765.428 405.789h98.023V342.75h-98.023z"/></clipPath><clipPath id="aJ" clipPathUnits="userSpaceOnUse"><path d="M714.577 881.551h139.176V692.558H714.577z"/></clipPath><clipPath id="aL" clipPathUnits="userSpaceOnUse"><path d="M795.563 868.883c0-2.424-106.681-87.285-75.162-157.598 31.52-70.313 133.352 80.012 133.352 80.012s-5.253 86.072-14.548 89.709c-9.294 3.636-43.642-12.123-43.642-12.123"/></clipPath><clipPath id="I" clipPathUnits="userSpaceOnUse"><path d="M841.746 232.885c0-36.147-85.597-65.451-191.187-65.451-105.589 0-191.187 29.304-191.187 65.451 0 36.148 85.598 65.452 191.187 65.452 105.59 0 191.187-29.304 191.187-65.452"/></clipPath><clipPath id="aa" clipPathUnits="userSpaceOnUse"><path d="M727.675 524.593h63.428V347.599h-63.428z"/></clipPath><clipPath id="x" clipPathUnits="userSpaceOnUse"><path d="M739.304 1932.28h500.356v-796.21H739.304z"/></clipPath><clipPath id="aN" clipPathUnits="userSpaceOnUse"><path d="M595.535 496.711c-9.698-36.369 25.459-52.129 25.459-52.129s-8.486-10.911-44.855-30.307c-36.368-19.397-29.096-26.671-21.822-43.642 7.274-16.974-41.217-26.671-46.066-38.794-4.85-12.122 21.82-24.245 21.82-24.245l197.604 18.183s13.335 52.129 27.882 124.866c14.548 72.738-43.642 101.832-77.586 104.257a65.955 65.955 0 01-4.715.167c-32.737-.002-68.469-23.664-77.721-58.356"/></clipPath><clipPath id="aO" clipPathUnits="userSpaceOnUse"><path d="M490.483 447.006h137.784v-133.71H490.483z"/></clipPath><clipPath id="ce" clipPathUnits="userSpaceOnUse"><path d="M990.221 910.97h20.429v-14.019h-20.429z"/></clipPath><clipPath id="t" clipPathUnits="userSpaceOnUse"><path d="M78.234 321.356H1347.35V0H78.235z"/></clipPath><clipPath id="aR" clipPathUnits="userSpaceOnUse"><path d="M858.602 1004.659c-89.709-55.765-172.145-113.955-172.145-113.955l33.944-16.971 140.625 48.491S763.869 821.255 736.16 765.839c-14.546-29.095-1.32-115.169 66.677-115.169 31.519 0 77.586 16.973 99.408 41.218-7.274 80.012 76.126 222.558 84.86 254.582 10.448 38.309-14.13 80.37-62.041 80.374-18.798 0-41.182-6.47-66.462-22.185"/></clipPath><clipPath id="aS" clipPathUnits="userSpaceOnUse"><path d="M696.155 961.098H897.42V856.76H696.155z"/></clipPath><clipPath id="aU" clipPathUnits="userSpaceOnUse"><path d="M849.408 909.892s45.562 48.701 47.987 51.125c1.715 1.714-87.284-24.246-94.558-33.944-7.274-9.698 9.698-9.698-16.973-19.396-26.669-9.699-89.709-38.794-89.709-38.794l31.52-12.123z"/></clipPath><clipPath id="ae" clipPathUnits="userSpaceOnUse"><path d="M595.535 496.711c-9.698-36.369 25.459-52.129 25.459-52.129s-8.486-10.911-44.855-30.307c-36.368-19.397-29.096-26.671-21.822-43.642 7.274-16.974-41.217-26.671-46.066-38.794-4.85-12.122 21.82-24.245 21.82-24.245l3.746.345c6.871-2.143 26.832-6.971 48.383.866 13.829 5.029 20.488.931 29.439-3.166 8.312-3.805 18.603-7.609 38.449-4.107 41.218 7.273 67.472 15.372 68.892 23.445l8.695.8s13.335 52.129 27.882 124.866c14.548 72.738-43.642 101.832-77.586 104.257a65.955 65.955 0 01-4.715.167c-32.739.001-68.469-23.662-77.721-58.356"/></clipPath><clipPath id="bW" clipPathUnits="userSpaceOnUse"><path d="M413.64 1089.8h160.552V963.888H413.64z"/></clipPath><clipPath id="af" clipPathUnits="userSpaceOnUse"><path d="M583.575 599.055h219.807V279.182H583.575z"/></clipPath><clipPath id="aW" clipPathUnits="userSpaceOnUse"><path d="M718.016 961.017h179.379v-310.47H718.016z"/></clipPath><clipPath id="ah" clipPathUnits="userSpaceOnUse"><path d="M708.278 456.705s19.397-29.095-12.123-60.614c-31.519-31.52-79.53 1.953-72.737-21.822 14.548-50.916-15.76-50.786-33.944-60.614-18.184-9.829 117.277-62.074 154.409-15.277 37.132 46.797 73.501 160.752 54.104 197.12-19.396 36.369-63.039 133.351-135.776 94.558-72.737-38.793-82.435-72.737-77.586-96.983 4.849-24.245 4.849-48.491 58.19-50.916 53.34-2.424 65.463 14.548 65.463 14.548"/></clipPath><clipPath id="aY" clipPathUnits="userSpaceOnUse"><path d="M730.099 1033.89h283.961V631.477H730.099z"/></clipPath><clipPath id="ba" clipPathUnits="userSpaceOnUse"><path d="M730.099 691.888s53.341-41.217 106.682-19.396c38.346 15.687 60.614 60.614 29.095 96.983 96.983 150.324 2.424 70.313 58.19 140.625 33.943 43.643 57.394 109.795 2.026 116.725-55.367 6.93 39.191 11.778 56.164-.345 16.972-12.123 53.34-121.228 14.547-176.994-38.794-55.765-67.888-176.994-75.162-181.843-7.274-4.849-143.05-46.067-164.871-33.944-21.822 12.123-26.671 58.189-26.671 58.189"/></clipPath><clipPath id="z" clipPathUnits="userSpaceOnUse"><path d="M0 1448.45h459.903V537.503H0z"/></clipPath><clipPath id="L" clipPathUnits="userSpaceOnUse"><path d="M759.194 672.492s43.643-63.039 36.369-94.559c-7.274-31.52-73.949-93.345-73.949-93.345s48.491-123.654 47.279-122.442c13.335-20.61 67.888-7.273 87.284 33.945 16.972 24.245 59.403 103.044 65.464 157.597 4.956 44.597-19.396 138.2-19.396 138.2z"/></clipPath><clipPath id="M" clipPathUnits="userSpaceOnUse"><path d="M730.099 670.359h167.296V485.702H730.099z"/></clipPath><clipPath id="bc" clipPathUnits="userSpaceOnUse"><path d="M681.608 1028.31h256.601V883.43H681.608z"/></clipPath><clipPath id="aj" clipPathUnits="userSpaceOnUse"><path d="M586.699 559.446h124.004V443.724H586.699z"/></clipPath><clipPath id="O" clipPathUnits="userSpaceOnUse"><path d="M785.864 657.945s12.123 19.397 24.247-65.464c5.154-36.083 87.284-31.519 87.284-43.642 0-12.123-77.586-4.849-99.408-12.123-21.821-7.274-46.066-48.492-50.916-50.916-4.849-2.425-16.972 41.217-16.972 41.217s19.397 130.928 19.397 140.626c0 9.699 36.368-9.698 36.368-9.698"/></clipPath><clipPath id="al" clipPathUnits="userSpaceOnUse"><path d="M616.144 559.582h191.077V273.258H616.144z"/></clipPath><clipPath id="an" clipPathUnits="userSpaceOnUse"><path d="M616.144 303.957s67.888 4.848 53.341 41.218c-9.271 23.176 2.424 16.971 21.821 16.971 19.397 0 47.615 60.614 49.266 73.949 1.65 13.336 46.539 86.639-56.461 117.639-43.805 13.185-24.324-.046-24.324-.046s111.53 29.095 118.804-53.341c7.273-82.435 60.614-181.843 0-215.788-60.615-33.943-162.447 19.398-162.447 19.398"/></clipPath><clipPath id="m" clipPathUnits="userSpaceOnUse"><path d="M0 1932.281h1473.111V0H0z"/></clipPath><clipPath id="bi" clipPathUnits="userSpaceOnUse"><path d="M748.828 434.297c-2.956-.925-5.422-3.038-7.125-5.623-24.713-37.519-19.872-66.67-24.939-147.752 0 0-4.076-.741-10.892-1.964.963.149 32.416 5.007 33.925 8.026 14.548 29.095 12.123 128.503 29.096 130.928 2.857.408 4.271 1.642 4.577 3.34-5.864 8.613-13.385 13.681-20.432 13.682a14.011 14.011 0 01-4.21-.637"/></clipPath><clipPath id="ca" clipPathUnits="userSpaceOnUse"><path d="M1014.83 1357.46h61.26V1310h-61.26z"/></clipPath><clipPath id="bU" clipPathUnits="userSpaceOnUse"><path d="M1230.5 1249.15h160.55v-125.91H1230.5z"/></clipPath><clipPath id="v" clipPathUnits="userSpaceOnUse"><path d="M1005.09 1324.96h468.02V535.451h-468.02z"/></clipPath><clipPath id="C" clipPathUnits="userSpaceOnUse"><path d="M312.394 303.303l19.259-133.975c29.7-8.348 61.427-15.213 94.976-20.453l414.428 9.532c56.066 10.575 104.163 24.639 144.761 41.384l-74.849 119.096z"/></clipPath><clipPath id="aq" clipPathUnits="userSpaceOnUse"><path d="M336.106 591.268c-26.671-16.972-53.341-33.943-50.917-41.218 2.425-7.273 19.397-16.971 50.917 0 31.519 16.973 67.888 16.973 75.162 33.945 7.273 16.973 9.697 38.792 9.697 38.792l-31.519 26.672s-26.67-41.218-53.34-58.191"/></clipPath><clipPath id="ar" clipPathUnits="userSpaceOnUse"><path d="M294.079 633.699h149.437V523.25H294.079z"/></clipPath><clipPath id="at" clipPathUnits="userSpaceOnUse"><path d="M417.329 621.576c0-2.425-7.274-33.944-29.095-41.218-21.821-7.273-36.369-12.123-53.341-24.246-16.972-12.122-40.814-15.492-40.814-15.492s132.948-42.697 145.071 5.794c12.123 48.492-4.849 87.285-4.849 87.285z"/></clipPath><clipPath id="Q" clipPathUnits="userSpaceOnUse"><path d="M739.798 662.824h66.008V495.498h-66.008z"/></clipPath><clipPath id="D" clipPathUnits="userSpaceOnUse"><path d="M305.504 345.416h698.146v-52.438H305.504z"/></clipPath><clipPath id="br" clipPathUnits="userSpaceOnUse"><path d="M0 1932.281h1473.111V0H0z"/></clipPath><clipPath id="bs" clipPathUnits="userSpaceOnUse"><path d="M311.21 789.591h101.464v-72.718H311.21z"/></clipPath><clipPath id="S" clipPathUnits="userSpaceOnUse"><path d="M701.004 725.833h288.525V313.16H701.004z"/></clipPath><clipPath id="bu" clipPathUnits="userSpaceOnUse"><path d="M547.363 901.709h101.465v-72.718H547.363z"/></clipPath><clipPath id="s" clipPathUnits="userSpaceOnUse"><path d="M950.204 1284.546c-159.008-137.184 105.58-550.129-438.992-525.123-255.055 11.71-445.651-143.94-463.998-269.508C17.19 284.431 248.478 128.714 619.571 137.054c494.56 11.114 614.032 213.939 508.452 377.867-105.58 163.926-32.41 301.82 136.144 541.792 118.823 169.173-25.099 277.033-167.272 277.021-53.968 0-107.703-15.552-146.691-49.188"/></clipPath><clipPath id="bw" clipPathUnits="userSpaceOnUse"><path d="M1066.85 300.148h101.47V227.43h-101.47z"/></clipPath><clipPath id="aw" clipPathUnits="userSpaceOnUse"><path d="M634.328 874.944c-16.971-4.848-60.614-12.123-58.189-21.821 2.424-9.699 52.327-3.553 69.1-8.486 41.218-12.123 50.916-2.424 55.766 2.424 14.547 14.548 20.609 30.308 20.609 30.308l-31.52 14.548s-38.794-12.123-55.766-16.973"/></clipPath><clipPath id="by" clipPathUnits="userSpaceOnUse"><path d="M1218.46 507.803h101.47v-72.718h-101.47z"/></clipPath><clipPath id="ax" clipPathUnits="userSpaceOnUse"><path d="M588.525 881.006H725.25v-50.04H588.525z"/></clipPath><clipPath id="bA" clipPathUnits="userSpaceOnUse"><path d="M870.909 590.047h101.464v-72.718H870.909z"/></clipPath><clipPath id="az" clipPathUnits="userSpaceOnUse"><path d="M720.401 881.006s-19.396-29.095-43.643-31.52c-24.245-2.425-41.217 4.85-63.039 0-21.82-4.849-25.194-1.484-25.194-1.484s39.742-8.214 51.865-13.063c12.123-4.849 67.888-7.274 75.162 4.849 7.274 12.123 9.698 29.095 9.698 29.095z"/></clipPath><clipPath id="bC" clipPathUnits="userSpaceOnUse"><path d="M152.017 492.872h101.464v-72.718H152.017z"/></clipPath><clipPath id="U" clipPathUnits="userSpaceOnUse"><path d="M734.949 704.37h227.976V332.257H734.949z"/></clipPath><clipPath id="bE" clipPathUnits="userSpaceOnUse"><path d="M595.326 720.023h62.613v-44.408h-62.613z"/></clipPath><clipPath id="bY" clipPathUnits="userSpaceOnUse"><path d="M945.815 147.852h61.255v-47.458h-61.255z"/></clipPath><clipPath id="bG" clipPathUnits="userSpaceOnUse"><path d="M462.61 562.824h62.613v-44.408H462.61z"/></clipPath><clipPath id="W" clipPathUnits="userSpaceOnUse"><path d="M853.753 364.571s-75.162-48.492-87.285-26.671l-31.52 128.503s93.588-93.591 143.051 21.821c21.821 50.916-4.849 179.419-4.849 179.419l26.67 12.123s65.463 84.86 63.039-60.615c-2.425-145.474-109.106-254.58-109.106-254.58"/></clipPath><clipPath id="bI" clipPathUnits="userSpaceOnUse"><path d="M236.785 662.608h62.613V618.2h-62.613z"/></clipPath><clipPath id="F" clipPathUnits="userSpaceOnUse"><path d="M950.204 1284.546c-159.008-137.184 105.58-550.129-438.992-525.123-255.055 11.71-445.651-143.94-463.998-269.508C17.19 284.431 248.478 128.714 619.571 137.054c494.56 11.114 614.032 213.939 508.452 377.867-105.58 163.926-32.41 301.82 136.144 541.792 118.823 169.173-25.099 277.033-167.272 277.021-53.968 0-107.703-15.552-146.691-49.188"/></clipPath><clipPath id="bK" clipPathUnits="userSpaceOnUse"><path d="M726.541 662.608h62.613V618.2h-62.613z"/></clipPath><clipPath id="aC" clipPathUnits="userSpaceOnUse"><path d="M527.647 780.385c-21.821-16.971-138.201-121.228-138.201-130.926 0-9.699 24.246-36.369 31.519-33.945 7.275 2.425 133.352 82.436 157.598 87.285 24.246 4.849 196.391 29.095 196.391 29.095l55.766 145.475s-281.252-80.011-303.073-96.984"/></clipPath><clipPath id="bM" clipPathUnits="userSpaceOnUse"><path d="M372.268 407.095h62.613v-44.407h-62.613z"/></clipPath><clipPath id="aD" clipPathUnits="userSpaceOnUse"><path d="M376.111 883.026h446.931V630.945H376.111z"/></clipPath><clipPath id="bO" clipPathUnits="userSpaceOnUse"><path d="M891.082 730.816h57.13v-40.412h-57.13z"/></clipPath><clipPath id="cc" clipPathUnits="userSpaceOnUse"><path d="M906.461 1160.17h31.69v-24.1h-31.69z"/></clipPath><clipPath id="bQ" clipPathUnits="userSpaceOnUse"><path d="M1169.24 1109.96h61.26v-47.46h-61.26z"/></clipPath><clipPath id="aF" clipPathUnits="userSpaceOnUse"><path d="M412.48 765.58h366.24V603.998H412.48z"/></clipPath><clipPath id="bS" clipPathUnits="userSpaceOnUse"><path d="M1199.87 862.512h61.26v-47.458h-61.26z"/></clipPath><clipPath id="aH" clipPathUnits="userSpaceOnUse"><path d="M412.48 615.359s77.721 53.564 99.407 64.407c14.548 7.274-4.849 7.274 24.246 24.245 11.626 6.783 28.689 13.08 46.067 16.973 89.709 14.547 19.397 21.82 109.106 36.368 94.558 16.972 87.285 2.425 87.285 2.425l-43.643-84.86-313.982-70.919z"/></clipPath><mask id="bj" height="1" width="1" y="0" x="0" maskUnits="userSpaceOnUse"><path d="M-32768 32767h65535v-65535h-65535z" fill="url(#g)"/></mask><mask id="aZ" height="1" width="1" y="0" x="0" maskUnits="userSpaceOnUse"><path d="M-32768 32767h65535v-65535h-65535z" fill="url(#a)"/></mask><mask id="aT" height="1" width="1" y="0" x="0" maskUnits="userSpaceOnUse"><path d="M-32768 32767h65535v-65535h-65535z" fill="url(#c)"/></mask><mask id="aK" height="1" width="1" y="0" x="0" maskUnits="userSpaceOnUse"><path d="M-32768 32767h65535v-65535h-65535z" fill="url(#d)"/></mask><mask id="ay" height="1" width="1" y="0" x="0" maskUnits="userSpaceOnUse"><path d="M-32768 32767h65535v-65535h-65535z" fill="url(#e)"/></mask><mask id="as" height="1" width="1" y="0" x="0" maskUnits="userSpaceOnUse"><path d="M-32768 32767h65535v-65535h-65535z" fill="url(#f)"/></mask><mask id="am" height="1" width="1" y="0" x="0" maskUnits="userSpaceOnUse"><path d="M-32768 32767h65535v-65535h-65535z" fill="url(#b)"/></mask><mask id="ag" height="1" width="1" y="0" x="0" maskUnits="userSpaceOnUse"><path d="M-32768 32767h65535v-65535h-65535z" fill="url(#h)"/></mask><mask id="V" height="1" width="1" y="0" x="0" maskUnits="userSpaceOnUse"><path d="M-32768 32767h65535v-65535h-65535z" fill="url(#i)"/></mask><mask id="N" height="1" width="1" y="0" x="0" maskUnits="userSpaceOnUse"><path d="M-32768 32767h65535v-65535h-65535z" fill="url(#j)"/></mask><mask id="H" height="1" width="1" y="0" x="0" maskUnits="userSpaceOnUse"><path d="M-32768 32767h65535v-65535h-65535z" fill="url(#k)"/></mask><mask id="aG" height="1" width="1" y="0" x="0" maskUnits="userSpaceOnUse"><path d="M-32768 32767h65535v-65535h-65535z" fill="url(#l)"/></mask></defs><g clip-path="url(#m)" transform="matrix(1.33333 0 0 -1.33333 -59.471 1809.947)"><g clip-path="url(#n)" opacity=".2"><path d="M1294.444 1135.348s-234.031-388.984-109.333-560.629c188.821-259.912-8.226-506.009-609.069-470.985-600.844 35.025 547.648 1063.382 718.402 1031.614" fill="url(#o)"/></g></g><path d="M731.31 1002.385c-36.385-3.128-63.927-28.382-61.517-56.408 2.408-28.026 33.857-48.211 70.241-45.082 36.385 3.126 63.928 28.381 61.519 56.407-2.244 26.102-29.679 45.402-62.828 45.402-2.444 0-4.916-.104-7.415-.319" fill="url(#p)" transform="matrix(1.33333 0 0 -1.33333 -59.471 1809.947)"/><path d="M646.337 1062.345c-18.193-1.565-31.964-14.192-30.759-28.204 1.204-14.014 16.928-24.106 35.12-22.543 18.193 1.564 31.965 14.191 30.759 28.205-1.121 13.051-14.839 22.701-31.413 22.701-1.222 0-2.458-.052-3.707-.159" fill="url(#q)" transform="matrix(1.33333 0 0 -1.33333 -59.471 1809.947)"/><path d="M950.204 1284.546c-159.008-137.184 105.58-550.129-438.992-525.123-255.055 11.71-445.651-143.94-463.998-269.508C17.19 284.431 248.478 128.714 619.571 137.054c494.56 11.114 614.032 213.939 508.452 377.867-105.58 163.926-32.41 301.82 136.144 541.792 118.823 169.173-25.099 277.033-167.272 277.021-53.968 0-107.703-15.552-146.691-49.188" fill="url(#r)" transform="matrix(1.33333 0 0 -1.33333 -59.471 1809.947)"/><g clip-path="url(#s)" transform="matrix(1.33333 0 0 -1.33333 -59.471 1809.947)"><g clip-path="url(#t)" opacity=".43"><path d="M80.111 136.734c22 116-19 200.328 830.858 182.153 952.855-20.377 72.19-328.656-89.211-309.798C660.356 27.945 39.808-75.775 80.111 136.734" fill="url(#u)" fill-rule="evenodd"/></g><g clip-path="url(#v)" opacity=".34"><path d="M1228.545 1300.257s-382.954-297.59-146.194-682.057c236.76-384.466 390.76 695.534 390.76 695.534s-194.524 32.689-244.566-13.477" fill="url(#w)"/></g><g clip-path="url(#x)" opacity=".2"><path d="M748.581 1762.697s-96.582-475.273 333.534-612.64c430.117-137.366-156.798 782.224-156.798 782.224s-168.859-101.956-176.736-169.584" fill="url(#y)"/></g><g clip-path="url(#z)" opacity=".2"><path d="M39.154 1278.87s-184.081-591.452 246.035-728.819c430.116-137.367-69.299 898.403-69.299 898.403S47.031 1346.497 39.154 1278.87" fill="url(#A)"/></g></g><path d="M312.394 303.303l12.203-131.953c83.305-24.337 182.722-36.819 294.974-34.296 159.349 3.581 279.759 27.065 366.247 62.737l-74.849 119.096z" fill="url(#B)" transform="matrix(1.33333 0 0 -1.33333 -59.471 1809.947)"/><g clip-path="url(#C)" transform="matrix(1.33333 0 0 -1.33333 -59.471 1809.947)"><g clip-path="url(#D)" opacity=".2"><path d="M312.394 292.978l691.259 20.286-13.78 32.152-684.369-20.669z" fill="url(#E)"/></g></g><g clip-path="url(#F)" transform="matrix(1.33333 0 0 -1.33333 -59.471 1809.947)"><g clip-path="url(#G)"><g mask="url(#H)" clip-path="url(#I)" opacity=".5"><path d="M841.746 232.885c0-36.147-85.597-65.451-191.187-65.451-105.589 0-191.187 29.304-191.187 65.451 0 36.148 85.598 65.452 191.187 65.452 105.59 0 191.187-29.304 191.187-65.452" fill="url(#J)"/></g></g></g><path d="M759.194 672.492s43.643-63.039 36.369-94.559c-7.274-31.52-73.949-93.345-73.949-93.345s48.491-123.654 47.279-122.442c13.335-20.61 67.888-7.273 87.284 33.945 16.972 24.245 59.403 103.044 65.464 157.597 4.956 44.597-19.396 138.2-19.396 138.2z" fill="url(#K)" transform="matrix(1.33333 0 0 -1.33333 -59.471 1809.947)"/><g clip-path="url(#L)" transform="matrix(1.33333 0 0 -1.33333 -59.471 1809.947)"><g clip-path="url(#M)"><g mask="url(#N)" clip-path="url(#O)" opacity=".1"><path d="M785.864 657.945s12.123 19.397 24.247-65.464c5.154-36.083 87.284-31.519 87.284-43.642 0-12.123-77.586-4.849-99.408-12.123-21.821-7.274-46.066-48.492-50.916-50.916-4.849-2.425-16.972 41.217-16.972 41.217s19.397 130.928 19.397 140.626c0 9.699 36.368-9.698 36.368-9.698" fill="url(#P)"/></g></g><g clip-path="url(#Q)" opacity=".2"><path d="M773.742 662.794s43.642-55.766 29.095-92.134c-14.548-36.369-55.766-75.162-55.766-75.162l-7.273 26.671s4.849 143.05 33.944 140.625" fill="url(#R)"/></g><g clip-path="url(#S)" opacity=".2"><path d="M846.479 599.755c-9.567 69.701 16.972 80.011 16.972 80.011l48.492 46.067 77.586-186.693-38.793-113.955s-99.408-109.106-128.503-111.53c-29.095-2.425-58.189 4.849-58.189 4.849l-42.431 63.039-20.608 70.312s5.285 11.483 27.106 30.879c0 0 28.659 53.982 50.48 5.49" fill="url(#T)"/></g><g clip-path="url(#U)"><g mask="url(#V)" clip-path="url(#W)" opacity=".3"><path d="M853.753 364.571s-75.162-48.492-87.285-26.671l-31.52 128.503s93.588-93.591 143.051 21.821c21.821 50.916-4.849 179.419-4.849 179.419l26.67 12.123s65.463 84.86 63.039-60.615c-2.425-145.474-109.106-254.58-109.106-254.58" fill="url(#X)"/></g></g><g clip-path="url(#Y)" opacity=".2"><path d="M863.451 405.789s-38.793-58.191-82.436-46.068c-28.033 7.788-9.698 0-9.698 0l7.274-16.971 58.19 12.123z" fill="url(#Z)"/></g><g clip-path="url(#aa)" opacity=".2"><path d="M747.071 524.593s24.246-31.52 16.973-80.011c0 0 24.245-14.548 26.67-41.218 2.424-26.67-7.274-55.766-7.274-55.766l-55.765 77.587z" fill="url(#ab)"/></g></g><path d="M583.412 314.867c-31.519 7.274-58.19-2.425-58.19-9.699 0-7.273 29.095-4.849 29.095-4.849s-9.697-2.424-4.849-4.848c4.849-2.426 33.944 2.424 33.944 2.424 33.945-12.123 143.051-4.85 143.051-4.85l4.849 43.643z" fill="url(#ac)" transform="matrix(1.33333 0 0 -1.33333 -59.471 1809.947)"/><path d="M595.535 496.711c-9.698-36.369 25.459-52.129 25.459-52.129s-8.486-10.911-44.855-30.307c-36.368-19.397-29.096-26.671-21.822-43.642 7.274-16.974-41.217-26.671-46.066-38.794-4.85-12.122 21.82-24.245 21.82-24.245l3.746.345c6.871-2.143 26.832-6.971 48.383.866 13.829 5.029 20.488.931 29.439-3.166 8.312-3.805 18.603-7.609 38.449-4.107 41.218 7.273 67.472 15.372 68.892 23.445l8.695.8s13.335 52.129 27.882 124.866c14.548 72.738-43.642 101.832-77.586 104.257a65.955 65.955 0 01-4.715.167c-32.739.001-68.469-23.662-77.721-58.356" fill="url(#ad)" transform="matrix(1.33333 0 0 -1.33333 -59.471 1809.947)"/><g clip-path="url(#ae)" transform="matrix(1.33333 0 0 -1.33333 -59.471 1809.947)"><g clip-path="url(#af)"><g mask="url(#ag)" clip-path="url(#ah)" opacity=".4"><path d="M708.278 456.705s19.397-29.095-12.123-60.614c-31.519-31.52-79.53 1.953-72.737-21.822 14.548-50.916-15.76-50.786-33.944-60.614-18.184-9.829 117.277-62.074 154.409-15.277 37.132 46.797 73.501 160.752 54.104 197.12-19.396 36.369-63.039 133.351-135.776 94.558-72.737-38.793-82.435-72.737-77.586-96.983 4.849-24.245 4.849-48.491 58.19-50.916 53.34-2.424 65.463 14.548 65.463 14.548" fill="url(#ai)"/></g></g><g clip-path="url(#aj)" opacity=".5"><path d="M616.099 450.643s-31.474 27.883-12.078 59.403c19.397 31.519 48.492 53.34 106.682 41.217 0 0-65.464 14.547-89.71 4.849-24.245-9.698-41.217-65.463-31.519-82.435 9.698-16.972-2.425-28.386 37.581-29.953z" fill="url(#ak)"/></g><g clip-path="url(#al)"><g mask="url(#am)" clip-path="url(#an)" opacity=".4"><path d="M616.144 303.957s67.888 4.848 53.341 41.218c-9.271 23.176 2.424 16.971 21.821 16.971 19.397 0 47.615 60.614 49.266 73.949 1.65 13.336 46.539 86.639-56.461 117.639-43.805 13.185-24.324-.046-24.324-.046s111.53 29.095 118.804-53.341c7.273-82.435 60.614-181.843 0-215.788-60.615-33.943-162.447 19.398-162.447 19.398" fill="url(#ao)"/></g></g></g><path d="M336.106 591.268c-26.671-16.972-53.341-33.943-50.917-41.218 2.425-7.273 19.397-16.971 50.917 0 31.519 16.973 67.888 16.973 75.162 33.945 7.273 16.973 9.697 38.792 9.697 38.792l-31.519 26.672s-26.67-41.218-53.34-58.191" fill="url(#ap)" transform="matrix(1.33333 0 0 -1.33333 -59.471 1809.947)"/><g clip-path="url(#aq)" transform="matrix(1.33333 0 0 -1.33333 -59.471 1809.947)"><g clip-path="url(#ar)"><g mask="url(#as)" clip-path="url(#at)" opacity=".5"><path d="M417.329 621.576c0-2.425-7.274-33.944-29.095-41.218-21.821-7.273-36.369-12.123-53.341-24.246-16.972-12.122-40.814-15.492-40.814-15.492s132.948-42.697 145.071 5.794c12.123 48.492-4.849 87.285-4.849 87.285z" fill="url(#au)"/></g></g></g><path d="M634.328 874.944c-16.971-4.848-60.614-12.123-58.189-21.821 2.424-9.699 52.327-3.553 69.1-8.486 41.218-12.123 50.916-2.424 55.766 2.424 14.547 14.548 20.609 30.308 20.609 30.308l-31.52 14.548s-38.794-12.123-55.766-16.973" fill="url(#av)" transform="matrix(1.33333 0 0 -1.33333 -59.471 1809.947)"/><g clip-path="url(#aw)" transform="matrix(1.33333 0 0 -1.33333 -59.471 1809.947)"><g clip-path="url(#ax)"><g mask="url(#ay)" clip-path="url(#az)" opacity=".5"><path d="M720.401 881.006s-19.396-29.095-43.643-31.52c-24.245-2.425-41.217 4.85-63.039 0-21.82-4.849-25.194-1.484-25.194-1.484s39.742-8.214 51.865-13.063c12.123-4.849 67.888-7.274 75.162 4.849 7.274 12.123 9.698 29.095 9.698 29.095z" fill="url(#aA)"/></g></g></g><path d="M527.647 780.385c-21.821-16.971-138.201-121.228-138.201-130.926 0-9.699 24.246-36.369 31.519-33.945 7.275 2.425 133.352 82.436 157.598 87.285 24.246 4.849 196.391 29.095 196.391 29.095l55.766 145.475s-281.252-80.011-303.073-96.984" fill="url(#aB)" transform="matrix(1.33333 0 0 -1.33333 -59.471 1809.947)"/><g clip-path="url(#aC)" transform="matrix(1.33333 0 0 -1.33333 -59.471 1809.947)"><g clip-path="url(#aD)" opacity=".2"><path d="M816.98 870.095s-256.601-83.648-278.422-93.346c-21.821-9.698-123.654-104.257-135.777-118.804-12.123-14.548-26.67-27-26.67-27v29.424s126.078 150.324 169.72 155.173c43.643 4.849 277.211 67.484 277.211 67.484z" fill="url(#aE)"/></g><g clip-path="url(#aF)"><g mask="url(#aG)" clip-path="url(#aH)" opacity=".2"><path d="M412.48 615.359s77.721 53.564 99.407 64.407c14.548 7.274-4.849 7.274 24.246 24.245 11.626 6.783 28.689 13.08 46.067 16.973 89.709 14.547 19.397 21.82 109.106 36.368 94.558 16.972 87.285 2.425 87.285 2.425l-43.643-84.86-313.982-70.919z" fill="url(#aI)"/></g></g><g clip-path="url(#aJ)"><g mask="url(#aK)" clip-path="url(#aL)" opacity=".4"><path d="M795.563 868.883c0-2.424-106.681-87.285-75.162-157.598 31.52-70.313 133.352 80.012 133.352 80.012s-5.253 86.072-14.548 89.709c-9.294 3.636-43.642-12.123-43.642-12.123" fill="url(#aM)"/></g></g></g><g clip-path="url(#aN)" transform="matrix(1.33333 0 0 -1.33333 -59.471 1809.947)"><g clip-path="url(#aO)" opacity=".5"><path d="M622.699 438.841s-28.376-23.354-47.773-33.052c-19.396-9.698-24.245-14.548-16.972-26.671 7.274-12.123 12.123-16.972-9.698-29.095-21.821-12.123-40.969-14.287-28.971-36.238 0 0-17.096-4.98-19.521 16.842-2.424 21.821-26.67 55.765 14.548 70.312 41.218 14.548 113.955 46.068 113.955 46.068z" fill="url(#aP)"/></g></g><path d="M858.602 1004.659c-89.709-55.765-172.145-113.955-172.145-113.955l33.944-16.971 140.625 48.491S763.869 821.255 736.16 765.839c-14.546-29.095-1.32-115.169 66.677-115.169 31.519 0 77.586 16.973 99.408 41.218-7.274 80.012 76.126 222.558 84.86 254.582 10.448 38.309-14.13 80.37-62.041 80.374-18.798 0-41.182-6.47-66.462-22.185" fill="url(#aQ)" transform="matrix(1.33333 0 0 -1.33333 -59.471 1809.947)"/><g clip-path="url(#aR)" transform="matrix(1.33333 0 0 -1.33333 -59.471 1809.947)"><g clip-path="url(#aS)"><g mask="url(#aT)" clip-path="url(#aU)" opacity=".2"><path d="M849.408 909.892s45.562 48.701 47.987 51.125c1.715 1.714-87.284-24.246-94.558-33.944-7.274-9.698 9.698-9.698-16.973-19.396-26.669-9.699-89.709-38.794-89.709-38.794l31.52-12.123z" fill="url(#aV)"/></g></g><g clip-path="url(#aW)" opacity=".2"><path d="M897.395 961.017S757.26 798.848 751.921 754.927c-7.37-60.614 31.519-104.256 31.519-104.256s-67.888-7.274-65.354 89.71c.636 24.358 123.578 172.144 123.578 172.144l19.385 9.698z" fill="url(#aX)"/></g><g clip-path="url(#aY)"><g mask="url(#aZ)" clip-path="url(#ba)" opacity=".2"><path d="M730.099 691.888s53.341-41.217 106.682-19.396c38.346 15.687 60.614 60.614 29.095 96.983 96.983 150.324 2.424 70.313 58.19 140.625 33.943 43.643 57.394 109.795 2.026 116.725-55.367 6.93 39.191 11.778 56.164-.345 16.972-12.123 53.34-121.228 14.547-176.994-38.794-55.765-67.888-176.994-75.162-181.843-7.274-4.849-143.05-46.067-164.871-33.944-21.822 12.123-26.671 58.189-26.671 58.189" fill="url(#bb)"/></g></g><g clip-path="url(#bc)" opacity=".2"><path d="M938.209 1026.076s-43.239-2.021-84.456-31.115C812.535 965.866 681.608 883.43 681.608 883.43l4.849 53.341s200.432 108.298 251.752 89.305" fill="url(#bd)"/></g></g><path d="M687.669 487.012c-28.779-13.082-77.586-14.547-77.586-14.547s4.849-58.19 63.039-58.19c54.312 0 43.148 73.925 19.733 73.922-1.672 0-3.408-.377-5.186-1.185" fill="url(#be)" transform="matrix(1.33333 0 0 -1.33333 -59.471 1809.947)"/><path d="M636.753 414.275l12.123 7.273s-7.274 0-21.821 14.547z" fill="url(#bf)" transform="matrix(1.33333 0 0 -1.33333 -59.471 1809.947)"/><path d="M659.81 458.154c-2.228-11.14-15.846-13.566-15.984-13.589a1.212 1.212 0 01.199-2.408c.066 0 .135.005.2.017.629.104 15.403 2.709 17.963 15.507a1.21 1.21 0 01-.953 1.424 1.01 1.01 0 01-.232.024 1.232 1.232 0 01-1.193-.975" fill="url(#bg)" transform="matrix(1.33333 0 0 -1.33333 -59.471 1809.947)"/><path d="M748.828 434.297c-2.956-.925-5.422-3.038-7.125-5.623-24.713-37.519-19.872-66.67-24.939-147.752 0 0-133.352-24.245-150.324-24.245 0 0-7.274 7.274-21.82 4.849-14.549-2.425-7.275-4.849-7.275-4.849s-31.519-7.273-29.094-12.123c2.424-4.849 36.369-16.972 58.189-2.424 0 0 105.469-13.336 144.263-10.91 47.305 2.955 52.965-3.489 72.551 141.744 4.736 35.118-13.995 61.967-30.216 61.97a14.016 14.016 0 01-4.21-.637" fill="url(#bh)" transform="matrix(1.33333 0 0 -1.33333 -59.471 1809.947)"/><g clip-path="url(#bi)" transform="matrix(1.33333 0 0 -1.33333 -59.471 1809.947)"><g mask="url(#bj)"><path d="M748.828 434.297c-2.956-.925-5.422-3.038-7.125-5.623-24.713-37.519-19.872-66.67-24.939-147.752 0 0-4.076-.741-10.892-1.964.963.149 32.416 5.007 33.925 8.026 14.548 29.095 12.123 128.503 29.096 130.928 2.857.408 4.271 1.642 4.577 3.34-5.864 8.613-13.385 13.681-20.432 13.682a14.011 14.011 0 01-4.21-.637" fill="url(#bk)"/></g></g><path d="M1061.046 501.627l-16.461-164.564h10.99c-2.455 35.605 7.159 141.432 9.23 163.517 58.504-1.803 55.281 74.138 55.281 74.138-70.275-14.054-60.744-65.826-59.04-73.091" fill="url(#bl)" transform="matrix(1.33333 0 0 -1.33333 -59.471 1809.947)"/><path d="M1023.997 551.595c2.071-22.085 12.93-156.529 10.474-192.135h10.99l-17.705 193.182c1.704 7.265 11.235 59.038-59.04 73.092 0 0-3.223-75.941 55.281-74.139" fill="url(#bm)" transform="matrix(1.33333 0 0 -1.33333 -59.471 1809.947)"/><path d="M1007.179 487.488c8.485-43.726 10.618-116.83 10.618-116.83h8.399s-10.415 88.215-16.653 117.529c1.215 5.121 8.551 43.732-43.694 54.181 0 0-2.407-56.581 41.33-54.88" fill="url(#bn)" transform="matrix(1.33333 0 0 -1.33333 -59.471 1809.947)"/><path d="M1003.651 416.573c6.256-43.47 7.925-100.663 7.925-100.663h8.398s-7.764 65.758-13.9 102.595c1.609 8.337 5.205 43.106-43.958 52.939 0 0-2.414-56.756 41.535-54.871" fill="url(#bo)" transform="matrix(1.33333 0 0 -1.33333 -59.471 1809.947)"/><path d="M1074.01 434.116c-6.087-37.138-13.601-100.787-13.601-100.787h8.399s1.668 57.177 7.922 100.645c43.208-1.244 40.827 54.89 40.827 54.89-55.993-11.198-43.551-54.748-43.551-54.748" fill="url(#bp)" transform="matrix(1.33333 0 0 -1.33333 -59.471 1809.947)"/><path d="M995.711 370.658v-50.425c0-11.322 9.178-20.499 20.499-20.499h38.636c11.321 0 20.499 9.177 20.499 20.499v50.425z" fill="url(#bq)" transform="matrix(1.33333 0 0 -1.33333 -59.471 1809.947)"/><g clip-path="url(#br)" transform="matrix(1.33333 0 0 -1.33333 -59.471 1809.947)"><g clip-path="url(#bs)" opacity=".04"><path d="M404.387 734.51l-71.635-17.333c-5.793-1.403-11.68 2.19-13.081 7.983l-8.158 33.712c-1.402 5.793 2.191 11.68 7.984 13.082l71.635 17.334c5.793 1.402 11.68-2.191 13.081-7.984l8.158-33.711c1.402-5.793-2.191-11.68-7.984-13.083" fill="url(#bt)"/></g><g clip-path="url(#bu)" opacity=".08"><path d="M640.54 846.629l-71.635-17.335c-5.793-1.402-11.679 2.191-13.081 7.984l-8.158 33.712c-1.402 5.793 2.191 11.68 7.984 13.081l71.635 17.335c5.793 1.401 11.68-2.191 13.081-7.984l8.158-33.712c1.402-5.793-2.191-11.68-7.984-13.081" fill="url(#bv)"/></g><g clip-path="url(#bw)" opacity=".04"><path d="M1160.029 245.067l-71.635-17.334c-5.793-1.402-11.68 2.191-13.082 7.984l-8.157 33.711c-1.402 5.793 2.19 11.68 7.983 13.082l71.635 17.334c5.794 1.403 11.68-2.19 13.082-7.983l8.157-33.712c1.403-5.793-2.19-11.68-7.983-13.082" fill="url(#bx)"/></g><g clip-path="url(#by)" opacity=".04"><path d="M1311.64 452.722l-71.634-17.334c-5.793-1.402-11.68 2.191-13.081 7.984l-8.159 33.712c-1.401 5.793 2.192 11.679 7.985 13.082l71.634 17.334c5.793 1.402 11.68-2.191 13.082-7.984l8.158-33.712c1.401-5.793-2.192-11.679-7.985-13.082" fill="url(#bz)"/></g><g clip-path="url(#bA)" opacity=".04"><path d="M964.086 534.967l-71.635-17.335c-5.793-1.402-11.679 2.191-13.081 7.984l-8.158 33.712c-1.402 5.793 2.191 11.68 7.984 13.081l71.635 17.335c5.793 1.401 11.679-2.192 13.081-7.984l8.158-33.712c1.402-5.793-2.191-11.68-7.984-13.081" fill="url(#bB)"/></g><g clip-path="url(#bC)" opacity=".1"><path d="M245.194 437.791l-71.635-17.334c-5.793-1.402-11.679 2.191-13.081 7.984l-8.158 33.712c-1.402 5.793 2.191 11.68 7.984 13.081l71.635 17.335c5.793 1.401 11.679-2.191 13.081-7.984l8.158-33.712c1.402-5.793-2.191-11.68-7.984-13.082" fill="url(#bD)"/></g><g clip-path="url(#bE)" opacity=".04"><path d="M649.652 685.028l-37.644-9.109c-5.792-1.403-11.679 2.19-13.081 7.984l-3.297 13.626c-1.402 5.793 2.19 11.68 7.984 13.081l37.643 9.109c5.793 1.402 11.68-2.191 13.082-7.984l3.297-13.626c1.402-5.793-2.191-11.68-7.984-13.081" fill="url(#bF)"/></g><g clip-path="url(#bG)" opacity=".04"><path d="M516.935 527.829l-37.643-9.11c-5.793-1.401-11.68 2.192-13.082 7.985l-3.297 13.626c-1.402 5.793 2.191 11.68 7.984 13.081l37.643 9.109c5.794 1.403 11.68-2.19 13.082-7.984l3.297-13.626c1.402-5.793-2.191-11.68-7.984-13.081" fill="url(#bH)"/></g><g clip-path="url(#bI)" opacity=".04"><path d="M291.111 627.613l-37.644-9.109c-5.792-1.403-11.679 2.19-13.081 7.984l-3.297 13.626c-1.402 5.793 2.191 11.68 7.984 13.081l37.643 9.109c5.793 1.402 11.68-2.191 13.082-7.984l3.297-13.626c1.402-5.793-2.191-11.68-7.984-13.081" fill="url(#bJ)"/></g><g clip-path="url(#bK)" opacity=".09"><path d="M780.867 627.613l-37.644-9.109c-5.793-1.403-11.679 2.19-13.081 7.984l-3.298 13.626c-1.401 5.793 2.192 11.68 7.985 13.081l37.643 9.109c5.793 1.402 11.68-2.191 13.081-7.984l3.298-13.626c1.402-5.793-2.191-11.68-7.984-13.081" fill="url(#bL)"/></g><g clip-path="url(#bM)" opacity=".04"><path d="M426.593 372.1l-37.643-9.109c-5.793-1.401-11.68 2.191-13.082 7.984l-3.297 13.626c-1.402 5.793 2.191 11.68 7.984 13.082l37.643 9.109c5.793 1.402 11.68-2.191 13.082-7.984l3.297-13.626c1.402-5.793-2.191-11.679-7.984-13.082" fill="url(#bN)"/></g><g clip-path="url(#bO)" opacity=".1"><path d="M939.924 698.656l-32.846-7.948c-5.793-1.402-11.679 2.191-13.081 7.984l-2.612 10.791c-1.401 5.793 2.191 11.68 7.984 13.081l32.847 7.948c5.792 1.403 11.679-2.19 13.081-7.983l2.611-10.792c1.402-5.793-2.191-11.68-7.984-13.081" fill="url(#bP)"/></g><g clip-path="url(#bQ)" opacity=".05"><path d="M1222.214 1071.379l-35.42-8.572c-5.793-1.401-11.68 2.192-13.081 7.985l-4.166 17.215c-1.402 5.793 2.191 11.679 7.984 13.082l35.419 8.57c5.793 1.402 11.68-2.19 13.082-7.983l4.166-17.216c1.401-5.793-2.191-11.68-7.984-13.081" fill="url(#bR)"/></g><g clip-path="url(#bS)" opacity=".05"><path d="M1252.843 823.928l-35.42-8.571c-5.793-1.401-11.68 2.192-13.081 7.985l-4.166 17.214c-1.403 5.793 2.191 11.68 7.984 13.082l35.419 8.571c5.793 1.402 11.68-2.191 13.082-7.984l4.165-17.215c1.402-5.793-2.191-11.68-7.983-13.082" fill="url(#bT)"/></g><g clip-path="url(#bU)" opacity=".05"><path d="M1382.765 1152.759l-120.724-29.214c-5.793-1.402-11.68 2.191-13.081 7.984l-18.156 75.027c-1.402 5.793 2.191 11.68 7.984 13.082l120.724 29.213c5.793 1.402 11.68-2.191 13.082-7.984l18.156-75.027c1.401-5.793-2.192-11.68-7.985-13.081" fill="url(#bV)"/></g><g clip-path="url(#bW)" opacity=".05"><path d="M565.905 993.405L445.18 964.191c-5.793-1.401-11.679 2.192-13.081 7.985l-18.155 75.027c-1.402 5.793 2.19 11.68 7.983 13.082l120.725 29.213c5.793 1.402 11.679-2.191 13.081-7.984l18.156-75.028c1.402-5.793-2.191-11.68-7.984-13.081" fill="url(#bX)"/></g><g clip-path="url(#bY)" opacity=".05"><path d="M998.785 109.268l-35.419-8.571c-5.793-1.401-11.68 2.191-13.082 7.984l-4.166 17.215c-1.402 5.793 2.191 11.68 7.984 13.082l35.42 8.571c5.793 1.402 11.68-2.191 13.082-7.984l4.165-17.216c1.402-5.793-2.191-11.679-7.984-13.081" fill="url(#bZ)"/></g><g clip-path="url(#ca)" opacity=".05"><path d="M1067.802 1318.88l-35.419-8.572c-5.793-1.402-11.68 2.191-13.082 7.984l-4.166 17.216c-1.401 5.793 2.191 11.679 7.984 13.081l35.42 8.571c5.793 1.402 11.68-2.191 13.081-7.983l4.166-17.216c1.402-5.793-2.191-11.68-7.984-13.081" fill="url(#cb)"/></g><g clip-path="url(#cc)" opacity=".1"><path d="M929.864 1138.797l-10.018-2.425c-5.793-1.402-11.679 2.191-13.081 7.984-1.402 5.793 2.191 11.68 7.984 13.082l10.017 2.424c5.793 1.401 11.68-2.191 13.082-7.984 1.402-5.793-2.191-11.68-7.984-13.081" fill="url(#cd)"/></g><g clip-path="url(#ce)" opacity=".1"><path d="M1006.074 899.167l-8.459-2.047a5.985 5.985 0 10-2.816 11.634l8.459 2.047a5.985 5.985 0 007.225-4.41 5.983 5.983 0 00-4.409-7.224" fill="url(#cf)"/></g></g></svg>