<svg xmlns="http://www.w3.org/2000/svg" height="291.358" width="273.152"><defs><linearGradient id="w" spreadMethod="pad" gradientTransform="matrix(-17.62204 37.3917 28.98374 10.80426 98.289 139.615)" gradientUnits="userSpaceOnUse" y2="0" x2="1" y1="0" x1="0"><stop offset="0" stop-color="#f09a6f"/><stop offset="1" stop-color="#d62c69"/></linearGradient><linearGradient id="v" spreadMethod="pad" gradientTransform="scale(80.90768 -80.90768) rotate(13.889 9.357 1.125)" gradientUnits="userSpaceOnUse" y2="0" x2="1" y1="0" x1="0"><stop offset="0" stop-color="#f09a6f"/><stop offset="1" stop-color="#d62c69"/></linearGradient><linearGradient id="d" spreadMethod="pad" gradientTransform="scale(356.02114 -356.02114) rotate(45.72 .69 -.067)" gradientUnits="userSpaceOnUse" y2="0" x2="1" y1="0" x1="0"><stop offset="0" stop-color="#e7fff8"/><stop offset="1" stop-color="#2ed0ff"/></linearGradient><linearGradient id="g" spreadMethod="pad" gradientTransform="scale(219.97128 -219.97128) rotate(88.076 .56 -.032)" gradientUnits="userSpaceOnUse" y2="0" x2="1" y1="0" x1="0"><stop offset="0" stop-color="#a8f3f8"/><stop offset="1" stop-color="#6ab2ff"/></linearGradient><linearGradient id="i" spreadMethod="pad" gradientTransform="scale(120.88428 -120.88428) rotate(86.309 1.587 .18)" gradientUnits="userSpaceOnUse" y2="0" x2="1" y1="0" x1="0"><stop offset="0" stop-color="#a8f3f8"/><stop offset="1" stop-color="#6ab2ff"/></linearGradient><linearGradient id="k" spreadMethod="pad" gradientTransform="scale(-97.39148 97.39148) rotate(67.479 -2.138 -.57)" gradientUnits="userSpaceOnUse" y2="0" x2="1" y1="0" x1="0"><stop offset="0" stop-color="#a8f3f8"/><stop offset="1" stop-color="#6ab2ff"/></linearGradient><linearGradient id="c" spreadMethod="pad" gradientTransform="scale(318.64148 -318.64148) rotate(-12.15 -.952 -.261)" gradientUnits="userSpaceOnUse" y2="0" x2="1" y1="0" x1="0"><stop offset="0" stop-color="#e7fff8"/><stop offset=".586" stop-color="#7be3fc"/><stop offset="1" stop-color="#2ed0ff"/></linearGradient><linearGradient id="p" spreadMethod="pad" gradientTransform="scale(169.47454 -169.47454) rotate(32.541 1.65 .754)" gradientUnits="userSpaceOnUse" y2="0" x2="1" y1="0" x1="0"><stop offset="0" stop-color="#f05f6f"/><stop offset="1" stop-color="#9f2c69"/></linearGradient><linearGradient id="r" spreadMethod="pad" gradientTransform="matrix(87.87959 -64.88863 -52.03995 -95.37358 204.175 168.984)" gradientUnits="userSpaceOnUse" y2="0" x2="1" y1="0" x1="0"><stop offset="0" stop-color="#f05f6f"/><stop offset="1" stop-color="#9f2c69"/></linearGradient><linearGradient id="s" spreadMethod="pad" gradientTransform="scale(182.71837 -182.71837) rotate(1.421 18.617 9.872)" gradientUnits="userSpaceOnUse" y2="0" x2="1" y1="0" x1="0"><stop offset="0" stop-color="#f09a6f"/><stop offset="1" stop-color="#d62c69"/></linearGradient><linearGradient id="t" spreadMethod="pad" gradientTransform="scale(105.99025 -105.99025) rotate(13.889 7.465 .367)" gradientUnits="userSpaceOnUse" y2="0" x2="1" y1="0" x1="0"><stop offset="0" stop-color="#f09a6f"/><stop offset="1" stop-color="#d62c69"/></linearGradient><linearGradient id="m" spreadMethod="pad" gradientTransform="scale(-109.33753 109.33753) rotate(67.479 -.743 -.2)" gradientUnits="userSpaceOnUse" y2="0" x2="1" y1="0" x1="0"><stop offset="0" stop-color="#a8f3f8"/><stop offset="1" stop-color="#6ab2ff"/></linearGradient><clipPath id="n" clipPathUnits="userSpaceOnUse"><path d="M0 327.047h1176.441V0H0z"/></clipPath><clipPath id="e" clipPathUnits="userSpaceOnUse"><path d="M154.052 208.257c-25.779-22.241 17.117-89.19-71.172-85.135-41.35 1.898-72.251-23.336-75.226-43.694-4.867-33.315 32.631-58.56 92.794-57.209 80.181 1.802 99.551 34.686 82.433 61.263-17.117 26.576-5.254 48.933 22.072 87.838 19.265 27.428-4.068 44.915-27.118 44.913-8.749-.001-17.462-2.522-23.783-7.976"/></clipPath><clipPath id="o" clipPathUnits="userSpaceOnUse"><path d="M89.324 145.607h15.285v-10.624H89.324z"/></clipPath><clipPath id="h" clipPathUnits="userSpaceOnUse"><path d="M162.951 214.81h75.878v-128h-75.878z"/></clipPath><clipPath id="q" clipPathUnits="userSpaceOnUse"><path d="M189.862 179.656h9.336v-7.099h-9.336z"/></clipPath><clipPath id="a" clipPathUnits="userSpaceOnUse"><path d="M0 327.047h1176.441V0H0z"/></clipPath><clipPath id="j" clipPathUnits="userSpaceOnUse"><path d="M112.877 313.272h80.22V180.21h-80.22z"/></clipPath><clipPath id="f" clipPathUnits="userSpaceOnUse"><path d="M12.684 52.1H218.44V0H12.684z"/></clipPath><clipPath id="u" clipPathUnits="userSpaceOnUse"><path d="M0 327.047h1176.441V0H0z"/></clipPath><clipPath id="b" clipPathUnits="userSpaceOnUse"><path d="M65.43 184.186h144.433V16.276H65.43z"/></clipPath><clipPath id="l" clipPathUnits="userSpaceOnUse"><path d="M0 234.831h74.562V87.143H0z"/></clipPath></defs><g clip-path="url(#a)" transform="matrix(1.33333 0 0 -1.33333 -9.641 313.06)"><g clip-path="url(#b)" opacity=".2"><path d="M209.863 184.069s-37.943-63.064-17.726-90.892c30.612-42.139-1.334-82.038-98.746-76.359-97.412 5.678 88.788 172.402 116.472 167.251" fill="url(#c)"/></g></g><path d="M154.052 208.257c-25.779-22.241 17.117-89.19-71.172-85.135-41.35 1.898-72.251-23.336-75.226-43.694-4.867-33.315 32.631-58.56 92.794-57.209 80.181 1.802 99.551 34.686 82.433 61.263-17.117 26.576-5.254 48.933 22.072 87.838 19.265 27.428-4.068 44.915-27.118 44.913-8.749-.001-17.462-2.522-23.783-7.976" fill="url(#d)" transform="matrix(1.33333 0 0 -1.33333 -9.641 313.06)"/><g clip-path="url(#e)" transform="matrix(1.33333 0 0 -1.33333 -9.641 313.06)"><g clip-path="url(#f)" opacity=".43"><path d="M12.988 22.168c3.567 18.806-3.08 32.478 134.703 29.532 154.482-3.304 11.704-53.284-14.463-50.227C107.06 4.531 6.454-12.285 12.988 22.168" fill="url(#g)" fill-rule="evenodd"/></g><g clip-path="url(#h)" opacity=".34"><path d="M199.179 210.805s-62.087-48.248-23.702-110.579c38.385-62.332 63.352 112.764 63.352 112.764s-31.538 5.3-39.65-2.185" fill="url(#i)"/></g><g clip-path="url(#j)" opacity=".65"><path d="M121.364 285.778S86.107 180.21 159.31 180.21c81.107 0-9.292 133.062-9.292 133.062s-27.377-16.53-28.654-27.494" fill="url(#k)"/></g><g clip-path="url(#l)" opacity=".65"><path d="M6.348 207.338s-29.844-95.89 39.888-118.16c69.733-22.271-11.235 145.654-11.235 145.654s-27.376-16.53-28.653-27.494" fill="url(#m)"/></g></g><g clip-path="url(#n)" transform="matrix(1.33333 0 0 -1.33333 -9.641 313.06)"><g clip-path="url(#o)" opacity=".08"><path d="M101.115 136.598l-6.148-1.487a4.582 4.582 0 00-5.515 3.366 4.582 4.582 0 003.366 5.515l6.148 1.487a4.583 4.583 0 005.515-3.365 4.583 4.583 0 00-3.366-5.516" fill="url(#p)"/></g><g clip-path="url(#q)" opacity=".05"><path d="M196.757 173.36l-2.952-.714a3.203 3.203 0 00-3.854 2.352 3.202 3.202 0 002.352 3.854l2.952.714a3.202 3.202 0 003.854-2.351 3.203 3.203 0 00-2.352-3.855" fill="url(#r)"/></g></g><path d="M139.832 134.804c-16.635-6.169-27.053-21.8-27.446-38.544-12.464 10.539-26.662 18.482-44.39 11.909-21.769-8.072-32.914-32.349-24.842-54.12 8.071-21.768 32.349-32.912 54.118-24.841 5.731 2.125 15.775 7.345 22.221 19.112l10.662-4.894-8.364 22.56-22.561-8.364 9.865-4.529c-4.708-8.061-11.728-11.695-15.785-13.199-15.877-5.887-33.583 2.241-39.47 18.118-5.887 15.877 2.241 33.584 18.118 39.471 16.594 6.152 29.198-5.849 43.791-19.745 14.62-13.92 31.172-29.663 52.994-22.011.121.036.245.07.366.115.051.02.102.043.153.062.048.018.095.031.144.049.101.037.196.084.293.126 21.375 8.291 32.249 32.314 24.252 53.883-6.288 16.959-22.413 27.47-39.525 27.47-4.853 0-9.784-.845-14.594-2.628m-13.921-51a5.89 5.89 0 01-.234.844c-5.888 15.877 2.24 33.582 18.118 39.469 15.877 5.887 33.583-2.24 39.469-18.119 5.867-15.823-2.188-33.46-17.961-39.406-2.732-.996-5.362-1.451-7.92-1.451-11.082 0-20.796 8.544-31.472 18.663" fill="url(#s)" transform="matrix(1.33333 0 0 -1.33333 -9.641 313.06)"/><path d="M91.581 231.05l-2.318-9.376c-26.475 3.592-51.95-13.276-58.509-39.802-7.026-28.413 10.312-57.142 38.724-64.167 28.413-7.027 57.141 10.311 64.167 38.723 6.56 26.527-8.118 53.325-33.216 62.485l2.319 9.375c.65 2.631-.971 5.319-3.602 5.969l-1.596.395a4.908 4.908 0 01-1.177.143c-2.213 0-4.238-1.507-4.792-3.745" fill="url(#t)" transform="matrix(1.33333 0 0 -1.33333 -9.641 313.06)"/><g clip-path="url(#u)" transform="matrix(1.33333 0 0 -1.33333 -9.641 313.06)"><path d="M125.336 158.966c-5.746-23.236-29.241-37.416-52.478-31.67-23.236 5.746-37.416 29.24-31.67 52.478 5.746 23.236 29.24 37.416 52.478 31.67 23.236-5.747 37.416-29.242 31.67-52.478" fill="#fff7f1"/></g><path d="M76.643 209.288a40.441 40.441 0 01-4.671-1.065 1.642 1.642 0 01-1.117-2.037 1.638 1.638 0 012.038-1.117c1.406.409 2.849.738 4.288.977a1.644 1.644 0 01-.268 3.264c-.089 0-.179-.007-.27-.022m32.286-10.751a1.643 1.643 0 01.048-2.323 37.32 37.32 0 002.991-3.232 1.63 1.63 0 01.875-.552 1.643 1.643 0 011.665 2.637 40.728 40.728 0 01-3.255 3.518 1.645 1.645 0 01-2.324-.048M45.394 183.61a40.865 40.865 0 01-1.403-4.53l-.011-.044a1.643 1.643 0 011.201-1.989 1.642 1.642 0 011.989 1.2l.012.044a37.614 37.614 0 001.289 4.167 1.642 1.642 0 01-.963 2.115 1.643 1.643 0 01-2.114-.963m73.97-23.074l-.021-.089a37.86 37.86 0 00-1.305-4.206c-.32-.849.11-1.797.959-2.116a1.645 1.645 0 012.117.959 40.935 40.935 0 011.419 4.575l.022.088a1.645 1.645 0 01-1.201 1.99 1.646 1.646 0 01-1.99-1.201m-67.15-14.515a1.644 1.644 0 01-.229-2.313 40.72 40.72 0 013.251-3.52 1.64 1.64 0 012.323.044c.63.654.61 1.693-.044 2.323a37.372 37.372 0 00-2.988 3.237 1.643 1.643 0 01-1.272.602c-.366 0-.735-.122-1.041-.373m41.375-12.361a37.238 37.238 0 00-4.289-.974 1.643 1.643 0 01-1.355-1.888 1.647 1.647 0 011.228-1.329c.21-.053.435-.063.661-.026 1.568.259 3.141.615 4.671 1.06a1.645 1.645 0 01-.457 3.222c-.152 0-.306-.021-.459-.065" fill="url(#v)" transform="matrix(1.33333 0 0 -1.33333 -9.641 313.06)"/><path d="M81.895 167.427l14.521-20.62c.32-.496.867-.709 1.24-.484.374.226.44.81.15 1.323L86.273 169.73c-.593.984-1.467 1.393-2.307 1.393-1.708 0-3.279-1.695-2.071-3.696" fill="url(#w)" transform="matrix(1.33333 0 0 -1.33333 -9.641 313.06)"/></svg>