<svg xmlns="http://www.w3.org/2000/svg" height="258.786" width="284.739"><defs><linearGradient id="s" spreadMethod="pad" gradientTransform="scale(169.5705 -169.5705) rotate(58.663 4.16 4.368)" gradientUnits="userSpaceOnUse" y2="0" x2="1" y1="0" x1="0"><stop offset="0" stop-color="#f09a6f"/><stop offset="1" stop-color="#d62c69"/></linearGradient><linearGradient id="C" spreadMethod="pad" gradientTransform="scale(155.33208 -155.33208) rotate(35.925 4.438 9.513)" gradientUnits="userSpaceOnUse" y2="0" x2="1" y1="0" x1="0"><stop offset="0" stop-color="#f09a6f"/><stop offset="1" stop-color="#d62c69"/></linearGradient><linearGradient id="d" spreadMethod="pad" gradientTransform="scale(356.02114 -356.02114) rotate(45.72 2.037 3.043)" gradientUnits="userSpaceOnUse" y2="0" x2="1" y1="0" x1="0"><stop offset="0" stop-color="#e7fff8"/><stop offset="1" stop-color="#2ed0ff"/></linearGradient><linearGradient id="g" spreadMethod="pad" gradientTransform="scale(219.97128 -219.97128) rotate(88.076 2.714 2.15)" gradientUnits="userSpaceOnUse" y2="0" x2="1" y1="0" x1="0"><stop offset="0" stop-color="#a8f3f8"/><stop offset="1" stop-color="#6ab2ff"/></linearGradient><linearGradient id="i" spreadMethod="pad" gradientTransform="scale(120.88428 -120.88428) rotate(86.309 5.506 4.278)" gradientUnits="userSpaceOnUse" y2="0" x2="1" y1="0" x1="0"><stop offset="0" stop-color="#a8f3f8"/><stop offset="1" stop-color="#6ab2ff"/></linearGradient><linearGradient id="k" spreadMethod="pad" gradientTransform="scale(-97.39148 97.39148) rotate(67.479 -7.023 -7.728)" gradientUnits="userSpaceOnUse" y2="0" x2="1" y1="0" x1="0"><stop offset="0" stop-color="#a8f3f8"/><stop offset="1" stop-color="#6ab2ff"/></linearGradient><linearGradient id="m" spreadMethod="pad" gradientTransform="scale(-109.33753 109.33753) rotate(67.479 -5.094 -6.577)" gradientUnits="userSpaceOnUse" y2="0" x2="1" y1="0" x1="0"><stop offset="0" stop-color="#a8f3f8"/><stop offset="1" stop-color="#6ab2ff"/></linearGradient><linearGradient id="p" spreadMethod="pad" gradientTransform="scale(169.47454 -169.47454) rotate(32.541 4.51 10.205)" gradientUnits="userSpaceOnUse" y2="0" x2="1" y1="0" x1="0"><stop offset="0" stop-color="#f05f6f"/><stop offset="1" stop-color="#9f2c69"/></linearGradient><linearGradient id="r" spreadMethod="pad" gradientTransform="matrix(87.8796 -64.88863 -52.03996 -95.37359 1141.787 178.253)" gradientUnits="userSpaceOnUse" y2="0" x2="1" y1="0" x1="0"><stop offset="0" stop-color="#f05f6f"/><stop offset="1" stop-color="#9f2c69"/></linearGradient><linearGradient id="c" spreadMethod="pad" gradientTransform="scale(318.64148 -318.64148) rotate(-12.15 .383 -14.1)" gradientUnits="userSpaceOnUse" y2="0" x2="1" y1="0" x1="0"><stop offset="0" stop-color="#e7fff8"/><stop offset=".586" stop-color="#7be3fc"/><stop offset="1" stop-color="#2ed0ff"/></linearGradient><linearGradient id="u" spreadMethod="pad" gradientTransform="scale(10.91358 -10.91358) rotate(87.594 54.418 40.876)" gradientUnits="userSpaceOnUse" y2="0" x2="1" y1="0" x1="0"><stop offset="0" stop-color="#a8f3f8"/><stop offset="1" stop-color="#6ab2ff"/></linearGradient><linearGradient id="v" spreadMethod="pad" gradientTransform="matrix(0 -33.0411 -33.0411 0 1014.527 177.88)" gradientUnits="userSpaceOnUse" y2="0" x2="1" y1="0" x1="0"><stop offset="0" stop-color="#f09a6f"/><stop offset="1" stop-color="#d62c69"/></linearGradient><linearGradient id="w" spreadMethod="pad" gradientTransform="scale(-83.02289 83.02289) rotate(-39.862 -2.537 18.554)" gradientUnits="userSpaceOnUse" y2="0" x2="1" y1="0" x1="0"><stop offset="0" stop-color="#a8f3f8"/><stop offset="1" stop-color="#6ab2ff"/></linearGradient><linearGradient id="x" spreadMethod="pad" gradientTransform="scale(41.67816 -41.67816) rotate(87.594 14.797 10.178)" gradientUnits="userSpaceOnUse" y2="0" x2="1" y1="0" x1="0"><stop offset="0" stop-color="#ff826a"/><stop offset="1" stop-color="#ffcbaa"/></linearGradient><linearGradient id="y" spreadMethod="pad" gradientTransform="scale(85.3883 -85.3883) rotate(12.633 12.603 50.643)" gradientUnits="userSpaceOnUse" y2="0" x2="1" y1="0" x1="0"><stop offset="0" stop-color="#f09a6f"/><stop offset="1" stop-color="#d62c69"/></linearGradient><linearGradient id="z" spreadMethod="pad" gradientTransform="scale(144.53553 -144.53553) rotate(1.021 52.932 371.985)" gradientUnits="userSpaceOnUse" y2="0" x2="1" y1="0" x1="0"><stop offset="0" stop-color="#ff826a"/><stop offset="1" stop-color="#ffcbaa"/></linearGradient><linearGradient id="A" spreadMethod="pad" gradientTransform="scale(144.53553 -144.53553) rotate(1.021 50.33 371.962)" gradientUnits="userSpaceOnUse" y2="0" x2="1" y1="0" x1="0"><stop offset="0" stop-color="#ff826a"/><stop offset="1" stop-color="#ffcbaa"/></linearGradient><linearGradient id="B" spreadMethod="pad" gradientTransform="scale(-201.81565 201.81565) rotate(-39.862 -1.959 7.927)" gradientUnits="userSpaceOnUse" y2="0" x2="1" y1="0" x1="0"><stop offset="0" stop-color="#f09a6f"/><stop offset="1" stop-color="#d62c69"/></linearGradient><linearGradient id="t" spreadMethod="pad" gradientTransform="scale(-77.17002 77.17002) rotate(-42.455 -3.806 19.003)" gradientUnits="userSpaceOnUse" y2="0" x2="1" y1="0" x1="0"><stop offset="0" stop-color="#fff"/><stop offset=".784" stop-color="#ffedc2"/><stop offset="1" stop-color="#ffe8b1"/></linearGradient><clipPath id="f" clipPathUnits="userSpaceOnUse"><path d="M950.295 61.369h205.755v-52.1H950.295z"/></clipPath><clipPath id="e" clipPathUnits="userSpaceOnUse"><path d="M1091.664 217.526c-25.78-22.24 17.117-89.19-71.172-85.136-41.351 1.9-72.251-23.335-75.226-43.694-4.868-33.314 32.631-58.559 92.793-57.207 80.182 1.802 99.551 34.684 82.434 61.261-17.117 26.578-5.254 48.933 22.072 87.839 19.265 27.427-4.069 44.914-27.119 44.912-8.749-.001-17.461-2.521-23.782-7.975"/></clipPath><clipPath id="l" clipPathUnits="userSpaceOnUse"><path d="M937.612 244.1h74.558V96.412h-74.558z"/></clipPath><clipPath id="a" clipPathUnits="userSpaceOnUse"><path d="M0 327.047h1176.441V0H0z"/></clipPath><clipPath id="n" clipPathUnits="userSpaceOnUse"><path d="M0 327.047h1176.441V0H0z"/></clipPath><clipPath id="o" clipPathUnits="userSpaceOnUse"><path d="M1026.94 154.876h15.28v-10.624h-15.28z"/></clipPath><clipPath id="h" clipPathUnits="userSpaceOnUse"><path d="M1100.56 224.079h75.88v-128h-75.88z"/></clipPath><clipPath id="q" clipPathUnits="userSpaceOnUse"><path d="M1127.47 188.925h9.34v-7.1h-9.34z"/></clipPath><clipPath id="j" clipPathUnits="userSpaceOnUse"><path d="M1050.49 322.541h80.22V189.479h-80.22z"/></clipPath><clipPath id="b" clipPathUnits="userSpaceOnUse"><path d="M1003.04 193.455h144.43V25.545h-144.43z"/></clipPath><clipPath id="D" clipPathUnits="userSpaceOnUse"><path d="M0 327.047h1176.441V0H0z"/></clipPath><clipPath id="E" clipPathUnits="userSpaceOnUse"><path d="M1040.11 94.294h3.77V47.22h-3.77z"/></clipPath><clipPath id="F" clipPathUnits="userSpaceOnUse"><path d="M1067.22 94.294h3.77V47.22h-3.77z"/></clipPath><clipPath id="G" clipPathUnits="userSpaceOnUse"><path d="M1092.08 94.294h3.77V47.22h-3.77z"/></clipPath><clipPath id="H" clipPathUnits="userSpaceOnUse"><path d="M1023.54 81.113h94.53v-3.766h-94.53z"/></clipPath><clipPath id="I" clipPathUnits="userSpaceOnUse"><path d="M1023.54 63.413h94.53v-3.766h-94.53z"/></clipPath><clipPath id="J" clipPathUnits="userSpaceOnUse"><path d="M1028.43 108.229h86.25V98.06h-86.25z"/></clipPath></defs><g clip-path="url(#a)" transform="matrix(1.33333 0 0 -1.33333 -1248.203 300.703)"><path d="M627.836 197.498a68.887 68.887 0 01-9.171 4.702l.94 2.234a71.485 71.485 0 009.495-4.87zm12.478-9.754a69.6 69.6 0 01-7.86 6.669l1.426 1.959a72.125 72.125 0 008.135-6.902zm9.937-12.332a69.13 69.13 0 01-6.141 8.279l1.833 1.583a71.66 71.66 0 006.356-8.567zm6.86-14.268a68.72 68.72 0 01-4.085 9.458l2.146 1.125a71.156 71.156 0 004.23-9.793zm3.407-15.463a68.794 68.794 0 01-1.807 10.145l2.348.603a71.353 71.353 0 001.869-10.504zm2.778-7.055h-2.423c0 .505-.006 1.009-.016 1.51l2.422.052c.01-.52.017-1.041.017-1.562M531.683 95.055c-.215.472-.426.948-.632 1.43l2.226.957c.199-.464.403-.927.612-1.384zm8.443-14.05a71.59 71.59 0 00-5.859 8.918l2.119 1.175a68.822 68.822 0 015.659-8.611zm11.441-11.74a71.357 71.357 0 00-7.749 7.335l1.793 1.629a68.659 68.659 0 017.485-7.082zm13.822-8.81a71.896 71.896 0 00-9.219 5.369l1.372 1.997a69.532 69.532 0 018.907-5.188zm15.461-5.443a72.068 72.068 0 00-10.196 3.137l.881 2.257a69.59 69.59 0 019.853-3.031zm15.83-1.782c-3.392 0-6.816.246-10.176.732l.346 2.398a68.971 68.971 0 019.83-.707l.454.002.012-2.423z" fill="#fff"/><g clip-path="url(#b)" opacity=".2"><path d="M1147.475 193.338s-37.943-63.065-17.727-90.893c30.613-42.138-1.333-82.036-98.745-76.358-97.412 5.678 88.788 172.401 116.472 167.251" fill="url(#c)"/></g></g><path d="M1091.664 217.526c-25.78-22.24 17.117-89.19-71.172-85.136-41.351 1.9-72.251-23.335-75.226-43.694-4.868-33.314 32.631-58.559 92.793-57.207 80.182 1.802 99.551 34.684 82.434 61.261-17.117 26.578-5.254 48.933 22.072 87.839 19.265 27.427-4.069 44.914-27.119 44.912-8.749-.001-17.461-2.521-23.782-7.975" fill="url(#d)" transform="matrix(1.33333 0 0 -1.33333 -1248.203 300.703)"/><g clip-path="url(#e)" transform="matrix(1.33333 0 0 -1.33333 -1248.203 300.703)"><g clip-path="url(#f)" opacity=".43"><path d="M950.6 31.437c3.566 18.807-3.081 32.478 134.703 29.532 154.482-3.304 11.704-53.284-14.463-50.227C1044.672 13.8 944.065-3.016 950.6 31.437" fill="url(#g)" fill-rule="evenodd"/></g><g clip-path="url(#h)" opacity=".34"><path d="M1136.79 220.074s-62.086-48.247-23.701-110.579c38.385-62.332 63.351 112.764 63.351 112.764s-31.537 5.299-39.65-2.185" fill="url(#i)"/></g><g clip-path="url(#j)" opacity=".65"><path d="M1058.976 295.047s-35.257-105.569 37.946-105.569c81.107 0-9.293 133.063-9.293 133.063s-27.376-16.529-28.653-27.494" fill="url(#k)"/></g><g clip-path="url(#l)" opacity=".65"><path d="M943.96 216.606s-29.845-95.889 39.889-118.16c69.732-22.27-11.236 145.654-11.236 145.654s-27.377-16.53-28.653-27.494" fill="url(#m)"/></g></g><g clip-path="url(#n)" transform="matrix(1.33333 0 0 -1.33333 -1248.203 300.703)"><g clip-path="url(#o)" opacity=".08"><path d="M1038.727 145.868l-6.149-1.488a4.583 4.583 0 00-5.515 3.366 4.583 4.583 0 003.367 5.515l6.148 1.488a4.582 4.582 0 005.515-3.366 4.582 4.582 0 00-3.366-5.515" fill="url(#p)"/></g><g clip-path="url(#q)" opacity=".05"><path d="M1134.368 182.629l-2.951-.714a3.202 3.202 0 00-3.854 2.352 3.201 3.201 0 002.352 3.854l2.951.715a3.204 3.204 0 003.855-2.353 3.202 3.202 0 00-2.353-3.854" fill="url(#r)"/></g></g><path d="M975.261 134.065h80.448v80.447h-80.448z" fill="url(#s)" transform="matrix(1.33333 0 0 -1.33333 -1248.203 300.703)"/><path d="M1015.484 166.099c-.161.013-.315.038-.478.049v-.098c-24.63-2.386-33.041-31.985-33.041-31.985h67.04s-8.411 29.599-33.041 31.985v.098c-.164-.011-.318-.036-.48-.049" fill="url(#t)" transform="matrix(1.33333 0 0 -1.33333 -1248.203 300.703)"/><path d="M1002.571 162.073s3.815-7.897 12.913-6.938c9.099.957 11.574 7.664 11.574 7.664s-5.02 3.194-11.936 3.194c-3.786.001-8.14-.957-12.551-3.92" fill="url(#u)" transform="matrix(1.33333 0 0 -1.33333 -1248.203 300.703)"/><path d="M1005.429 162.796s3.831-5.746 10.535-4.788c6.704.957 7.661 5.267 7.661 5.267s-3.352 4.31-2.395 10.056l-12.45.958s-.956-8.141-3.351-11.493" fill="url(#v)" transform="matrix(1.33333 0 0 -1.33333 -1248.203 300.703)"/><path d="M1004.95 222.653c-8.141 0-4.789-10.056-4.789-10.056s-4.788-.479-5.268-9.577c-.478-9.098 5.268-11.013 5.268-11.013l31.15-.838c8.164 14.006-1.461 21.907-1.461 21.907 8.142 5.746 2.394 12.451 2.394 12.451-4.31-5.747-19.154-2.874-27.294-2.874" fill="url(#w)" transform="matrix(1.33333 0 0 -1.33333 -1248.203 300.703)"/><path d="M1002.506 209.174l.05.071c-.035-.018-.051-.042-.05-.071m-3.062-19.801c0-11.901 11.013-21.549 15.801-21.31 4.789.24 16.042 9.647 16.042 21.549 0 5.95.478 12.928-2.873 15.323-3.956 2.826-8.542 2.528-12.93 1.917-5.965-.833-12.945 1.748-12.978 2.322-2.697-3.919-3.062-14.074-3.062-19.801" fill="url(#x)" transform="matrix(1.33333 0 0 -1.33333 -1248.203 300.703)"/><path d="M975.261 107.727h80.448v26.338h-80.448z" fill="url(#y)" transform="matrix(1.33333 0 0 -1.33333 -1248.203 300.703)"/><path d="M981.965 124.967h52.673v3.831h-52.673z" fill="url(#z)" transform="matrix(1.33333 0 0 -1.33333 -1248.203 300.703)"/><path d="M981.965 118.263h52.673v3.831h-52.673z" fill="url(#A)" transform="matrix(1.33333 0 0 -1.33333 -1248.203 300.703)"/><path d="M1101.304 120.281a1.693 1.693 0 01-1.692-1.692v-6.594h-15.063v6.594c0 .934-.758 1.692-1.692 1.692h-3.019a1.691 1.691 0 01-1.691-1.692v-6.594h-17.7v6.594c0 .934-.758 1.692-1.692 1.692h-3.02a1.692 1.692 0 01-1.691-1.692v-6.594h-15.064v6.594c0 .934-.757 1.692-1.692 1.692h-3.02a1.692 1.692 0 01-1.691-1.692v-6.594h-9.038V47.219h94.527v64.776h-12.051v6.594c0 .934-.757 1.692-1.692 1.692z" fill="url(#B)" transform="matrix(1.33333 0 0 -1.33333 -1248.203 300.703)"/><path d="M1023.539 47.219h94.527v47.075h-94.527z" fill="url(#C)" transform="matrix(1.33333 0 0 -1.33333 -1248.203 300.703)"/><g clip-path="url(#D)" transform="matrix(1.33333 0 0 -1.33333 -1248.203 300.703)"><g clip-path="url(#E)" opacity=".2"><path d="M1043.875 47.22h-3.766v47.075h3.766z" fill="#fff"/></g><g clip-path="url(#F)" opacity=".2"><path d="M1070.991 47.22h-3.767v47.075h3.767z" fill="#fff"/></g><g clip-path="url(#G)" opacity=".2"><path d="M1095.847 47.22h-3.767v47.075h3.767z" fill="#fff"/></g><g clip-path="url(#H)" opacity=".2"><path d="M1023.539 81.113h94.527v-3.766h-94.527z" fill="#fff"/></g><g clip-path="url(#I)" opacity=".2"><path d="M1023.539 63.413h94.527v-3.766h-94.527z" fill="#fff"/></g><g clip-path="url(#J)" opacity=".6"><path d="M1109.593 98.06h-76.074a5.084 5.084 0 100 10.168h76.074a5.084 5.084 0 100-10.168" fill="#fff"/></g><path d="M1072.65 178.83a69.086 69.086 0 01-9.172 4.703l.941 2.233a71.415 71.415 0 009.494-4.87zm12.478-9.754a69.594 69.594 0 01-7.86 6.669l1.425 1.959a71.933 71.933 0 008.135-6.902zm9.938-12.332a69.266 69.266 0 01-6.14 8.279l1.831 1.584a71.713 71.713 0 006.356-8.567zm6.861-14.268a68.854 68.854 0 01-4.086 9.459l2.145 1.124a70.982 70.982 0 004.231-9.793zm3.404-15.463a68.9 68.9 0 01-1.806 10.145l2.347.603a71.232 71.232 0 001.87-10.503zm2.78-7.055h-2.424c0 .506-.005 1.01-.016 1.512l2.422.052c.012-.52.017-1.041.017-1.564m-171.57 11.258a89.568 89.568 0 00-.388 1.896l2.945.572c.12-.614.244-1.227.376-1.835zm6.516-19.221a88.494 88.494 0 00-4.742 12.33l2.873.865a85.387 85.387 0 014.58-11.911zm10.75-17.217a88.22 88.22 0 00-7.445 10.913l2.598 1.499a85.076 85.076 0 017.19-10.54zm14.4-14.301a88.957 88.957 0 00-9.739 8.923l2.185 2.054a86.307 86.307 0 019.41-8.621zm17.273-10.658a89.187 89.187 0 00-11.51 6.48l1.661 2.498a86.114 86.114 0 0111.123-6.261zm18.683-6.326a88.432 88.432 0 00-12.119 3.566l1.051 2.809a85.399 85.399 0 0111.707-3.444l.549-.117-.623-2.935z" fill="#fff"/></g></svg>