<svg xmlns="http://www.w3.org/2000/svg" width="273.152" height="278.591"><defs><clipPath clipPathUnits="userSpaceOnUse" id="a"><path d="M0 327.047h1176.441V0H0z"/></clipPath><clipPath clipPathUnits="userSpaceOnUse" id="G"><path d="M630.373 127.942c-5.424 0-9.862-4.438-9.862-9.861V30.926c0-5.425 4.438-9.862 9.862-9.862h43.736c5.424 0 9.861 4.437 9.861 9.862v87.155c0 5.423-4.437 9.861-9.861 9.861z"/></clipPath><clipPath clipPathUnits="userSpaceOnUse" id="e"><path d="M645.563 222.033c-25.78-22.241 17.117-89.19-71.172-85.137-41.352 1.899-72.252-23.336-75.227-43.693-4.867-33.314 32.631-58.559 92.794-57.208 80.181 1.801 99.551 34.685 82.434 61.262-17.118 26.577-5.256 48.933 22.072 87.839 19.264 27.427-4.07 44.913-27.119 44.911-8.75 0-17.461-2.521-23.782-7.974"/></clipPath><clipPath clipPathUnits="userSpaceOnUse" id="g"><path d="M645.563 222.033c-25.78-22.241 17.117-89.19-71.172-85.137-41.352 1.899-72.252-23.336-75.227-43.693-4.867-33.314 32.631-58.559 92.794-57.208 80.181 1.801 99.551 34.685 82.434 61.262-17.118 26.577-5.256 48.933 22.072 87.839 19.264 27.427-4.07 44.913-27.119 44.911-8.75 0-17.461-2.521-23.782-7.974"/></clipPath><clipPath clipPathUnits="userSpaceOnUse" id="h"><path d="M504.194 65.875H709.95v-52.1H504.194z"/></clipPath><clipPath clipPathUnits="userSpaceOnUse" id="i"><path d="M504.498 35.943c3.567 18.807-3.081 32.479 134.703 29.531 154.483-3.303 11.704-53.283-14.463-50.225-26.168 3.056-126.774-13.759-120.24 20.694" clip-rule="evenodd"/></clipPath><clipPath clipPathUnits="userSpaceOnUse" id="k"><path d="M654.461 228.585h75.878v-128h-75.878z"/></clipPath><clipPath clipPathUnits="userSpaceOnUse" id="l"><path d="M690.688 224.58s-62.086-48.247-23.702-110.579c38.385-62.332 63.353 112.763 63.353 112.763s-31.537 5.3-39.651-2.184"/></clipPath><clipPath clipPathUnits="userSpaceOnUse" id="n"><path d="M604.387 327.047h80.22V193.985h-80.22z"/></clipPath><clipPath clipPathUnits="userSpaceOnUse" id="o"><path d="M612.874 299.554s-35.257-105.569 37.946-105.569c81.107 0-9.293 133.063-9.293 133.063s-27.376-16.531-28.653-27.494"/></clipPath><clipPath clipPathUnits="userSpaceOnUse" id="q"><path d="M491.51 248.606h74.562V100.918H491.51z"/></clipPath><clipPath clipPathUnits="userSpaceOnUse" id="r"><path d="M497.858 221.112s-29.844-95.89 39.889-118.16c69.732-22.271-11.236 145.654-11.236 145.654s-27.376-16.529-28.653-27.494"/></clipPath><clipPath clipPathUnits="userSpaceOnUse" id="t"><path d="M0 327.047h1176.441V0H0z"/></clipPath><clipPath clipPathUnits="userSpaceOnUse" id="u"><path d="M580.834 159.382h15.285v-10.624h-15.285z"/></clipPath><clipPath clipPathUnits="userSpaceOnUse" id="c"><path d="M701.372 197.844s-37.942-63.064-17.726-90.892c30.614-42.139-1.333-82.037-98.745-76.359-97.412 5.678 88.787 172.401 116.471 167.251"/></clipPath><clipPath clipPathUnits="userSpaceOnUse" id="b"><path d="M556.94 197.961h144.432V30.051H556.94z"/></clipPath><clipPath clipPathUnits="userSpaceOnUse" id="x"><path d="M681.372 193.431h9.336v-7.099h-9.336z"/></clipPath><clipPath clipPathUnits="userSpaceOnUse" id="y"><path d="M688.267 187.136l-2.952-.715a3.202 3.202 0 00-3.854 2.352 3.201 3.201 0 002.352 3.854l2.952.715a3.202 3.202 0 003.854-2.353 3.2 3.2 0 00-2.352-3.853"/></clipPath><clipPath clipPathUnits="userSpaceOnUse" id="A"><path d="M509.171 168.129c0-30.662 24.858-55.52 55.52-55.52 30.663 0 55.521 24.858 55.521 55.52 0 30.663-24.858 55.52-55.521 55.52-30.662 0-55.52-24.857-55.52-55.52"/></clipPath><clipPath clipPathUnits="userSpaceOnUse" id="C"><path d="M509.171 168.129c0-30.662 24.858-55.52 55.52-55.52 30.663 0 55.521 24.858 55.521 55.52 0 30.663-24.858 55.52-55.521 55.52-30.662 0-55.52-24.857-55.52-55.52"/></clipPath><clipPath clipPathUnits="userSpaceOnUse" id="D"><path d="M542.657 236.315H654.16V120.95H542.657z"/></clipPath><clipPath clipPathUnits="userSpaceOnUse" id="E"><path d="M542.657 221.073s69.453-11.266 51.312-100.123c0 0 82.599 25.4 54.276 66.275-28.323 40.876-75.675 67.374-105.588 33.848"/></clipPath><clipPath clipPathUnits="userSpaceOnUse" id="v"><path d="M592.625 150.374l-6.148-1.488a4.582 4.582 0 00-5.515 3.366 4.58 4.58 0 003.366 5.514l6.149 1.489a4.582 4.582 0 005.514-3.367 4.581 4.581 0 00-3.366-5.514"/></clipPath><clipPath clipPathUnits="userSpaceOnUse" id="I"><path d="M635.17 120.912a8.084 8.084 0 01-8.082-8.084V44.026h50.308v68.802a8.085 8.085 0 01-8.085 8.084z"/></clipPath><clipPath clipPathUnits="userSpaceOnUse" id="K"><path d="M640.52 92.248V72.863c0-3.063 3.407-4.895 5.963-3.207l15.605 10.305c2.379 1.573 2.28 5.097-.186 6.532l-15.604 9.078a3.815 3.815 0 01-1.928.527c-2.007 0-3.85-1.605-3.85-3.85"/></clipPath><clipPath clipPathUnits="userSpaceOnUse" id="M"><path d="M645.979 31.919a6.263 6.263 0 0112.525 0 6.263 6.263 0 11-12.525 0"/></clipPath><clipPath clipPathUnits="userSpaceOnUse" id="O"><path d="M0 327.047h1176.441V0H0z"/></clipPath><clipPath clipPathUnits="userSpaceOnUse" id="P"><path d="M1003.04 193.455h144.43V25.545h-144.43z"/></clipPath><clipPath clipPathUnits="userSpaceOnUse" id="Q"><path d="M1147.475 193.338s-37.943-63.065-17.727-90.893c30.613-42.138-1.333-82.036-98.745-76.358-97.412 5.678 88.788 172.401 116.472 167.251"/></clipPath><linearGradient x1="0" y1="0" x2="1" y2="0" gradientUnits="userSpaceOnUse" gradientTransform="scale(219.97128 -219.97128) rotate(88.076 1.71 1.092)" spreadMethod="pad" id="j"><stop offset="0" stop-color="#a8f3f8"/><stop offset="1" stop-color="#6ab2ff"/></linearGradient><linearGradient x1="0" y1="0" x2="1" y2="0" gradientUnits="userSpaceOnUse" gradientTransform="scale(318.64148 -318.64148) rotate(-12.15 .383 -14.1)" spreadMethod="pad" id="R"><stop offset="0" stop-color="#e7fff8"/><stop offset=".586" stop-color="#7be3fc"/><stop offset="1" stop-color="#2ed0ff"/></linearGradient><linearGradient x1="0" y1="0" x2="1" y2="0" gradientUnits="userSpaceOnUse" gradientTransform="scale(145.95556 -145.95556) rotate(21.765 5.393 8.907)" spreadMethod="pad" id="F"><stop offset="0" stop-color="#ff002a"/><stop offset="1" stop-color="#940035"/></linearGradient><linearGradient x1="0" y1="0" x2="1" y2="0" gradientUnits="userSpaceOnUse" gradientTransform="scale(-97.39148 97.39148) rotate(67.479 -4.767 -4.276)" spreadMethod="pad" id="p"><stop offset="0" stop-color="#a8f3f8"/><stop offset="1" stop-color="#6ab2ff"/></linearGradient><linearGradient x1="0" y1="0" x2="1" y2="0" gradientUnits="userSpaceOnUse" gradientTransform="scale(108.9605 -108.9605) rotate(21.765 4.97 14.19)" spreadMethod="pad" id="H"><stop offset="0" stop-color="#f09a6f"/><stop offset="1" stop-color="#d62c69"/></linearGradient><linearGradient x1="0" y1="0" x2="1" y2="0" gradientUnits="userSpaceOnUse" gradientTransform="scale(318.64148 -318.64148) rotate(-12.15 -.384 -7.53)" spreadMethod="pad" id="d"><stop offset="0" stop-color="#e7fff8"/><stop offset=".586" stop-color="#7be3fc"/><stop offset="1" stop-color="#2ed0ff"/></linearGradient><linearGradient x1="0" y1="0" x2="1" y2="0" gradientUnits="userSpaceOnUse" gradientTransform="scale(180.507 -180.507) rotate(61.594 2.345 2.527)" spreadMethod="pad" id="J"><stop offset="0" stop-color="#fff"/><stop offset="1" stop-color="#ffe8b1"/></linearGradient><linearGradient x1="0" y1="0" x2="1" y2="0" gradientUnits="userSpaceOnUse" gradientTransform="scale(356.02114 -356.02114) rotate(45.72 1.425 1.55)" spreadMethod="pad" id="f"><stop offset="0" stop-color="#e7fff8"/><stop offset="1" stop-color="#2ed0ff"/></linearGradient><linearGradient x1="0" y1="0" x2="1" y2="0" gradientUnits="userSpaceOnUse" gradientTransform="scale(-29.99407 29.99407) rotate(66.765 -12.767 -15.317)" spreadMethod="pad" id="L"><stop offset="0" stop-color="#f09a6f"/><stop offset="1" stop-color="#d62c69"/></linearGradient><linearGradient x1="0" y1="0" x2="1" y2="0" gradientUnits="userSpaceOnUse" gradientTransform="matrix(87.87959 -64.88863 -52.03995 -95.37358 695.685 182.76)" spreadMethod="pad" id="z"><stop offset="0" stop-color="#f05f6f"/><stop offset="1" stop-color="#9f2c69"/></linearGradient><linearGradient x1="0" y1="0" x2="1" y2="0" gradientUnits="userSpaceOnUse" gradientTransform="scale(25.49608 -25.49608) rotate(61.594 14.007 20.555)" spreadMethod="pad" id="N"><stop offset="0" stop-color="#fff"/><stop offset="1" stop-color="#ffe8b1"/></linearGradient><linearGradient x1="0" y1="0" x2="1" y2="0" gradientUnits="userSpaceOnUse" gradientTransform="scale(-109.33753 109.33753) rotate(67.479 -3.085 -3.502)" spreadMethod="pad" id="s"><stop offset="0" stop-color="#a8f3f8"/><stop offset="1" stop-color="#6ab2ff"/></linearGradient><linearGradient x1="0" y1="0" x2="1" y2="0" gradientUnits="userSpaceOnUse" gradientTransform="scale(130.62118 -130.62118) rotate(21.765 5.708 9.564)" spreadMethod="pad" id="B"><stop offset="0" stop-color="#f09a6f"/><stop offset="1" stop-color="#d62c69"/></linearGradient><linearGradient x1="0" y1="0" x2="1" y2="0" gradientUnits="userSpaceOnUse" gradientTransform="scale(120.88428 -120.88428) rotate(86.309 3.681 2.291)" spreadMethod="pad" id="m"><stop offset="0" stop-color="#a8f3f8"/><stop offset="1" stop-color="#6ab2ff"/></linearGradient><linearGradient x1="0" y1="0" x2="1" y2="0" gradientUnits="userSpaceOnUse" gradientTransform="scale(169.47454 -169.47454) rotate(32.541 3.239 5.682)" spreadMethod="pad" id="w"><stop offset="0" stop-color="#f05f6f"/><stop offset="1" stop-color="#9f2c69"/></linearGradient></defs><g clip-path="url(#a)" transform="matrix(1.33333 0 0 -1.33333 -664.988 306.676)"><g clip-path="url(#b)"><g clip-path="url(#c)" opacity=".2"><path d="M701.372 197.844s-37.942-63.064-17.726-90.892c30.614-42.139-1.333-82.037-98.745-76.359-97.412 5.678 88.787 172.401 116.471 167.251" fill="url(#d)"/></g></g></g><g clip-path="url(#e)" transform="matrix(1.33333 0 0 -1.33333 -664.988 306.676)"><path d="M645.563 222.033c-25.78-22.241 17.117-89.19-71.172-85.137-41.352 1.899-72.252-23.336-75.227-43.693-4.867-33.314 32.631-58.559 92.794-57.208 80.181 1.801 99.551 34.685 82.434 61.262-17.118 26.577-5.256 48.933 22.072 87.839 19.264 27.427-4.07 44.913-27.119 44.911-8.75 0-17.461-2.521-23.782-7.974" fill="url(#f)"/></g><g clip-path="url(#g)" transform="matrix(1.33333 0 0 -1.33333 -664.988 306.676)"><g clip-path="url(#h)"><g clip-path="url(#i)" opacity=".43"><path d="M504.498 35.943c3.567 18.807-3.081 32.479 134.703 29.531 154.483-3.303 11.704-53.283-14.463-50.225-26.168 3.056-126.774-13.759-120.24 20.694" fill="url(#j)" fill-rule="evenodd"/></g></g><g clip-path="url(#k)"><g clip-path="url(#l)" opacity=".34"><path d="M690.688 224.58s-62.086-48.247-23.702-110.579c38.385-62.332 63.353 112.763 63.353 112.763s-31.537 5.3-39.651-2.184" fill="url(#m)"/></g></g><g clip-path="url(#n)"><g clip-path="url(#o)" opacity=".65"><path d="M612.874 299.554s-35.257-105.569 37.946-105.569c81.107 0-9.293 133.063-9.293 133.063s-27.376-16.531-28.653-27.494" fill="url(#p)"/></g></g><g clip-path="url(#q)"><g clip-path="url(#r)" opacity=".65"><path d="M497.858 221.112s-29.844-95.89 39.889-118.16c69.732-22.271-11.236 145.654-11.236 145.654s-27.376-16.529-28.653-27.494" fill="url(#s)"/></g></g></g><g clip-path="url(#t)" transform="matrix(1.33333 0 0 -1.33333 -664.988 306.676)"><g clip-path="url(#u)"><g clip-path="url(#v)" opacity=".08"><path d="M592.625 150.374l-6.148-1.488a4.582 4.582 0 00-5.515 3.366 4.58 4.58 0 003.366 5.514l6.149 1.489a4.582 4.582 0 005.514-3.367 4.581 4.581 0 00-3.366-5.514" fill="url(#w)"/></g></g><g clip-path="url(#x)"><g clip-path="url(#y)" opacity=".05"><path d="M688.267 187.136l-2.952-.715a3.202 3.202 0 00-3.854 2.352 3.201 3.201 0 002.352 3.854l2.952.715a3.202 3.202 0 003.854-2.353 3.2 3.2 0 00-2.352-3.853" fill="url(#z)"/></g></g></g><g clip-path="url(#A)" transform="matrix(1.33333 0 0 -1.33333 -664.988 306.676)"><path d="M509.171 168.129c0-30.662 24.858-55.52 55.52-55.52 30.663 0 55.521 24.858 55.521 55.52 0 30.663-24.858 55.52-55.521 55.52-30.662 0-55.52-24.857-55.52-55.52" fill="url(#B)"/><path d="M564.724 13.746c-29.727 0-53.91 28.3-53.91 63.084 0 24.978 12.47 46.609 30.506 56.823a62.516 62.516 0 012.41-5.328c5.61-10.965 13.18-17.003 21.316-17.003s15.707 6.038 21.316 17.003a61.757 61.757 0 012.286 5.025c17.755-10.333 29.987-31.785 29.987-56.52 0-34.784-24.185-63.084-53.91-63.084m-26.543 152.88h25.093V142.79c-7.112-.205-14-1.92-20.397-5.011-2.922 8.482-4.553 18.41-4.696 28.849m5.293 33.516c6.23-1.801 12.913-2.803 19.8-2.926v-27.693H538.18c.142 11.168 1.99 21.757 5.295 30.619m-32.662 37.936c0 20.94 24.184 37.979 53.911 37.979 29.726 0 53.911-17.038 53.911-37.98 0-15.006-12.42-28.007-30.399-34.171a60.903 60.903 0 01-1.874 4.026c-5.609 10.965-13.18 17.003-21.316 17.003-8.137 0-15.707-6.038-21.317-17.003a60.71 60.71 0 01-1.954-4.214c-18.28 6.083-30.962 19.197-30.962 34.36m52.462-37.965c-6.6.123-12.908 1.088-18.718 2.745a58.774 58.774 0 001.75 3.755c4.66 9.105 10.628 14.462 16.968 15.305zm2.897 21.875c6.58-.556 12.796-5.963 17.612-15.375a59.1 59.1 0 001.68-3.59c-5.968-1.758-12.473-2.783-19.292-2.91zm25.74-52.465h-25.74v27.693c7.103.127 13.988 1.186 20.381 3.095 3.346-8.896 5.215-19.548 5.358-30.788m-25.739-54.554v24.92c7.058-.22 13.781-2.036 19.917-5.147a60.205 60.205 0 00-2.305-5.1c-5.09-9.946-11.744-15.424-18.738-15.424s-13.649 5.478-18.739 15.425a60.326 60.326 0 00-2.41 5.37c5.991 2.947 12.527 4.664 19.378 4.877V114.97zm20.945 22.535c-6.55 3.262-13.629 5.073-20.945 5.284v23.838h25.737c-.144-10.551-1.81-20.581-4.792-29.122m2.584-1.378c3.181 8.942 4.958 19.458 5.106 30.5h25.276v2.897h-25.275c-.143 11.525-2.06 22.48-5.497 31.677 5.634 1.944 10.835 4.569 15.398 7.818 10.848 7.727 16.822 18.047 16.822 29.06 0 11.013-5.974 21.333-16.822 29.059-10.699 7.62-24.9 11.816-39.985 11.816-15.086 0-29.286-4.196-39.985-11.816-10.848-7.726-16.823-18.046-16.823-29.06 0-11.012 5.975-21.332 16.823-29.06 4.716-3.358 10.115-6.05 15.968-8.013-3.39-9.156-5.282-20.037-5.424-31.481h-25.918v-2.897h25.92c.146-10.917 1.884-21.32 4.998-30.195-5.796-3.211-11.136-7.587-15.803-13.028-10.68-12.451-16.564-28.991-16.564-46.574s5.883-34.123 16.564-46.574c10.735-12.514 25.027-19.406 40.244-19.406 15.216 0 29.508 6.892 40.244 19.406 10.68 12.45 16.563 28.99 16.563 46.574 0 17.583-5.883 34.123-16.563 46.574-4.523 5.272-9.678 9.54-15.267 12.723" fill="#f7f7f7"/></g><g clip-path="url(#C)" transform="matrix(1.33333 0 0 -1.33333 -664.988 306.676)"><g clip-path="url(#D)"><g clip-path="url(#E)" opacity=".2"><path d="M542.657 221.073s69.453-11.266 51.312-100.123c0 0 82.599 25.4 54.276 66.275-28.323 40.876-75.675 67.374-105.588 33.848" fill="url(#F)"/></g></g></g><g clip-path="url(#G)" transform="matrix(1.33333 0 0 -1.33333 -664.988 306.676)"><path d="M630.373 127.942c-5.424 0-9.862-4.438-9.862-9.861V30.926c0-5.425 4.438-9.862 9.862-9.862h43.736c5.424 0 9.861 4.437 9.861 9.862v87.155c0 5.423-4.437 9.861-9.861 9.861z" fill="url(#H)"/></g><g clip-path="url(#I)" transform="matrix(1.33333 0 0 -1.33333 -664.988 306.676)"><path d="M635.17 120.912a8.084 8.084 0 01-8.082-8.084V44.026h50.308v68.802a8.085 8.085 0 01-8.085 8.084z" fill="url(#J)"/></g><g clip-path="url(#K)" transform="matrix(1.33333 0 0 -1.33333 -664.988 306.676)"><path d="M640.52 92.248V72.863c0-3.063 3.407-4.895 5.963-3.207l15.605 10.305c2.379 1.573 2.28 5.097-.186 6.532l-15.604 9.078a3.815 3.815 0 01-1.928.527c-2.007 0-3.85-1.605-3.85-3.85" fill="url(#L)"/></g><g clip-path="url(#M)" transform="matrix(1.33333 0 0 -1.33333 -664.988 306.676)"><path d="M645.979 31.919a6.263 6.263 0 0112.525 0 6.263 6.263 0 11-12.525 0" fill="url(#N)"/></g><g clip-path="url(#O)" transform="matrix(1.33333 0 0 -1.33333 -664.988 306.676)"><path d="M627.836 197.498a68.887 68.887 0 01-9.171 4.702l.94 2.234a71.485 71.485 0 009.495-4.87zm12.478-9.754a69.6 69.6 0 01-7.86 6.669l1.426 1.959a72.125 72.125 0 008.135-6.902zm9.937-12.332a69.13 69.13 0 01-6.141 8.279l1.833 1.583a71.66 71.66 0 006.356-8.567zm6.86-14.268a68.72 68.72 0 01-4.085 9.458l2.146 1.125a71.156 71.156 0 004.23-9.793zm3.407-15.463a68.794 68.794 0 01-1.807 10.145l2.348.603a71.353 71.353 0 001.869-10.504zm2.778-7.055h-2.423c0 .505-.006 1.009-.016 1.51l2.422.052c.01-.52.017-1.041.017-1.562M531.683 95.055c-.215.472-.426.948-.632 1.43l2.226.957c.199-.464.403-.927.612-1.384zm8.443-14.05a71.59 71.59 0 00-5.859 8.918l2.119 1.175a68.822 68.822 0 015.659-8.611zm11.441-11.74a71.357 71.357 0 00-7.749 7.335l1.793 1.629a68.659 68.659 0 017.485-7.082zm13.822-8.81a71.896 71.896 0 00-9.219 5.369l1.372 1.997a69.532 69.532 0 018.907-5.188zm15.461-5.443a72.068 72.068 0 00-10.196 3.137l.881 2.257a69.59 69.59 0 019.853-3.031zm15.83-1.782c-3.392 0-6.816.246-10.176.732l.346 2.398a68.971 68.971 0 019.83-.707l.454.002.012-2.423z" fill="#fff"/><g clip-path="url(#P)"><g clip-path="url(#Q)" opacity=".2"><path d="M1147.475 193.338s-37.943-63.065-17.727-90.893c30.613-42.138-1.333-82.036-98.745-76.358-97.412 5.678 88.788 172.401 116.472 167.251" fill="url(#R)"/></g></g></g></svg>