<svg xmlns="http://www.w3.org/2000/svg" height="1600.054" width="1367.061"><defs><linearGradient id="bH" spreadMethod="pad" gradientTransform="rotate(179.972 611.688 429.72) scale(82.33866)" gradientUnits="userSpaceOnUse" y2="0" x2="1" y1="0" x1="0"><stop offset="0" stop-color="#ff826a"/><stop offset="1" stop-color="#ffcbaa"/></linearGradient><linearGradient id="ak" spreadMethod="pad" gradientTransform="scale(-81.2159 81.2159) rotate(80.321 -12.957 .186)" gradientUnits="userSpaceOnUse" y2="0" x2="1" y1="0" x1="0"><stop offset="0" stop-color="#fff"/><stop offset="1" stop-color="#fff"/></linearGradient><linearGradient id="cy" spreadMethod="pad" gradientTransform="matrix(616.70123 -455.36057 -365.19409 -669.29089 726.623 109.09)" gradientUnits="userSpaceOnUse" y2="0" x2="1" y1="0" x1="0"><stop offset="0" stop-color="#f05f6f"/><stop offset="1" stop-color="#9f2c69"/></linearGradient><linearGradient id="z" spreadMethod="pad" gradientTransform="matrix(616.70123 -455.36057 -365.19409 -669.29089 492.417 871.43)" gradientUnits="userSpaceOnUse" y2="0" x2="1" y1="0" x1="0"><stop offset="0" stop-color="#f05f6f"/><stop offset="1" stop-color="#9f2c69"/></linearGradient><linearGradient id="cw" spreadMethod="pad" gradientTransform="matrix(616.70123 -455.36057 -365.19409 -669.29089 1293.875 215.426)" gradientUnits="userSpaceOnUse" y2="0" x2="1" y1="0" x1="0"><stop offset="0" stop-color="#f05f6f"/><stop offset="1" stop-color="#9f2c69"/></linearGradient><linearGradient id="B" spreadMethod="pad" gradientTransform="matrix(616.70123 -455.36057 -365.19409 -669.29089 1125.469 829.607)" gradientUnits="userSpaceOnUse" y2="0" x2="1" y1="0" x1="0"><stop offset="0" stop-color="#f05f6f"/><stop offset="1" stop-color="#9f2c69"/></linearGradient><linearGradient id="cu" spreadMethod="pad" gradientTransform="matrix(616.70123 -455.36057 -365.19409 -669.29089 553.466 489.52)" gradientUnits="userSpaceOnUse" y2="0" x2="1" y1="0" x1="0"><stop offset="0" stop-color="#f05f6f"/><stop offset="1" stop-color="#9f2c69"/></linearGradient><linearGradient id="cs" spreadMethod="pad" gradientTransform="matrix(616.70123 -455.36057 -365.19409 -669.29089 877.48 1148.155)" gradientUnits="userSpaceOnUse" y2="0" x2="1" y1="0" x1="0"><stop offset="0" stop-color="#f05f6f"/><stop offset="1" stop-color="#9f2c69"/></linearGradient><linearGradient id="E" spreadMethod="pad" gradientTransform="scale(-1481.70478 1481.70478) rotate(-67.421 .23 1.237)" gradientUnits="userSpaceOnUse" y2="0" x2="1" y1="0" x1="0"><stop offset="0" stop-color="#a8f3f8"/><stop offset="1" stop-color="#6a88ff"/></linearGradient><linearGradient id="cq" spreadMethod="pad" gradientTransform="matrix(616.70123 -455.36057 -365.19409 -669.29089 869.115 295.15)" gradientUnits="userSpaceOnUse" y2="0" x2="1" y1="0" x1="0"><stop offset="0" stop-color="#f05f6f"/><stop offset="1" stop-color="#9f2c69"/></linearGradient><linearGradient id="G" spreadMethod="pad" gradientTransform="scale(-1481.70472 1481.70472) rotate(-88.706 .166 .964)" gradientUnits="userSpaceOnUse" y2="0" x2="1" y1="0" x1="0"><stop offset="0" stop-color="#a8f3f8"/><stop offset="1" stop-color="#6a88ff"/></linearGradient><linearGradient id="cn" spreadMethod="pad" gradientTransform="rotate(-60.789 1326.688 -366.717) scale(309.066)" gradientUnits="userSpaceOnUse" y2="0" x2="1" y1="0" x1="0"><stop offset="0" stop-color="#c85700"/><stop offset=".004" stop-color="#c85700"/><stop offset="1" stop-color="#ffe5d4"/></linearGradient><linearGradient id="I" spreadMethod="pad" gradientTransform="scale(-589.04534 589.04534) rotate(77.946 -.753 .052)" gradientUnits="userSpaceOnUse" y2="0" x2="1" y1="0" x1="0"><stop offset="0" stop-color="#a8f3f8"/><stop offset="1" stop-color="#6ab2ff"/></linearGradient><linearGradient id="d" spreadMethod="pad" gradientTransform="rotate(-60.789 1326.688 -366.717) scale(309.066)" gradientUnits="userSpaceOnUse" y2="0" x2="1" y1="0" x1="0"><stop offset="0" stop-color="#fff"/><stop offset=".004" stop-color="#fff"/><stop offset="1" stop-opacity="0" stop-color="#fff"/></linearGradient><linearGradient id="K" spreadMethod="pad" gradientTransform="scale(-1097.96898 1097.96898) rotate(-29.46 .406 3.557)" gradientUnits="userSpaceOnUse" y2="0" x2="1" y1="0" x1="0"><stop offset="0" stop-color="#a8f3f8"/><stop offset="1" stop-color="#6a88ff"/></linearGradient><linearGradient id="ck" spreadMethod="pad" gradientTransform="rotate(145.121 479.923 585.724) scale(417.6289)" gradientUnits="userSpaceOnUse" y2="0" x2="1" y1="0" x1="0"><stop offset="0" stop-color="#fff"/><stop offset="1" stop-color="#fff"/></linearGradient><linearGradient id="M" spreadMethod="pad" gradientTransform="scale(733.84204 -733.84204) rotate(38.449 2.781 -.078)" gradientUnits="userSpaceOnUse" y2="0" x2="1" y1="0" x1="0"><stop offset="0" stop-color="#fff3f8"/><stop offset="1" stop-color="#fff"/></linearGradient><linearGradient id="b" spreadMethod="pad" gradientTransform="rotate(145.121 479.923 585.724) scale(417.6289)" gradientUnits="userSpaceOnUse" y2="0" x2="1" y1="0" x1="0"><stop offset="0" stop-color="#fff"/><stop offset="1" stop-opacity="0" stop-color="#fff"/></linearGradient><linearGradient id="O" spreadMethod="pad" gradientTransform="scale(733.84205 -733.84205) rotate(-72.125 .675 -.609)" gradientUnits="userSpaceOnUse" y2="0" x2="1" y1="0" x1="0"><stop offset="0" stop-color="#fff3f8"/><stop offset="1" stop-color="#fff"/></linearGradient><linearGradient id="cf" spreadMethod="pad" gradientTransform="rotate(179.97 578.117 434.995) scale(255.61347)" gradientUnits="userSpaceOnUse" y2="0" x2="1" y1="0" x1="0"><stop offset="0" stop-color="#ff826a"/><stop offset="1" stop-color="#ffcbaa"/></linearGradient><linearGradient id="ce" spreadMethod="pad" gradientTransform="rotate(105.624 405.003 679.268) scale(285.76191)" gradientUnits="userSpaceOnUse" y2="0" x2="1" y1="0" x1="0"><stop offset="0" stop-color="#f05f6f"/><stop offset=".998" stop-color="#512c30"/><stop offset="1" stop-color="#512c30"/></linearGradient><linearGradient id="R" spreadMethod="pad" gradientTransform="matrix(1686.014 -1244.9209 -998.41272 -1829.7902 886.73 402.862)" gradientUnits="userSpaceOnUse" y2="0" x2="1" y1="0" x1="0"><stop offset="0" stop-color="#f05f6f"/><stop offset="1" stop-color="#9f2c69"/></linearGradient><linearGradient id="S" spreadMethod="pad" gradientTransform="matrix(292.75931 -.155 -.155 -292.75931 485.825 808.44)" gradientUnits="userSpaceOnUse" y2="0" x2="1" y1="0" x1="0"><stop offset="0" stop-color="#00c9ed"/><stop offset="1" stop-color="#0085bf"/></linearGradient><linearGradient id="j" spreadMethod="pad" gradientTransform="rotate(105.624 405.003 679.268) scale(285.76191)" gradientUnits="userSpaceOnUse" y2="0" x2="1" y1="0" x1="0"><stop offset="0" stop-opacity="0" stop-color="#fff"/><stop offset=".998" stop-color="#fff"/><stop offset="1" stop-color="#fff"/></linearGradient><linearGradient id="ca" spreadMethod="pad" gradientTransform="rotate(87.648 376.138 729.238) scale(595.68439)" gradientUnits="userSpaceOnUse" y2="0" x2="1" y1="0" x1="0"><stop offset="0" stop-color="#fff"/><stop offset="1" stop-color="#fff"/></linearGradient><linearGradient id="V" spreadMethod="pad" gradientTransform="scale(-235.86474 235.86474) rotate(-58.352 2.152 4.193)" gradientUnits="userSpaceOnUse" y2="0" x2="1" y1="0" x1="0"><stop offset="0" stop-color="#00e2d7"/><stop offset=".471" stop-color="#78f0ea"/><stop offset="1" stop-color="#fff"/></linearGradient><linearGradient id="bX" spreadMethod="pad" gradientTransform="rotate(179.97 606.236 329.6) scale(168.35285)" gradientUnits="userSpaceOnUse" y2="0" x2="1" y1="0" x1="0"><stop offset="0" stop-color="#f09a6f"/><stop offset="1" stop-color="#d62c69"/></linearGradient><linearGradient id="bW" spreadMethod="pad" gradientTransform="rotate(-173.749 637.835 398.029) scale(64.91871)" gradientUnits="userSpaceOnUse" y2="0" x2="1" y1="0" x1="0"><stop offset="0" stop-color="#f0806f"/><stop offset="1" stop-color="#d32c69"/></linearGradient><linearGradient id="bV" spreadMethod="pad" gradientTransform="rotate(-173.749 637.948 395.948) scale(64.91871)" gradientUnits="userSpaceOnUse" y2="0" x2="1" y1="0" x1="0"><stop offset="0" stop-color="#f0806f"/><stop offset="1" stop-color="#d32c69"/></linearGradient><linearGradient id="k" spreadMethod="pad" gradientTransform="scale(-219.84446 219.84446) rotate(5.751 -36.269 -33.265)" gradientUnits="userSpaceOnUse" y2="0" x2="1" y1="0" x1="0"><stop offset="0" stop-color="#fff"/><stop offset="1" stop-opacity=".5" stop-color="#fff"/></linearGradient><linearGradient id="bU" spreadMethod="pad" gradientTransform="rotate(-127.019 598.133 -189.96) scale(176.05509)" gradientUnits="userSpaceOnUse" y2="0" x2="1" y1="0" x1="0"><stop offset="0" stop-color="#c85700"/><stop offset=".004" stop-color="#c85700"/><stop offset="1" stop-color="#ffe5d4"/></linearGradient><linearGradient id="aa" spreadMethod="pad" gradientTransform="scale(-219.84446 219.84446) rotate(5.751 -36.269 -33.265)" gradientUnits="userSpaceOnUse" y2="0" x2="1" y1="0" x1="0"><stop offset="0" stop-color="#0077ed"/><stop offset="1" stop-color="#004def"/></linearGradient><linearGradient id="c" spreadMethod="pad" gradientTransform="rotate(-127.019 598.133 -189.96) scale(176.05509)" gradientUnits="userSpaceOnUse" y2="0" x2="1" y1="0" x1="0"><stop offset="0" stop-color="#fff"/><stop offset=".004" stop-color="#fff"/><stop offset="1" stop-opacity="0" stop-color="#fff"/></linearGradient><linearGradient id="bR" spreadMethod="pad" gradientTransform="rotate(-53.467 709.916 -880.004) scale(178.10247)" gradientUnits="userSpaceOnUse" y2="0" x2="1" y1="0" x1="0"><stop offset="0" stop-color="#ff826a"/><stop offset=".228" stop-color="#ff826a"/><stop offset="1" stop-color="#ffcbaa"/></linearGradient><linearGradient id="e" spreadMethod="pad" gradientTransform="scale(-103.42743 103.42743) rotate(-58.352 3.512 9.521)" gradientUnits="userSpaceOnUse" y2="0" x2="1" y1="0" x1="0"><stop offset="0" stop-color="#fff"/><stop offset="1" stop-opacity=".5" stop-color="#fff"/></linearGradient><linearGradient id="bQ" spreadMethod="pad" gradientTransform="rotate(-65.662 903.212 -385.636) scale(407.21896)" gradientUnits="userSpaceOnUse" y2="0" x2="1" y1="0" x1="0"><stop offset="0" stop-color="#072ed7"/><stop offset=".458" stop-color="#044ccc"/><stop offset="1" stop-color="#006fbf"/></linearGradient><linearGradient id="ae" spreadMethod="pad" gradientTransform="scale(-103.42743 103.42743) rotate(-58.352 3.512 9.521)" gradientUnits="userSpaceOnUse" y2="0" x2="1" y1="0" x1="0"><stop offset="0" stop-color="#0077ed"/><stop offset="1" stop-color="#004def"/></linearGradient><linearGradient id="af" spreadMethod="pad" gradientTransform="scale(-240.45644 240.45644) rotate(87.709 -3.806 .05)" gradientUnits="userSpaceOnUse" y2="0" x2="1" y1="0" x1="0"><stop offset="0" stop-color="#ff826a"/><stop offset="1" stop-color="#ffcbaa"/></linearGradient><linearGradient id="f" spreadMethod="pad" gradientTransform="rotate(-65.662 903.212 -385.636) scale(407.21896)" gradientUnits="userSpaceOnUse" y2="0" x2="1" y1="0" x1="0"><stop offset="0" stop-color="#fff"/><stop offset=".458" stop-opacity=".771" stop-color="#fff"/><stop offset="1" stop-opacity=".5" stop-color="#fff"/></linearGradient><linearGradient id="bM" spreadMethod="pad" gradientTransform="rotate(-85.585 824.01 -291.846) scale(456.00977)" gradientUnits="userSpaceOnUse" y2="0" x2="1" y1="0" x1="0"><stop offset="0" stop-color="#fff"/><stop offset="1" stop-color="#fff"/></linearGradient><linearGradient id="bJ" spreadMethod="pad" gradientTransform="rotate(101.387 582.332 442.46) scale(680.67515)" gradientUnits="userSpaceOnUse" y2="0" x2="1" y1="0" x1="0"><stop offset="0" stop-color="#07bbd7"/><stop offset=".251" stop-color="#07bbd7"/><stop offset="1" stop-color="#0074bf"/></linearGradient><linearGradient id="g" spreadMethod="pad" gradientTransform="scale(-81.2159 81.2159) rotate(80.321 -12.957 .186)" gradientUnits="userSpaceOnUse" y2="0" x2="1" y1="0" x1="0"><stop offset="0" stop-color="#fff"/><stop offset="1" stop-opacity="0" stop-color="#fff"/></linearGradient><linearGradient id="bI" spreadMethod="pad" gradientTransform="matrix(-24.32042 .01288 -.01288 -24.32042 1177.801 790.151)" gradientUnits="userSpaceOnUse" y2="0" x2="1" y1="0" x1="0"><stop offset="0" stop-color="#ff826a"/><stop offset="1" stop-color="#ffcbaa"/></linearGradient><linearGradient id="cA" spreadMethod="pad" gradientTransform="matrix(1686.014 -1244.9209 -998.41272 -1829.7902 1367.48 1074.26)" gradientUnits="userSpaceOnUse" y2="0" x2="1" y1="0" x1="0"><stop offset="0" stop-color="#f05f6f"/><stop offset="1" stop-color="#9f2c69"/></linearGradient><linearGradient id="x" spreadMethod="pad" gradientTransform="matrix(616.70123 -455.36057 -365.19409 -669.29089 938.03 700.078)" gradientUnits="userSpaceOnUse" y2="0" x2="1" y1="0" x1="0"><stop offset="0" stop-color="#f05f6f"/><stop offset="1" stop-color="#9f2c69"/></linearGradient><linearGradient id="h" spreadMethod="pad" gradientTransform="scale(-145.078 145.078) rotate(76.81 -7.207 -.508)" gradientUnits="userSpaceOnUse" y2="0" x2="1" y1="0" x1="0"><stop offset="0" stop-color="#fff"/><stop offset=".004" stop-color="#fff"/><stop offset="1" stop-opacity="0" stop-color="#fff"/></linearGradient><linearGradient id="bG" spreadMethod="pad" gradientTransform="rotate(113.549 426.715 564.6) scale(738.61288)" gradientUnits="userSpaceOnUse" y2="0" x2="1" y1="0" x1="0"><stop offset="0" stop-color="#072ed7"/><stop offset=".458" stop-color="#044ccc"/><stop offset="1" stop-color="#006fbf"/></linearGradient><linearGradient id="an" spreadMethod="pad" gradientTransform="scale(-145.078 145.078) rotate(76.81 -7.207 -.508)" gradientUnits="userSpaceOnUse" y2="0" x2="1" y1="0" x1="0"><stop offset="0" stop-color="#c85700"/><stop offset=".004" stop-color="#c85700"/><stop offset="1" stop-color="#ffe5d4"/></linearGradient><linearGradient id="ao" spreadMethod="pad" gradientTransform="scale(470.37873 -470.37873) rotate(-80.181 .201 -1.492)" gradientUnits="userSpaceOnUse" y2="0" x2="1" y1="0" x1="0"><stop offset="0" stop-color="#07bbd7"/><stop offset=".002" stop-color="#07bbd7"/><stop offset="1" stop-color="#0074bf"/></linearGradient><linearGradient id="i" spreadMethod="pad" gradientTransform="rotate(113.549 426.715 564.6) scale(738.61288)" gradientUnits="userSpaceOnUse" y2="0" x2="1" y1="0" x1="0"><stop offset="0" stop-color="#fff"/><stop offset=".458" stop-opacity=".771" stop-color="#fff"/><stop offset="1" stop-opacity=".5" stop-color="#fff"/></linearGradient><linearGradient id="bC" spreadMethod="pad" gradientTransform="rotate(179.97 525.131 414.766) scale(119.31785)" gradientUnits="userSpaceOnUse" y2="0" x2="1" y1="0" x1="0"><stop offset="0" stop-color="#fff"/><stop offset="1" stop-color="#fff"/></linearGradient><linearGradient id="ar" spreadMethod="pad" gradientTransform="scale(119.31785 -119.31785) rotate(.03 13279.239 11678.92)" gradientUnits="userSpaceOnUse" y2="0" x2="1" y1="0" x1="0"><stop offset="0" stop-color="#fff"/><stop offset="1" stop-color="#fff"/></linearGradient><linearGradient id="bz" spreadMethod="pad" gradientTransform="rotate(99.759 308.852 678.148) scale(470.37873)" gradientUnits="userSpaceOnUse" y2="0" x2="1" y1="0" x1="0"><stop offset="0" stop-color="#07bbd7"/><stop offset=".002" stop-color="#07bbd7"/><stop offset="1" stop-color="#0074bf"/></linearGradient><linearGradient id="by" spreadMethod="pad" gradientTransform="rotate(76.75 -145.948 1062.551) scale(145.078)" gradientUnits="userSpaceOnUse" y2="0" x2="1" y1="0" x1="0"><stop offset="0" stop-color="#c85700"/><stop offset=".004" stop-color="#c85700"/><stop offset="1" stop-color="#ffe5d4"/></linearGradient><linearGradient id="a" spreadMethod="pad" gradientTransform="scale(738.61287 -738.61287) rotate(-66.391 .05 -.979)" gradientUnits="userSpaceOnUse" y2="0" x2="1" y1="0" x1="0"><stop offset="0" stop-color="#fff"/><stop offset=".458" stop-opacity=".771" stop-color="#fff"/><stop offset="1" stop-opacity=".5" stop-color="#fff"/></linearGradient><linearGradient id="t" spreadMethod="pad" gradientTransform="rotate(76.75 -145.948 1062.551) scale(145.078)" gradientUnits="userSpaceOnUse" y2="0" x2="1" y1="0" x1="0"><stop offset="0" stop-color="#fff"/><stop offset=".004" stop-color="#fff"/><stop offset="1" stop-opacity="0" stop-color="#fff"/></linearGradient><linearGradient id="av" spreadMethod="pad" gradientTransform="scale(738.61287 -738.61287) rotate(-66.391 .05 -.979)" gradientUnits="userSpaceOnUse" y2="0" x2="1" y1="0" x1="0"><stop offset="0" stop-color="#072ed7"/><stop offset=".458" stop-color="#044ccc"/><stop offset="1" stop-color="#006fbf"/></linearGradient><linearGradient id="aw" spreadMethod="pad" gradientTransform="scale(82.33866 -82.33866) rotate(.03 19715.84 13219.597)" gradientUnits="userSpaceOnUse" y2="0" x2="1" y1="0" x1="0"><stop offset="0" stop-color="#ff826a"/><stop offset="1" stop-color="#ffcbaa"/></linearGradient><linearGradient id="ax" spreadMethod="pad" gradientTransform="scale(24.32043 -24.32043) rotate(.03 61401.38 48316.056)" gradientUnits="userSpaceOnUse" y2="0" x2="1" y1="0" x1="0"><stop offset="0" stop-color="#ff826a"/><stop offset="1" stop-color="#ffcbaa"/></linearGradient><linearGradient id="ay" spreadMethod="pad" gradientTransform="scale(680.67512 -680.67512) rotate(-78.553 .527 -.57)" gradientUnits="userSpaceOnUse" y2="0" x2="1" y1="0" x1="0"><stop offset="0" stop-color="#07bbd7"/><stop offset=".251" stop-color="#07bbd7"/><stop offset="1" stop-color="#0074bf"/></linearGradient><linearGradient id="bv" spreadMethod="pad" gradientTransform="rotate(80.26 -152.767 1082.446) scale(81.2159)" gradientUnits="userSpaceOnUse" y2="0" x2="1" y1="0" x1="0"><stop offset="0" stop-color="#fff"/><stop offset="1" stop-color="#fff"/></linearGradient><linearGradient id="l" spreadMethod="pad" gradientTransform="rotate(80.26 -152.767 1082.446) scale(81.2159)" gradientUnits="userSpaceOnUse" y2="0" x2="1" y1="0" x1="0"><stop offset="0" stop-color="#fff"/><stop offset="1" stop-opacity="0" stop-color="#fff"/></linearGradient><linearGradient id="aB" spreadMethod="pad" gradientTransform="scale(-456.00975 456.00975) rotate(-85.524 -.166 1.493)" gradientUnits="userSpaceOnUse" y2="0" x2="1" y1="0" x1="0"><stop offset="0" stop-color="#fff"/><stop offset="1" stop-color="#fff"/></linearGradient><linearGradient id="bq" spreadMethod="pad" gradientTransform="rotate(87.648 -15.63 949.322) scale(240.45644)" gradientUnits="userSpaceOnUse" y2="0" x2="1" y1="0" x1="0"><stop offset="0" stop-color="#ff826a"/><stop offset="1" stop-color="#ffcbaa"/></linearGradient><linearGradient id="bp" spreadMethod="pad" gradientTransform="rotate(-58.413 1262.163 -626.136) scale(103.42743)" gradientUnits="userSpaceOnUse" y2="0" x2="1" y1="0" x1="0"><stop offset="0" stop-color="#0077ed"/><stop offset="1" stop-color="#004def"/></linearGradient><linearGradient id="n" spreadMethod="pad" gradientTransform="scale(-407.21895 407.21895) rotate(-65.601 .01 2.48)" gradientUnits="userSpaceOnUse" y2="0" x2="1" y1="0" x1="0"><stop offset="0" stop-color="#fff"/><stop offset=".458" stop-opacity=".771" stop-color="#fff"/><stop offset="1" stop-opacity=".5" stop-color="#fff"/></linearGradient><linearGradient id="m" spreadMethod="pad" gradientTransform="rotate(-58.413 1262.163 -626.136) scale(103.42743)" gradientUnits="userSpaceOnUse" y2="0" x2="1" y1="0" x1="0"><stop offset="0" stop-color="#fff"/><stop offset="1" stop-opacity=".5" stop-color="#fff"/></linearGradient><linearGradient id="aF" spreadMethod="pad" gradientTransform="scale(-407.21895 407.21895) rotate(-65.601 .01 2.48)" gradientUnits="userSpaceOnUse" y2="0" x2="1" y1="0" x1="0"><stop offset="0" stop-color="#072ed7"/><stop offset=".458" stop-color="#044ccc"/><stop offset="1" stop-color="#006fbf"/></linearGradient><linearGradient id="aG" spreadMethod="pad" gradientTransform="scale(-178.10245 178.10245) rotate(-53.407 -1.064 5.095)" gradientUnits="userSpaceOnUse" y2="0" x2="1" y1="0" x1="0"><stop offset="0" stop-color="#ff826a"/><stop offset=".228" stop-color="#ff826a"/><stop offset="1" stop-color="#ffcbaa"/></linearGradient><linearGradient id="bl" spreadMethod="pad" gradientTransform="rotate(5.691 -7153.08 10713.46) scale(219.84447)" gradientUnits="userSpaceOnUse" y2="0" x2="1" y1="0" x1="0"><stop offset="0" stop-color="#0077ed"/><stop offset="1" stop-color="#004def"/></linearGradient><linearGradient id="p" spreadMethod="pad" gradientTransform="scale(176.0551 -176.0551) rotate(53.042 2.945 3.431)" gradientUnits="userSpaceOnUse" y2="0" x2="1" y1="0" x1="0"><stop offset="0" stop-color="#fff"/><stop offset=".004" stop-color="#fff"/><stop offset="1" stop-opacity="0" stop-color="#fff"/></linearGradient><linearGradient id="o" spreadMethod="pad" gradientTransform="rotate(5.691 -7153.08 10713.46) scale(219.84447)" gradientUnits="userSpaceOnUse" y2="0" x2="1" y1="0" x1="0"><stop offset="0" stop-color="#fff"/><stop offset="1" stop-opacity=".5" stop-color="#fff"/></linearGradient><linearGradient id="aJ" spreadMethod="pad" gradientTransform="scale(176.0551 -176.0551) rotate(53.042 2.945 3.431)" gradientUnits="userSpaceOnUse" y2="0" x2="1" y1="0" x1="0"><stop offset="0" stop-color="#c85700"/><stop offset=".004" stop-color="#c85700"/><stop offset="1" stop-color="#ffe5d4"/></linearGradient><linearGradient id="aK" spreadMethod="pad" gradientTransform="scale(64.9187 -64.9187) rotate(6.311 124.452 73.18)" gradientUnits="userSpaceOnUse" y2="0" x2="1" y1="0" x1="0"><stop offset="0" stop-color="#f0806f"/><stop offset="1" stop-color="#d32c69"/></linearGradient><linearGradient id="aL" spreadMethod="pad" gradientTransform="scale(64.9187 -64.9187) rotate(6.311 125.033 73.213)" gradientUnits="userSpaceOnUse" y2="0" x2="1" y1="0" x1="0"><stop offset="0" stop-color="#f0806f"/><stop offset="1" stop-color="#d32c69"/></linearGradient><linearGradient id="aM" spreadMethod="pad" gradientTransform="scale(168.35285 -168.35285) rotate(.03 7480.184 6436.086)" gradientUnits="userSpaceOnUse" y2="0" x2="1" y1="0" x1="0"><stop offset="0" stop-color="#f09a6f"/><stop offset="1" stop-color="#d62c69"/></linearGradient><linearGradient id="bg" spreadMethod="pad" gradientTransform="rotate(-58.413 1406.461 -622.211) scale(235.86473)" gradientUnits="userSpaceOnUse" y2="0" x2="1" y1="0" x1="0"><stop offset="0" stop-color="#00e2d7"/><stop offset=".471" stop-color="#78f0ea"/><stop offset="1" stop-color="#fff"/></linearGradient><linearGradient id="bd" spreadMethod="pad" gradientTransform="rotate(179.97 657.057 404.175) scale(292.75935)" gradientUnits="userSpaceOnUse" y2="0" x2="1" y1="0" x1="0"><stop offset="0" stop-color="#00c9ed"/><stop offset="1" stop-color="#0085bf"/></linearGradient><linearGradient id="aP" spreadMethod="pad" gradientTransform="scale(-595.68441 595.68441) rotate(87.709 -.879 -.349)" gradientUnits="userSpaceOnUse" y2="0" x2="1" y1="0" x1="0"><stop offset="0" stop-color="#fff"/><stop offset="1" stop-color="#fff"/></linearGradient><linearGradient id="bc" spreadMethod="pad" gradientTransform="scale(-309.06598 309.06598) rotate(-60.729 1.384 3.782)" gradientUnits="userSpaceOnUse" y2="0" x2="1" y1="0" x1="0"><stop offset="0" stop-color="#c85700"/><stop offset=".004" stop-color="#c85700"/><stop offset="1" stop-color="#ffe5d4"/></linearGradient><linearGradient id="q" spreadMethod="pad" gradientTransform="scale(-309.06598 309.06598) rotate(-60.729 1.384 3.782)" gradientUnits="userSpaceOnUse" y2="0" x2="1" y1="0" x1="0"><stop offset="0" stop-color="#fff"/><stop offset=".004" stop-color="#fff"/><stop offset="1" stop-opacity="0" stop-color="#fff"/></linearGradient><linearGradient id="s" spreadMethod="pad" gradientTransform="scale(285.7619 -285.7619) rotate(-74.315 .014 -2.285)" gradientUnits="userSpaceOnUse" y2="0" x2="1" y1="0" x1="0"><stop offset="0" stop-opacity="0" stop-color="#fff"/><stop offset=".998" stop-color="#fff"/><stop offset="1" stop-color="#fff"/></linearGradient><linearGradient id="r" spreadMethod="pad" gradientTransform="scale(417.6289 -417.6289) rotate(-34.818 -2.316 -3.207)" gradientUnits="userSpaceOnUse" y2="0" x2="1" y1="0" x1="0"><stop offset="0" stop-color="#fff"/><stop offset="1" stop-opacity="0" stop-color="#fff"/></linearGradient><linearGradient id="aT" spreadMethod="pad" gradientTransform="scale(285.7619 -285.7619) rotate(-74.315 .014 -2.285)" gradientUnits="userSpaceOnUse" y2="0" x2="1" y1="0" x1="0"><stop offset="0" stop-color="#f05f6f"/><stop offset=".998" stop-color="#512c30"/><stop offset="1" stop-color="#512c30"/></linearGradient><linearGradient id="aU" spreadMethod="pad" gradientTransform="scale(255.61347 -255.61347) rotate(.03 6501.336 4659.978)" gradientUnits="userSpaceOnUse" y2="0" x2="1" y1="0" x1="0"><stop offset="0" stop-color="#ff826a"/><stop offset="1" stop-color="#ffcbaa"/></linearGradient><linearGradient id="cC" spreadMethod="pad" gradientTransform="matrix(1094.2794 -807.99524 -648.00317 -1187.595 1365.62 363.91)" gradientUnits="userSpaceOnUse" y2="0" x2="1" y1="0" x1="0"><stop offset="0" stop-color="#f05f6f"/><stop offset="1" stop-color="#9f2c69"/></linearGradient><linearGradient id="u" spreadMethod="pad" gradientTransform="scale(2534.2165 -2534.2165) rotate(58.606 .526 -.027)" gradientUnits="userSpaceOnUse" y2="0" x2="1" y1="0" x1="0"><stop offset="0" stop-color="#a8f3f8"/><stop offset="1" stop-color="#6a88ff"/></linearGradient><linearGradient id="aZ" spreadMethod="pad" gradientTransform="scale(417.6289 -417.6289) rotate(-34.818 -2.316 -3.207)" gradientUnits="userSpaceOnUse" y2="0" x2="1" y1="0" x1="0"><stop offset="0" stop-color="#fff"/><stop offset="1" stop-color="#fff"/></linearGradient><clipPath id="aV" clipPathUnits="userSpaceOnUse"><path d="M695.417 910.013c-9.747-12.171-64.596-125.372-64.599-130.242-.002-4.87 10.931-52.36 52.329-47.511l48.786 160.688L840.348 996.38l3.662 18.261s-138.846-92.458-148.593-104.628"/></clipPath><clipPath id="aY" clipPathUnits="userSpaceOnUse"><path d="M849.489 1014.638s-147.984-103.411-150.422-108.28c-2.437-4.868-54.446-119.289-58.919-136.332-4.474-17.043 7.694-31.659 7.694-31.659l-26.764 41.41 109.685 202.052s109.602 46.208 114.471 43.769c4.869-2.437 4.255-10.96 4.255-10.96"/></clipPath><clipPath id="cB" clipPathUnits="userSpaceOnUse"><path d="M1192.72 493.84h105.6v-82.498h-105.6z"/></clipPath><clipPath id="w" clipPathUnits="userSpaceOnUse"><path d="M839.716 773.785h61.257v-47.458h-61.257z"/></clipPath><clipPath id="v" clipPathUnits="userSpaceOnUse"><path d="M0 1513.117h1791.649V0H0z"/></clipPath><clipPath id="ba" clipPathUnits="userSpaceOnUse"><path d="M718.535 881.997c-1.267-3.791-53.645-137.146-59.736-145.261a4.724 4.724 0 01-.242-.352c6.654-3.477 14.763-5.275 24.59-4.124l48.786 160.688.741.707c-6.328-3.401-12.87-7.858-14.139-11.658"/></clipPath><clipPath id="aS" clipPathUnits="userSpaceOnUse"><path d="M604.035 784.656s-9.767-51.131 29.185-68.198c38.952-17.066 55.974-60.906 46.226-75.511-9.748-14.605-43.854-43.808 38.921-75.507 82.775-31.7 70.37 109.54 70.37 109.54l-87.32 70.663-63.28 58.475z"/></clipPath><clipPath id="cz" clipPathUnits="userSpaceOnUse"><path d="M1102.16 1273.85h160.55v-125.91h-160.55z"/></clipPath><clipPath id="aQ" clipPathUnits="userSpaceOnUse"><path d="M602.946 804.118h186.451V560.803H602.946z"/></clipPath><clipPath id="aO" clipPathUnits="userSpaceOnUse"><path d="M564.341 793.096h268.466V537.407H564.341z"/></clipPath><clipPath id="be" clipPathUnits="userSpaceOnUse"><path d="M1184.001 945.062c-68.141-3.37-69.557-56.226-70.647-58.404-31.69-63.294-84.033-42.569-91.354-74.221-5.177-22.381 38.16-23.905 29.195-46.281-9.753-24.346-36.552-51.118-.042-80.357 43.342-34.711 85.228 2.39 114.451 4.81 8.351.691 23.864-1.805 41.819-4.3 44.861-6.234 104.97-12.469 106.734 31.007 2.466 60.874-31.626 58.458-65.699 92.566-34.072 34.109 3.674 40.177 1.259 76.704-.628 9.496-16.27 58.559-62.413 58.558-1.084 0-2.185-.027-3.303-.082"/></clipPath><clipPath id="bf" clipPathUnits="userSpaceOnUse"><path d="M1152.11 954.856h197.51V672.304h-197.51z"/></clipPath><clipPath id="aN" clipPathUnits="userSpaceOnUse"><path d="M578.437 727.445c-11.988-17.962 1.653-43.539 17.007-70.625 51.09-90.125 135.09-108.432 135.09-108.432 19.502 41.386 8.576 101.05 8.576 101.05-38.966-7.284-55.963 82.822-55.963 82.822-26.779 12.189-49.891 52.38-49.891 52.38s-30.45-20.681-54.819-57.195"/></clipPath><clipPath id="bh" clipPathUnits="userSpaceOnUse"><path d="M1113.354 886.658c-31.69-63.294-84.033-42.569-91.354-74.221-5.177-22.381 38.16-23.905 29.195-46.281-9.753-24.346-36.552-51.118-.042-80.357 43.342-34.711 85.228 2.39 114.451 4.81 8.351.691 23.864-1.805 41.819-4.3 44.861-6.234 104.97-12.469 106.734 31.007 2.466 60.874-31.626 58.458-65.699 92.566-34.072 34.109-1.194 42.614 1.255 69.399 2.449 26.784-4.116 63.182-65.712 65.781a83.66 83.66 0 01-3.547.076c-55.338-.007-66.033-56.347-67.1-58.48"/></clipPath><clipPath id="bi" clipPathUnits="userSpaceOnUse"><path d="M1077.41 884.172h205.56V667.189h-205.56z"/></clipPath><clipPath id="bk" clipPathUnits="userSpaceOnUse"><path d="M1210.755 884.171s-19.501-38.95 12.136-73.057c31.638-34.108 80.323-63.355 51.085-97.43-29.239-34.075-131.514-38.892-131.514-38.892s-53.586-29.192-63.297 26.82c-9.711 56.011 24.399 90.896 14.667 106.323-9.733 15.427 26.809 44.629 46.289 44.618 19.481-.01 70.634 31.618 70.634 31.618"/></clipPath><clipPath id="y" clipPathUnits="userSpaceOnUse"><path d="M394.102 945.138h61.257V897.68h-61.257z"/></clipPath><clipPath id="cx" clipPathUnits="userSpaceOnUse"><path d="M628.308 182.798h61.257v-47.459h-61.257z"/></clipPath><clipPath id="aH" clipPathUnits="userSpaceOnUse"><path d="M763.172 138.508c1.329-5.878 2.675-14.891 1.222-23.579-2.442-14.608 4.862-17.048-9.752-24.345-13.948-6.964-67.821-13.169-83.291-16.184 12.35-1.014 32.268-.057 60.152 5.238 51.141 9.714 37.753 18.243 37.762 35.289.009 17.218.013 24.351-2.422 24.352-1.082-.361-2.33-.609-3.671-.771"/></clipPath><clipPath id="bm" clipPathUnits="userSpaceOnUse"><path d="M1101.01 837.922h140.52V678.339h-140.52z"/></clipPath><clipPath id="bo" clipPathUnits="userSpaceOnUse"><path d="M1179.074 837.922s11.598-39.085 53.527-85.256c24.336-26.797-4.9-56.002-41.428-58.419-36.526-2.416-88.445-41.323-90.09 12.223-2.394 77.924 53.627 104.68 60.93 102.24 7.305-2.438 17.061 29.212 17.061 29.212"/></clipPath><clipPath id="A" clipPathUnits="userSpaceOnUse"><path d="M1027.15 903.315h61.26v-47.459h-61.26z"/></clipPath><clipPath id="cv" clipPathUnits="userSpaceOnUse"><path d="M1195.56 289.133h61.26v-47.458h-61.26z"/></clipPath><clipPath id="aE" clipPathUnits="userSpaceOnUse"><path d="M759.535 134.413c.001 2.434 19.52 75.476 24.405 102.259 4.884 26.784 7.345 75.483 4.924 102.27-2.421 26.787-14.604 12.182-12.159 31.662 2.446 19.479 7.352 87.658 4.949 148.536 19.481-.011 46.273 12.15 66.995 57.189 20.721 45.037 8.457-122.975 8.457-122.975l-14.74-245.934-38.997-68.161-24.355-7.292z"/></clipPath><clipPath id="aC" clipPathUnits="userSpaceOnUse"><path d="M759.535 583.998H860.71V131.967H759.535z"/></clipPath><clipPath id="br" clipPathUnits="userSpaceOnUse"><path d="M917.439 1090.089c-.008-14.61-.032-60.876 4.834-68.184s13.386-13.4 32.869-8.54c0 0 13.403 18.255 1.238 37.743-12.166 19.487-17.011 65.756-29.187 65.761-12.175.01-9.747-12.169-9.754-26.78"/></clipPath><clipPath id="bs" clipPathUnits="userSpaceOnUse"><path d="M924.884 1115.94h38.601v-78.97h-38.601z"/></clipPath><clipPath id="bu" clipPathUnits="userSpaceOnUse"><path d="M962.461 1040.147s-17.05-9.731-26.783 4.884c-9.733 14.616-14.575 65.755-7.268 70.621 7.308 4.866 41.368-53.594 34.051-75.505"/></clipPath><clipPath id="aA" clipPathUnits="userSpaceOnUse"><path d="M703.673 558.448h51.143v-431.73h-51.143z"/></clipPath><clipPath id="C" clipPathUnits="userSpaceOnUse"><path d="M289.188 701.524c-11.445-152.125 468.917-672.883 767.21-585.495 289.85 84.914 280.206 932.706 124.379 1056.263-22.345 17.717-58.336 25.846-103.405 25.841-247.952-.03-769.35-246.264-788.184-496.609"/></clipPath><clipPath id="az" clipPathUnits="userSpaceOnUse"><path d="M764.689 670.123c-17.507-4.11-28.015-20.683-28.015-20.683l-6.14-101.052s21.851-121.765 16.948-185.074c-4.231-54.607-2.178-183.037-3.769-217.935-.21-4.606 2.708-12.595 7.299-12.179l14.61-.008c.249.022 34.156 121.734 36.605 148.52 3.575 39.1-4.824 87.663-4.824 87.663s10.784 113.178 28.085 154.611c15.615 37.399 29.249 53.557 17.098 99.829-8.242 31.388-27.446 48.933-56.857 48.932-6.514-.001-13.533-.862-21.04-2.624"/></clipPath><clipPath id="bw" clipPathUnits="userSpaceOnUse"><path d="M922.273 1021.905c4.866-7.308 13.386-13.4 32.869-8.54 0 0 1.76 2.398 3.426 6.382-9.934-.696-25.383-.629-30.205 5.807-5.281 7.049-9.118 33.21-10.837 47.144.249-19.384 1.196-45.461 4.747-50.793"/></clipPath><clipPath id="ct" clipPathUnits="userSpaceOnUse"><path d="M455.151 563.228h61.258v-47.459h-61.258z"/></clipPath><clipPath id="D" clipPathUnits="userSpaceOnUse"><path d="M995.227 1448.48h638.113V750.666H995.227z"/></clipPath><clipPath id="au" clipPathUnits="userSpaceOnUse"><path d="M854.967 1013.418s12.115-114.454-2.527-175.323c-7.404-30.777-24.365-26.772-24.365-26.772-2.442-12.174 30.081 2.702 19.448-60.887-21.985-131.481-41.465-131.472-41.465-131.472l31.632-43.847 75.551 121.713 17.207 304.373-14.599 21.923z"/></clipPath><clipPath id="as" clipPathUnits="userSpaceOnUse"><path d="M806.058 1023.13h124.39V575.117h-124.39z"/></clipPath><clipPath id="bA" clipPathUnits="userSpaceOnUse"><path d="M928.4 994.758c.597-17.679 4.862-167.654 7.152-188.362 2.423-21.917-2.479-82.792 21.811-197.252 12.161-1.784 19.033 12.695 29.178 27.174 12.214 17.433 29.172 34.866 65.816 23.912 0 0-53.763 100.787-63.239 136.396-9.721 36.532 17.069 43.823-10.887 132.718-14.78 48.923-18.228 66.973-18.228 66.973l-30.063.085a1.592 1.592 0 01-1.54-1.644"/></clipPath><clipPath id="bB" clipPathUnits="userSpaceOnUse"><path d="M942.973 1029.01h119.117V648.05H942.973z"/></clipPath><clipPath id="aq" clipPathUnits="userSpaceOnUse"><path d="M737.891 1029.06h119.518V648.221H737.891z"/></clipPath><clipPath id="bD" clipPathUnits="userSpaceOnUse"><path d="M869.908 1023.14h123.986V575.051H869.908z"/></clipPath><clipPath id="bF" clipPathUnits="userSpaceOnUse"><path d="M945.401 1013.371s-12.235-114.442 2.343-175.327c7.371-30.785 24.336-26.797 24.336-26.797 2.429-12.177-30.078 2.733-19.512-60.867 21.846-131.505 41.326-131.515 41.326-131.515l-31.679-43.814-75.422 121.792-16.885 304.392 14.622 21.908z"/></clipPath><clipPath id="ap" clipPathUnits="userSpaceOnUse"><path d="M840.348 996.38s-3.467-18.046-18.298-66.954c-28.05-88.865-1.269-96.184-11.028-132.705-9.514-35.599-63.384-136.33-63.384-136.33 36.649 10.914 53.589-6.53 65.784-23.973 10.132-14.492 16.99-28.985 29.156-27.213 24.412 114.436 19.573 175.314 22.021 197.228 2.312 20.706 6.734 170.675 7.351 188.356a1.595 1.595 0 01-1.538 1.645z"/></clipPath><clipPath id="cr" clipPathUnits="userSpaceOnUse"><path d="M779.165 1221.86h61.258v-47.46h-61.258z"/></clipPath><clipPath id="F" clipPathUnits="userSpaceOnUse"><path d="M799.823 1513.12H1555.8V966.209H799.823z"/></clipPath><clipPath id="al" clipPathUnits="userSpaceOnUse"><path d="M872.02 1025.584c-4.829-6.431-20.279-6.482-30.212-5.775 1.661-3.986 3.419-6.386 3.419-6.386 19.479-4.88 28.004 1.204 32.878 8.505 3.557 5.329 4.531 31.408 4.801 50.792-1.733-13.931-5.598-40.092-10.886-47.136"/></clipPath><clipPath id="cp" clipPathUnits="userSpaceOnUse"><path d="M770.8 368.858h61.257v-47.459H770.8z"/></clipPath><clipPath id="aj" clipPathUnits="userSpaceOnUse"><path d="M837.937 1040.212s17.04-9.749 26.788 4.857c9.748 14.605 14.645 65.738 7.342 70.612-7.302 4.874-41.424-53.549-34.13-75.469"/></clipPath><clipPath id="bK" clipPathUnits="userSpaceOnUse"><path d="M957.37 623.754c-12.199-46.259 1.418-62.431 16.993-99.846 17.256-41.451 27.921-154.641 27.921-154.641s-8.45-48.555-4.917-87.659c2.421-26.787 36.199-148.535 36.448-148.557l14.61-.009c4.59-.42 7.517 7.567 7.312 12.171-1.554 34.9.634 163.329-3.537 217.94-4.837 63.314 17.143 185.055 17.143 185.055l-6.034 101.059s-10.489 16.584-27.992 20.712c-7.536 1.777-14.579 2.646-21.116 2.646-29.366.001-48.562-17.52-56.831-48.871"/></clipPath><clipPath id="aW" clipPathUnits="userSpaceOnUse"><path d="M621.078 1025.69h228.436V738.366H621.078z"/></clipPath><clipPath id="ah" clipPathUnits="userSpaceOnUse"><path d="M836.921 1115.97h38.654v-78.94h-38.654z"/></clipPath><clipPath id="bN" clipPathUnits="userSpaceOnUse"><path d="M939.159 583.95H1039.9V131.839H939.159z"/></clipPath><clipPath id="bP" clipPathUnits="userSpaceOnUse"><path d="M1039.903 134.264c0 2.435-19.44 75.497-24.296 102.285-4.856 26.788-7.265 75.491-4.816 102.276 2.449 26.784 14.617 12.167 12.192 31.649-2.425 19.482-7.259 87.666-4.791 148.541-19.481.01-46.26 12.199-66.934 57.259-20.674 45.059-8.588-122.966-8.588-122.966l14.48-245.948 38.925-68.202 24.347-7.319z"/></clipPath><clipPath id="ag" clipPathUnits="userSpaceOnUse"><path d="M844.03 1051.168c-12.186-19.475 1.197-37.745 1.197-37.745 19.479-4.88 28.004 1.204 32.878 8.505 4.874 7.303 4.898 53.569 4.907 68.18.007 14.611 2.449 26.784-9.727 26.791-12.175.01-17.07-46.258-29.255-65.731"/></clipPath><clipPath id="co" clipPathUnits="userSpaceOnUse"><path d="M0 1513.117h1791.649V0H0z"/></clipPath><clipPath id="H" clipPathUnits="userSpaceOnUse"><path d="M0 1303.13h500.357V506.914H0z"/></clipPath><clipPath id="ad" clipPathUnits="userSpaceOnUse"><path d="M621.109 838.218s-11.639-39.073-53.616-85.199c-24.365-26.772 4.84-56.009 41.365-58.463 36.524-2.455 88.402-41.417 90.104 12.127 2.476 77.921-53.517 104.736-60.823 102.305-7.306-2.431-17.03 29.23-17.03 29.23"/></clipPath><clipPath id="bS" clipPathUnits="userSpaceOnUse"><path d="M1030.153 114.789c-.01-17.045-13.406-25.561 37.725-35.329 27.875-5.325 47.794-6.303 60.145-5.302-15.466 3.032-69.332 9.293-83.272 16.272-14.607 7.314-7.3 9.744-9.728 24.357-1.443 8.689-.088 17.7 1.248 23.576-1.341.164-2.588.414-3.67.775-2.436.001-2.439-7.131-2.448-24.349"/></clipPath><clipPath id="ab" clipPathUnits="userSpaceOnUse"><path d="M558.537 838.218h140.504V678.576H558.537z"/></clipPath><clipPath id="J" clipPathUnits="userSpaceOnUse"><path d="M995.437 653.144h796.213V152.787H995.437z"/></clipPath><clipPath id="cl" clipPathUnits="userSpaceOnUse"><path d="M1068.308 892.77l48.616-160.741c9.823-1.16 17.939.63 24.596 4.098a5.11 5.11 0 01-.243.355c-6.083 8.12-58.32 141.53-59.581 145.323-1.265 3.801-7.802 8.264-14.127 11.672z"/></clipPath><clipPath id="Z" clipPathUnits="userSpaceOnUse"><path d="M589.478 884.5s19.46-38.97-12.214-73.044c-31.674-34.075-80.39-63.27-51.188-97.375 29.203-34.107 131.473-39.032 131.473-39.032s53.556-29.249 63.326 26.752c9.769 56.002-24.303 90.922-14.555 106.339 9.749 15.417-26.762 44.657-46.242 44.667-19.481.011-70.6 31.693-70.6 31.693"/></clipPath><clipPath id="X" clipPathUnits="userSpaceOnUse"><path d="M517.102 884.501h205.553V667.415H517.102z"/></clipPath><clipPath id="W" clipPathUnits="userSpaceOnUse"><path d="M616.296 945.363c-61.599-2.535-68.202-38.925-65.781-65.712 2.42-26.788 35.29-35.328 1.18-69.4-34.109-34.073-68.198-31.62-65.796-92.496 1.717-43.492 61.872-37.303 106.745-31.114 17.938 2.475 33.435 4.949 41.779 4.249 29.221-2.451 71.068-39.596 114.446-4.932 36.542 29.203 9.771 56.002.043 80.358-8.941 22.386 34.398 23.864 29.245 46.251-7.288 31.659-59.653 10.989-91.275 74.317-1.066 2.135-11.708 58.548-67.127 58.551-1.135 0-2.286-.024-3.459-.072"/></clipPath><clipPath id="bY" clipPathUnits="userSpaceOnUse"><path d="M1116.924 732.029s-17.093-90.087-56.05-82.761c0 0-10.989-59.654 8.469-101.06 0 0 84.02 18.22 135.204 108.289 15.383 27.071 29.051 52.635 17.082 70.608-24.331 36.538-54.758 57.253-54.758 57.253s-23.155-40.167-49.947-52.329"/></clipPath><clipPath id="bZ" clipPathUnits="userSpaceOnUse"><path d="M967.072 792.812h268.608V537.213H967.072z"/></clipPath><clipPath id="U" clipPathUnits="userSpaceOnUse"><path d="M450.434 955.142h197.747V672.669H450.434z"/></clipPath><clipPath id="cb" clipPathUnits="userSpaceOnUse"><path d="M1010.59 803.841h186.58V560.635h-186.58z"/></clipPath><clipPath id="cd" clipPathUnits="userSpaceOnUse"><path d="M1196.091 784.342s9.713-51.141-29.256-68.166c-38.97-17.025-56.039-60.846-46.307-75.463 9.733-14.615 43.809-43.854-39.001-75.466-82.808-31.612-70.253 109.615-70.253 109.615l87.395 70.571 63.342 58.407z"/></clipPath><clipPath id="T" clipPathUnits="userSpaceOnUse"><path d="M550.518 886.956c-2.454-36.524 35.287-42.633 1.177-76.705-34.109-34.073-68.198-31.62-65.796-92.496 1.717-43.492 61.872-37.303 106.745-31.114 17.938 2.475 33.435 4.949 41.779 4.249 29.221-2.451 71.068-39.596 114.446-4.932 36.542 29.203 9.771 56.002.043 80.358-8.941 22.386 34.398 23.864 29.245 46.251-7.288 31.659-59.653 10.989-91.275 74.317-1.088 2.179-2.448 55.035-70.586 58.479a68.841 68.841 0 01-3.371.086c-46.097.006-61.769-49.002-62.407-58.493"/></clipPath><clipPath id="L" clipPathUnits="userSpaceOnUse"><path d="M466.274 1312.8h350.577V977.991H466.274z"/></clipPath><clipPath id="Q" clipPathUnits="userSpaceOnUse"><path d="M621.406 602.455h160.552V476.542H621.406z"/></clipPath><clipPath id="P" clipPathUnits="userSpaceOnUse"><path d="M0 1513.117h1791.649V0H0z"/></clipPath><clipPath id="cg" clipPathUnits="userSpaceOnUse"><path d="M960.003 996.317l108.305-103.547 48.616-160.741c41.393-4.891 52.377 42.587 52.379 47.456 0 4.871-54.726 118.131-64.46 130.311-9.734 12.18-148.483 104.786-148.483 104.786z"/></clipPath><clipPath id="ch" clipPathUnits="userSpaceOnUse"><path d="M950.857 1025.63h228.183V738.099H950.857z"/></clipPath><clipPath id="cj" clipPathUnits="userSpaceOnUse"><path d="M950.881 1014.584s147.875-103.567 150.308-108.439c2.432-4.871 54.319-119.347 58.775-136.395 4.455-17.047-7.728-31.651-7.728-31.651l26.808 41.382-109.471 202.168s-109.553 46.324-114.425 43.892c-4.871-2.433-4.267-10.957-4.267-10.957"/></clipPath><clipPath id="N" clipPathUnits="userSpaceOnUse"><path d="M656.132 266.368h375.758V0H656.132z"/></clipPath><clipPath id="bL" clipPathUnits="userSpaceOnUse"><path d="M1044.92 558.267h51.13v-431.73h-51.13z"/></clipPath><mask id="Y" height="1" width="1" y="0" x="0" maskUnits="userSpaceOnUse"><path d="M-32768 32767h65535v-65535h-65535z" fill="url(#k)"/></mask><mask id="at" height="1" width="1" y="0" x="0" maskUnits="userSpaceOnUse"><path d="M-32768 32767h65535v-65535h-65535z" fill="url(#a)"/></mask><mask id="bT" height="1" width="1" y="0" x="0" maskUnits="userSpaceOnUse"><path d="M-32768 32767h65535v-65535h-65535z" fill="url(#c)"/></mask><mask id="cm" height="1" width="1" y="0" x="0" maskUnits="userSpaceOnUse"><path d="M-32768 32767h65535v-65535h-65535z" fill="url(#d)"/></mask><mask id="ac" height="1" width="1" y="0" x="0" maskUnits="userSpaceOnUse"><path d="M-32768 32767h65535v-65535h-65535z" fill="url(#e)"/></mask><mask id="bO" height="1" width="1" y="0" x="0" maskUnits="userSpaceOnUse"><path d="M-32768 32767h65535v-65535h-65535z" fill="url(#f)"/></mask><mask id="ai" height="1" width="1" y="0" x="0" maskUnits="userSpaceOnUse"><path d="M-32768 32767h65535v-65535h-65535z" fill="url(#g)"/></mask><mask id="am" height="1" width="1" y="0" x="0" maskUnits="userSpaceOnUse"><path d="M-32768 32767h65535v-65535h-65535z" fill="url(#h)"/></mask><mask id="bE" height="1" width="1" y="0" x="0" maskUnits="userSpaceOnUse"><path d="M-32768 32767h65535v-65535h-65535z" fill="url(#i)"/></mask><mask id="cc" height="1" width="1" y="0" x="0" maskUnits="userSpaceOnUse"><path d="M-32768 32767h65535v-65535h-65535z" fill="url(#j)"/></mask><mask id="ci" height="1" width="1" y="0" x="0" maskUnits="userSpaceOnUse"><path d="M-32768 32767h65535v-65535h-65535z" fill="url(#b)"/></mask><mask id="bt" height="1" width="1" y="0" x="0" maskUnits="userSpaceOnUse"><path d="M-32768 32767h65535v-65535h-65535z" fill="url(#l)"/></mask><mask id="bn" height="1" width="1" y="0" x="0" maskUnits="userSpaceOnUse"><path d="M-32768 32767h65535v-65535h-65535z" fill="url(#m)"/></mask><mask id="aD" height="1" width="1" y="0" x="0" maskUnits="userSpaceOnUse"><path d="M-32768 32767h65535v-65535h-65535z" fill="url(#n)"/></mask><mask id="bj" height="1" width="1" y="0" x="0" maskUnits="userSpaceOnUse"><path d="M-32768 32767h65535v-65535h-65535z" fill="url(#o)"/></mask><mask id="aI" height="1" width="1" y="0" x="0" maskUnits="userSpaceOnUse"><path d="M-32768 32767h65535v-65535h-65535z" fill="url(#p)"/></mask><mask id="bb" height="1" width="1" y="0" x="0" maskUnits="userSpaceOnUse"><path d="M-32768 32767h65535v-65535h-65535z" fill="url(#q)"/></mask><mask id="aX" height="1" width="1" y="0" x="0" maskUnits="userSpaceOnUse"><path d="M-32768 32767h65535v-65535h-65535z" fill="url(#r)"/></mask><mask id="aR" height="1" width="1" y="0" x="0" maskUnits="userSpaceOnUse"><path d="M-32768 32767h65535v-65535h-65535z" fill="url(#s)"/></mask><mask id="bx" height="1" width="1" y="0" x="0" maskUnits="userSpaceOnUse"><path d="M-32768 32767h65535v-65535h-65535z" fill="url(#t)"/></mask></defs><path d="M289.188 701.524c-11.445-152.125 468.917-672.883 767.21-585.495 289.85 84.914 280.206 932.706 124.379 1056.263-22.345 17.717-58.336 25.846-103.405 25.841-247.952-.03-769.35-246.264-788.184-496.609" fill="url(#u)" transform="matrix(1.33333 0 0 -1.33333 -385.316 1698.467)"/><g clip-path="url(#v)" transform="matrix(1.33333 0 0 -1.33333 -385.316 1698.467)"><g clip-path="url(#w)" opacity=".1"><path d="M892.686 735.201l-35.419-8.571c-5.794-1.402-11.68 2.191-13.082 7.984l-4.166 17.216c-1.402 5.792 2.191 11.679 7.984 13.081l35.42 8.571c5.793 1.401 11.68-2.192 13.081-7.985l4.166-17.214c1.402-5.793-2.191-11.68-7.984-13.082" fill="url(#x)"/></g><g clip-path="url(#y)" opacity=".1"><path d="M447.072 906.554l-35.42-8.571c-5.793-1.402-11.679 2.19-13.081 7.984l-4.166 17.215c-1.401 5.793 2.191 11.68 7.984 13.081l35.42 8.571c5.793 1.403 11.679-2.19 13.081-7.983l4.166-17.216c1.402-5.793-2.191-11.679-7.984-13.081" fill="url(#z)"/></g><g clip-path="url(#A)" opacity=".1"><path d="M1080.124 864.731l-35.42-8.571c-5.793-1.402-11.679 2.191-13.081 7.984l-4.166 17.215c-1.402 5.793 2.191 11.68 7.984 13.082l35.419 8.57c5.793 1.403 11.68-2.19 13.082-7.983l4.166-17.216c1.402-5.793-2.191-11.68-7.984-13.081" fill="url(#B)"/></g></g><g clip-path="url(#C)" transform="matrix(1.33333 0 0 -1.33333 -385.316 1698.467)"><g clip-path="url(#D)" opacity=".49"><path d="M996.142 1233.273s52.131-482.177 503.65-482.608c451.519-.429-386.68 697.811-386.68 697.811s-129.977-148.372-116.97-215.203" fill="url(#E)"/></g><g clip-path="url(#F)" opacity=".49"><path d="M810.617 1270.132s223.612-430.36 644.485-266.853c420.874 163.507-613.616 509.838-613.616 509.838s-67.249-185.435-30.869-242.985" fill="url(#G)"/></g><g clip-path="url(#H)" opacity=".33"><path d="M9.276 1133.542s-96.581-475.273 333.535-612.64c430.116-137.366-156.799 782.224-156.799 782.224S17.153 1201.169 9.276 1133.542" fill="url(#I)"/></g><g clip-path="url(#J)" opacity=".34"><path d="M1622.065 643.868s-475.274 96.581-612.64-333.536c-137.366-430.116 782.224 156.799 782.224 156.799s-101.957 168.859-169.584 176.737" fill="url(#K)"/></g><g clip-path="url(#L)" opacity=".41"><path d="M466.274 977.991c4.075 1.908 372.143 82.273 349.581 195.511-22.563 113.239-188.372 139.295-188.372 139.295z" fill="url(#M)"/></g><g clip-path="url(#N)" opacity=".24"><path d="M1031.889 0C1028.671 3.145 824.087 319.497 726 258.58c-98.087-60.916-64.215-225.308-64.215-225.308z" fill="url(#O)"/></g></g><g clip-path="url(#P)" transform="matrix(1.33333 0 0 -1.33333 -385.316 1698.467)"><g clip-path="url(#Q)" opacity=".26"><path d="M773.67 506.059l-120.724-29.214c-5.793-1.401-11.68 2.192-13.082 7.985l-18.155 75.027c-1.402 5.793 2.191 11.68 7.984 13.082l120.724 29.213c5.793 1.401 11.68-2.192 13.082-7.985l18.155-75.027c1.402-5.793-2.191-11.68-7.984-13.081" fill="url(#R)"/></g></g><path d="M550.518 886.956c-2.454-36.524 35.287-42.633 1.177-76.705-34.109-34.073-68.198-31.62-65.796-92.496 1.717-43.492 61.872-37.303 106.745-31.114 17.938 2.475 33.435 4.949 41.779 4.249 29.221-2.451 71.068-39.596 114.446-4.932 36.542 29.203 9.771 56.002.043 80.358-8.941 22.386 34.398 23.864 29.245 46.251-7.288 31.659-59.653 10.989-91.275 74.317-1.088 2.179-2.448 55.035-70.586 58.479a68.841 68.841 0 01-3.371.086c-46.097.006-61.769-49.002-62.407-58.493" fill="url(#S)" transform="matrix(1.33333 0 0 -1.33333 -385.316 1698.467)"/><g clip-path="url(#T)" transform="matrix(1.33333 0 0 -1.33333 -385.316 1698.467)"><g clip-path="url(#U)" opacity=".5"><path d="M647.948 938.04c-34.085 12.194-63.311 2.469-75.495-14.57-12.184-17.039-24.366-29.207-12.207-60.87 12.158-31.662 12.157-34.097-2.462-51.135-20.183-23.52-48.718-31.63-60.905-53.539-7.941-14.274-21.949-63.3 23.297-73.673 35.356-8.105 35.099-11.585 35.099-11.585s-109.575 4.929-104.682 48.757c4.893 43.828 41.481 160.692 41.481 160.692s58.469 51.105 75.517 55.966c17.048 4.862 85.066 35.85 80.357-.043" fill="url(#V)"/></g></g><g clip-path="url(#W)" transform="matrix(1.33333 0 0 -1.33333 -385.316 1698.467)"><g clip-path="url(#X)"><g mask="url(#Y)" clip-path="url(#Z)" opacity=".3"><path d="M589.478 884.5s19.46-38.97-12.214-73.044c-31.674-34.075-80.39-63.27-51.188-97.375 29.203-34.107 131.473-39.032 131.473-39.032s53.556-29.249 63.326 26.752c9.769 56.002-24.303 90.922-14.555 106.339 9.749 15.417-26.762 44.657-46.242 44.667-19.481.011-70.6 31.693-70.6 31.693" fill="url(#aa)"/></g></g><g clip-path="url(#ab)"><g mask="url(#ac)" clip-path="url(#ad)" opacity=".3"><path d="M621.109 838.218s-11.639-39.073-53.616-85.199c-24.365-26.772 4.84-56.009 41.365-58.463 36.524-2.455 88.402-41.417 90.104 12.127 2.476 77.921-53.517 104.736-60.823 102.305-7.306-2.431-17.03 29.23-17.03 29.23" fill="url(#ae)"/></g></g></g><path d="M844.03 1051.168c-12.186-19.475 1.197-37.745 1.197-37.745 19.479-4.88 28.004 1.204 32.878 8.505 4.874 7.303 4.898 53.569 4.907 68.18.007 14.611 2.449 26.784-9.727 26.791-12.175.01-17.07-46.258-29.255-65.731" fill="url(#af)" transform="matrix(1.33333 0 0 -1.33333 -385.316 1698.467)"/><g clip-path="url(#ag)" transform="matrix(1.33333 0 0 -1.33333 -385.316 1698.467)"><g clip-path="url(#ah)"><g mask="url(#ai)" clip-path="url(#aj)" opacity=".2"><path d="M837.937 1040.212s17.04-9.749 26.788 4.857c9.748 14.605 14.645 65.738 7.342 70.612-7.302 4.874-41.424-53.549-34.13-75.469" fill="url(#ak)"/></g></g></g><g clip-path="url(#al)" transform="matrix(1.33333 0 0 -1.33333 -385.316 1698.467)"><g mask="url(#am)"><path d="M872.02 1025.584c-4.829-6.431-20.279-6.482-30.212-5.775 1.661-3.986 3.419-6.386 3.419-6.386 19.479-4.88 28.004 1.204 32.878 8.505 3.557 5.329 4.531 31.408 4.801 50.792-1.733-13.931-5.598-40.092-10.886-47.136" fill="url(#an)"/></g></g><path d="M840.348 996.38s-3.467-18.046-18.298-66.954c-28.05-88.865-1.269-96.184-11.028-132.705-9.514-35.599-63.384-136.33-63.384-136.33 36.649 10.914 53.589-6.53 65.784-23.973 10.132-14.492 16.99-28.985 29.156-27.213 24.412 114.436 19.573 175.314 22.021 197.228 2.312 20.706 6.734 170.675 7.351 188.356a1.595 1.595 0 01-1.538 1.645z" fill="url(#ao)" transform="matrix(1.33333 0 0 -1.33333 -385.316 1698.467)"/><g clip-path="url(#ap)" transform="matrix(1.33333 0 0 -1.33333 -385.316 1698.467)"><g clip-path="url(#aq)" opacity=".2"><path d="M737.892 648.221s10.843-.113 21.926 19.469c31.685 55.99 63.373 116.849 60.952 143.637-8.649 95.694 14.67 112.004 22.011 180.182 5.77 53.593 14.628 34.083 14.628 34.083l-29.224-7.29-68.289-202.073 17.01-65.756z" fill="url(#ar)"/></g><g clip-path="url(#as)"><g mask="url(#at)" clip-path="url(#au)" opacity=".4"><path d="M854.967 1013.418s12.115-114.454-2.527-175.323c-7.404-30.777-24.365-26.772-24.365-26.772-2.442-12.174 30.081 2.702 19.448-60.887-21.985-131.481-41.465-131.472-41.465-131.472l31.632-43.847 75.551 121.713 17.207 304.373-14.599 21.923z" fill="url(#av)"/></g></g></g><path d="M600.268 904.576c-8.008-9.858-36.528-44.05-16.906-72.426 21.9-31.668 77.911-21.957 75.499 21.876 0 0-39.55-6.977-55.006 49.797-.264.969-1.123 1.513-1.996 1.513a2.03 2.03 0 01-1.591-.76" fill="url(#aw)" transform="matrix(1.33333 0 0 -1.33333 -385.316 1698.467)"/><path d="M622.344 813.648l10.909-33.878 9.729-21.921 3.688 65.169s-12.121-8.378-24.326-9.37" fill="url(#ax)" transform="matrix(1.33333 0 0 -1.33333 -385.316 1698.467)"/><path d="M764.689 670.123c-17.507-4.11-26.797-21.902-26.797-21.902l-7.358-99.833s21.851-121.765 16.948-185.074c-4.231-54.607-2.178-183.037-3.769-217.935-.21-4.606 2.708-12.595 7.299-12.179l14.61-.008c.249.022 34.156 121.734 36.605 148.52 3.575 39.1-4.824 87.663-4.824 87.663s10.784 113.178 28.085 154.611c15.615 37.399 29.249 53.557 17.098 99.829-8.242 31.388-27.446 48.933-56.857 48.932-6.514-.001-13.533-.862-21.04-2.624" fill="url(#ay)" transform="matrix(1.33333 0 0 -1.33333 -385.316 1698.467)"/><g clip-path="url(#az)" transform="matrix(1.33333 0 0 -1.33333 -385.316 1698.467)"><g clip-path="url(#aA)" opacity=".2"><path d="M730.539 558.128c7.297-14.614 19.43-94.977 24.277-138.811-.022-41.396-7.437-248.372-5.012-267.854 2.425-19.482-20.711-24.746-20.711-24.746l-25.42 280.451s9.731 159.352 26.866 150.96" fill="url(#aB)"/></g><g clip-path="url(#aC)"><g mask="url(#aD)" clip-path="url(#aE)" opacity=".4"><path d="M759.535 134.413c.001 2.434 19.52 75.476 24.405 102.259 4.884 26.784 7.345 75.483 4.924 102.27-2.421 26.787-14.604 12.182-12.159 31.662 2.446 19.479 7.352 87.658 4.949 148.536 19.481-.011 46.273 12.15 66.995 57.189 20.721 45.037 8.457-122.975 8.457-122.975l-14.74-245.934-38.997-68.161-24.355-7.292z" fill="url(#aF)"/></g></g></g><path d="M687.686 106.448c-29.224-7.29-31.667-21.899-31.67-26.77-.002-4.87 24.345-9.752 75.487-.04 51.141 9.714 37.753 18.243 37.762 35.289.009 17.218.013 24.351-2.422 24.352-7.307-2.432-22.16.226-22.16.226s-27.773-25.768-56.997-33.057" fill="url(#aG)" transform="matrix(1.33333 0 0 -1.33333 -385.316 1698.467)"/><g clip-path="url(#aH)" transform="matrix(1.33333 0 0 -1.33333 -385.316 1698.467)"><g mask="url(#aI)"><path d="M763.172 138.508c1.329-5.878 2.675-14.891 1.222-23.579-2.442-14.608 4.862-17.048-9.752-24.345-13.948-6.964-67.821-13.169-83.291-16.184 12.35-1.014 32.268-.057 60.152 5.238 51.141 9.714 37.753 18.243 37.762 35.289.009 17.218.013 24.351-2.422 24.352-1.082-.361-2.33-.609-3.671-.771" fill="url(#aJ)"/></g></g><path d="M568.761 849.203l9.939-7.974 2.837 34.268c-.588-1.95-12.776-26.294-12.776-26.294" fill="url(#aK)" transform="matrix(1.33333 0 0 -1.33333 -385.316 1698.467)"/><path d="M591.902 863.801c0-.134.032-3.302 2.927-5.488 1.738-1.311 4.077-1.968 7.002-1.97 2.475-.001 5.37.467 8.666 1.407.647.185 1.021.859.835 1.505a1.217 1.217 0 01-1.505.838c-7.94-2.267-11.721-1.179-13.491.134-1.892 1.403-1.993 3.393-1.999 3.573h.024-.024v.01a1.217 1.217 0 01-2.435-.009" fill="url(#aL)" transform="matrix(1.33333 0 0 -1.33333 -385.316 1698.467)"/><path d="M578.437 727.445c-11.988-17.962 1.653-43.539 17.007-70.625 51.09-90.125 135.09-108.432 135.09-108.432 19.502 41.386 8.576 101.05 8.576 101.05-38.966-7.284-55.963 82.822-55.963 82.822-26.779 12.189-49.891 52.38-49.891 52.38s-30.45-20.681-54.819-57.195" fill="url(#aM)" transform="matrix(1.33333 0 0 -1.33333 -385.316 1698.467)"/><g clip-path="url(#aN)" transform="matrix(1.33333 0 0 -1.33333 -385.316 1698.467)"><g clip-path="url(#aO)" opacity=".2"><path d="M642.996 784.635s-60.901-46.234-65.782-68.147c-4.882-21.913 53.501-131.522 138.714-158.352 85.213-26.831 116.879-7.367 116.879-7.367s-124.199-21.85-138.803-9.667c-14.604 12.183-121.709 82.856-128.987 133.996-7.279 51.141 46.325 111.988 60.938 116.851 14.613 4.862 17.041-7.314 17.041-7.314" fill="url(#aP)"/></g><g clip-path="url(#aQ)"><g mask="url(#aR)" clip-path="url(#aS)" opacity=".3"><path d="M604.035 784.656s-9.767-51.131 29.185-68.198c38.952-17.066 55.974-60.906 46.226-75.511-9.748-14.605-43.854-43.808 38.921-75.507 82.775-31.7 70.37 109.54 70.37 109.54l-87.32 70.663-63.28 58.475z" fill="url(#aT)"/></g></g></g><path d="M878.107 1026.798c1.216-3.652-1.22-6.086-1.22-6.086-9.747-12.17-32.877-6.071-32.877-6.071s-138.846-92.458-148.593-104.628c-9.747-12.171-64.596-125.372-64.599-130.242-.002-4.87 10.931-52.36 52.329-47.511l48.786 160.688L840.348 996.38c14.611-.007 40.174-8.544 45.056 13.37 3.38 15.175-1.421 17.508-4.693 17.508-1.452 0-2.604-.46-2.604-.46" fill="url(#aU)" transform="matrix(1.33333 0 0 -1.33333 -385.316 1698.467)"/><g clip-path="url(#aV)" transform="matrix(1.33333 0 0 -1.33333 -385.316 1698.467)"><g clip-path="url(#aW)"><g mask="url(#aX)" clip-path="url(#aY)" opacity=".2"><path d="M849.489 1014.638s-147.984-103.411-150.422-108.28c-2.437-4.868-54.446-119.289-58.919-136.332-4.474-17.043 7.694-31.659 7.694-31.659l-26.764 41.41 109.685 202.052s109.602 46.208 114.471 43.769c4.869-2.437 4.255-10.96 4.255-10.96" fill="url(#aZ)"/></g></g></g><g clip-path="url(#ba)" transform="matrix(1.33333 0 0 -1.33333 -385.316 1698.467)"><g mask="url(#bb)"><path d="M718.535 881.997c-1.267-3.791-53.645-137.146-59.736-145.261a4.724 4.724 0 01-.242-.352c6.654-3.477 14.763-5.275 24.59-4.124l48.786 160.688.741.707c-6.328-3.401-12.87-7.858-14.139-11.658" fill="url(#bc)"/></g></g><path d="M1184.001 945.062c-68.141-3.37-69.557-56.226-70.647-58.404-31.69-63.294-84.033-42.569-91.354-74.221-5.177-22.381 38.16-23.905 29.195-46.281-9.753-24.346-36.552-51.118-.042-80.357 43.342-34.711 85.228 2.39 114.451 4.81 8.351.691 23.864-1.805 41.819-4.3 44.861-6.234 104.97-12.469 106.734 31.007 2.466 60.874-31.626 58.458-65.699 92.566-34.072 34.109 3.674 40.177 1.259 76.704-.628 9.496-16.27 58.559-62.413 58.558-1.084 0-2.185-.027-3.303-.082" fill="url(#bd)" transform="matrix(1.33333 0 0 -1.33333 -385.316 1698.467)"/><g clip-path="url(#be)" transform="matrix(1.33333 0 0 -1.33333 -385.316 1698.467)"><g clip-path="url(#bf)" opacity=".5"><path d="M1152.341 937.774c34.098 12.157 63.313 2.401 75.479-14.651 12.167-17.051 24.336-29.233 12.144-60.882-12.192-31.65-12.194-34.084 2.408-51.138 20.157-23.542 48.684-31.682 60.848-53.604 7.925-14.283 21.882-63.323-23.375-73.647-35.365-8.068-35.112-11.549-35.112-11.549s109.58 4.813 104.733 48.647c-4.846 43.833-41.311 160.735-41.311 160.735s-58.414 51.167-75.457 56.046c-17.042 4.88-85.028 35.94-80.357.043" fill="url(#bg)"/></g></g><g clip-path="url(#bh)" transform="matrix(1.33333 0 0 -1.33333 -385.316 1698.467)"><g clip-path="url(#bi)"><g mask="url(#bj)" clip-path="url(#bk)" opacity=".3"><path d="M1210.755 884.171s-19.501-38.95 12.136-73.057c31.638-34.108 80.323-63.355 51.085-97.43-29.239-34.075-131.514-38.892-131.514-38.892s-53.586-29.192-63.297 26.82c-9.711 56.011 24.399 90.896 14.667 106.323-9.733 15.427 26.809 44.629 46.289 44.618 19.481-.01 70.634 31.618 70.634 31.618" fill="url(#bl)"/></g></g><g clip-path="url(#bm)"><g mask="url(#bn)" clip-path="url(#bo)" opacity=".3"><path d="M1179.074 837.922s11.598-39.085 53.527-85.256c24.336-26.797-4.9-56.002-41.428-58.419-36.526-2.416-88.445-41.323-90.09 12.223-2.394 77.924 53.627 104.68 60.93 102.24 7.305-2.438 17.061 29.212 17.061 29.212" fill="url(#bp)"/></g></g></g><path d="M917.439 1090.089c-.008-14.61-.032-60.876 4.834-68.184s13.386-13.4 32.869-8.54c0 0 13.403 18.255 1.238 37.743-12.166 19.487-17.011 65.756-29.187 65.761-12.175.01-9.747-12.169-9.754-26.78" fill="url(#bq)" transform="matrix(1.33333 0 0 -1.33333 -385.316 1698.467)"/><g clip-path="url(#br)" transform="matrix(1.33333 0 0 -1.33333 -385.316 1698.467)"><g clip-path="url(#bs)"><g mask="url(#bt)" clip-path="url(#bu)" opacity=".2"><path d="M962.461 1040.147s-17.05-9.731-26.783 4.884c-9.733 14.616-14.575 65.755-7.268 70.621 7.308 4.866 41.368-53.594 34.051-75.505" fill="url(#bv)"/></g></g></g><g clip-path="url(#bw)" transform="matrix(1.33333 0 0 -1.33333 -385.316 1698.467)"><g mask="url(#bx)"><path d="M922.273 1021.905c4.866-7.308 13.386-13.4 32.869-8.54 0 0 1.76 2.398 3.426 6.382-9.934-.696-25.383-.629-30.205 5.807-5.281 7.049-9.118 33.21-10.837 47.144.249-19.384 1.196-45.461 4.747-50.793" fill="url(#by)"/></g></g><path d="M928.4 994.758c.597-17.679 4.862-167.654 7.152-188.362 2.423-21.917-2.479-82.792 21.811-197.252 12.161-1.784 19.033 12.695 29.178 27.174 12.214 17.433 29.172 34.866 65.816 23.912 0 0-53.763 100.787-63.239 136.396-9.721 36.532 17.069 43.823-10.887 132.718-14.78 48.923-18.228 66.973-18.228 66.973l-30.063.085a1.592 1.592 0 01-1.54-1.644" fill="url(#bz)" transform="matrix(1.33333 0 0 -1.33333 -385.316 1698.467)"/><g clip-path="url(#bA)" transform="matrix(1.33333 0 0 -1.33333 -385.316 1698.467)"><g clip-path="url(#bB)" opacity=".2"><path d="M1062.091 648.049s-10.844-.101-21.905 19.492c-31.626 56.024-63.25 116.917-60.801 143.702 8.75 95.685-14.55 112.02-21.819 180.206-5.715 53.598-14.593 34.098-14.593 34.098l29.217-7.321 68.074-202.145-17.08-65.738z" fill="url(#bC)"/></g><g clip-path="url(#bD)"><g mask="url(#bE)" clip-path="url(#bF)" opacity=".4"><path d="M945.401 1013.371s-12.235-114.442 2.343-175.327c7.371-30.785 24.336-26.797 24.336-26.797 2.429-12.177-30.078 2.733-19.512-60.867 21.846-131.505 41.326-131.515 41.326-131.515l-31.679-43.814-75.422 121.792-16.885 304.392 14.622 21.908z" fill="url(#bG)"/></g></g></g><path d="M1196.398 903.51c-15.515-56.758-55.059-49.74-55.059-49.74-2.458-43.829 53.543-53.6 75.475-21.955 19.653 28.355-8.831 62.577-16.828 72.442a2.03 2.03 0 01-1.593.763c-.872 0-1.731-.543-1.995-1.51" fill="url(#bH)" transform="matrix(1.33333 0 0 -1.33333 -385.316 1698.467)"/><path d="M1157.116 757.577l9.752 21.91 10.946 33.867c-12.205 1.005-24.316 9.395-24.316 9.395z" fill="url(#bI)" transform="matrix(1.33333 0 0 -1.33333 -385.316 1698.467)"/><path d="M957.37 623.754c-12.199-46.259 1.418-62.431 16.993-99.846 17.256-41.451 27.921-154.641 27.921-154.641s-8.45-48.555-4.917-87.659c2.421-26.787 36.199-148.535 36.448-148.557l14.61-.009c4.59-.42 7.517 7.567 7.312 12.171-1.554 34.9.634 163.329-3.537 217.94-4.837 63.314 17.143 185.055 17.143 185.055l-7.252 99.841s-9.271 17.802-26.774 21.93c-7.536 1.777-14.579 2.646-21.116 2.646-29.366.001-48.562-17.52-56.831-48.871" fill="url(#bJ)" transform="matrix(1.33333 0 0 -1.33333 -385.316 1698.467)"/><g clip-path="url(#bK)" transform="matrix(1.33333 0 0 -1.33333 -385.316 1698.467)"><g clip-path="url(#bL)" opacity=".2"><path d="M1069.348 557.949c-7.312-14.607-19.53-94.957-24.424-138.785-.022-41.397 7.174-248.38 4.729-267.86-2.446-19.478 20.685-24.767 20.685-24.767l25.716 280.424s-9.562 159.361-26.706 150.988" fill="url(#bM)"/></g><g clip-path="url(#bN)"><g mask="url(#bO)" clip-path="url(#bP)" opacity=".4"><path d="M1039.903 134.264c0 2.435-19.44 75.497-24.296 102.285-4.856 26.788-7.265 75.491-4.816 102.276 2.449 26.784 14.617 12.167 12.192 31.649-2.425 19.482-7.259 87.666-4.791 148.541-19.481.01-46.26 12.199-66.934 57.259-20.674 45.059-8.588-122.966-8.588-122.966l14.48-245.948 38.925-68.202 24.347-7.319z" fill="url(#bQ)"/></g></g></g><path d="M1032.601 139.138c-2.436.001-2.439-7.131-2.448-24.349-.01-17.045-13.406-25.561 37.725-35.329s75.484-4.909 75.487-.039c0 4.869-2.425 19.481-31.642 26.802-29.217 7.32-56.963 33.118-56.963 33.118s-14.855-2.643-22.159-.203" fill="url(#bR)" transform="matrix(1.33333 0 0 -1.33333 -385.316 1698.467)"/><g clip-path="url(#bS)" transform="matrix(1.33333 0 0 -1.33333 -385.316 1698.467)"><g mask="url(#bT)"><path d="M1030.153 114.789c-.01-17.045-13.406-25.561 37.725-35.329 27.875-5.325 47.794-6.303 60.145-5.302-15.466 3.032-69.332 9.293-83.272 16.272-14.607 7.314-7.3 9.744-9.728 24.357-1.443 8.689-.088 17.7 1.248 23.576-1.341.164-2.588.414-3.67.775-2.436.001-2.439-7.131-2.448-24.349" fill="url(#bU)"/></g></g><path d="M1221.486 840.889l9.948 7.963s-12.163 24.358-12.749 26.308z" fill="url(#bV)" transform="matrix(1.33333 0 0 -1.33333 -385.316 1698.467)"/><path d="M1205.874 863.486v-.01h-.024.024c-.01-.18-.109-2.17-2.003-3.57-1.772-1.31-5.553-2.396-13.492-.121a1.218 1.218 0 01-.672-2.342c3.295-.943 6.189-1.414 8.665-1.415 2.925-.003 5.265.652 7.004 1.962 2.897 2.183 2.932 5.35 2.932 5.485a1.216 1.216 0 01-2.434.011" fill="url(#bW)" transform="matrix(1.33333 0 0 -1.33333 -385.316 1698.467)"/><path d="M1116.924 732.029s-17.093-90.087-56.05-82.761c0 0-10.989-59.654 8.469-101.06 0 0 84.02 18.22 135.204 108.289 15.383 27.071 29.051 52.635 17.082 70.608-24.331 36.538-54.758 57.253-54.758 57.253s-23.155-40.167-49.947-52.329" fill="url(#bX)" transform="matrix(1.33333 0 0 -1.33333 -385.316 1698.467)"/><g clip-path="url(#bY)" transform="matrix(1.33333 0 0 -1.33333 -385.316 1698.467)"><g clip-path="url(#bZ)" opacity=".2"><path d="M1157.13 784.363s60.853-46.299 65.711-68.217c4.858-21.918-53.641-131.465-138.882-158.205-85.242-26.74-116.887-7.243-116.887-7.243s124.177-21.982 138.793-9.814c14.617 12.167 121.797 82.728 129.129 133.86 7.333 51.132-46.206 112.037-60.814 116.915-14.608 4.878-17.05-7.296-17.05-7.296" fill="url(#ca)"/></g><g clip-path="url(#cb)"><g mask="url(#cc)" clip-path="url(#cd)" opacity=".3"><path d="M1196.091 784.342s9.713-51.141-29.256-68.166c-38.97-17.025-56.039-60.846-46.307-75.463 9.733-14.615 43.809-43.854-39.001-75.466-82.808-31.612-70.253 109.615-70.253 109.615l87.395 70.571 63.342 58.407z" fill="url(#ce)"/></g></g></g><path d="M914.962 1009.733c3.795-17.125 20.236-15.675 34.214-14.226 3.912.406 7.632.811 10.827.81l108.305-103.547 48.616-160.741c41.393-4.891 52.377 42.587 52.379 47.456 0 4.871-54.726 118.131-64.46 130.311-9.734 12.18-148.483 104.786-148.483 104.786s-23.136-6.075-32.87 6.105c0 0-2.434 2.437-1.214 6.088 0 0-1.154.462-2.611.462-3.271 0-8.065-2.336-4.703-17.504" fill="url(#cf)" transform="matrix(1.33333 0 0 -1.33333 -385.316 1698.467)"/><g clip-path="url(#cg)" transform="matrix(1.33333 0 0 -1.33333 -385.316 1698.467)"><g clip-path="url(#ch)"><g mask="url(#ci)" clip-path="url(#cj)" opacity=".2"><path d="M950.881 1014.584s147.875-103.567 150.308-108.439c2.432-4.871 54.319-119.347 58.775-136.395 4.455-17.047-7.728-31.651-7.728-31.651l26.808 41.382-109.471 202.168s-109.553 46.324-114.425 43.892c-4.871-2.433-4.267-10.957-4.267-10.957" fill="url(#ck)"/></g></g></g><g clip-path="url(#cl)" transform="matrix(1.33333 0 0 -1.33333 -385.316 1698.467)"><g mask="url(#cm)"><path d="M1068.308 892.77l48.616-160.741c9.823-1.16 17.939.63 24.596 4.098a5.11 5.11 0 01-.243.355c-6.083 8.12-58.32 141.53-59.581 145.323-1.265 3.801-7.802 8.264-14.127 11.672z" fill="url(#cn)"/></g></g><g clip-path="url(#co)" transform="matrix(1.33333 0 0 -1.33333 -385.316 1698.467)"><g clip-path="url(#cp)" opacity=".05"><path d="M823.77 330.274l-35.42-8.571c-5.793-1.402-11.679 2.191-13.081 7.984l-4.166 17.215c-1.402 5.793 2.191 11.68 7.984 13.082l35.419 8.57c5.793 1.403 11.68-2.19 13.082-7.983l4.166-17.216c1.401-5.793-2.191-11.68-7.984-13.081" fill="url(#cq)"/></g><g clip-path="url(#cr)" opacity=".15"><path d="M832.136 1183.278l-35.42-8.571c-5.793-1.402-11.68 2.191-13.082 7.984l-4.165 17.215c-1.402 5.794 2.191 11.679 7.984 13.082l35.419 8.571c5.793 1.401 11.68-2.191 13.082-7.984l4.166-17.216c1.402-5.793-2.191-11.68-7.984-13.081" fill="url(#cs)"/></g><g clip-path="url(#ct)" opacity=".15"><path d="M508.121 524.644l-35.419-8.571c-5.793-1.403-11.68 2.19-13.082 7.984l-4.166 17.215c-1.402 5.793 2.191 11.68 7.984 13.081l35.42 8.571c5.793 1.403 11.68-2.19 13.082-7.983l4.165-17.216c1.402-5.793-2.191-11.68-7.984-13.081" fill="url(#cu)"/></g><g clip-path="url(#cv)" opacity=".15"><path d="M1248.53 250.549l-35.42-8.571c-5.792-1.401-11.679 2.191-13.081 7.984l-4.166 17.215c-1.401 5.793 2.191 11.68 7.984 13.082l35.42 8.571c5.793 1.402 11.679-2.191 13.081-7.984l4.166-17.216c1.402-5.793-2.191-11.679-7.984-13.081" fill="url(#cw)"/></g><g clip-path="url(#cx)" opacity=".15"><path d="M681.278 144.213l-35.419-8.571c-5.793-1.401-11.68 2.191-13.082 7.984l-4.166 17.216c-1.402 5.793 2.191 11.68 7.984 13.081l35.42 8.572c5.793 1.401 11.679-2.192 13.081-7.985l4.166-17.215c1.402-5.794-2.191-11.679-7.984-13.082" fill="url(#cy)"/></g><g clip-path="url(#cz)" opacity=".05"><path d="M1254.42 1177.458l-120.725-29.214c-5.793-1.402-11.679 2.191-13.081 7.984l-18.156 75.027c-1.402 5.793 2.192 11.68 7.985 13.081l120.724 29.214c5.793 1.402 11.679-2.191 13.081-7.984l18.155-75.027c1.402-5.793-2.19-11.68-7.983-13.081" fill="url(#cA)"/></g><g clip-path="url(#cB)" opacity=".1"><path d="M1290.032 429.435l-73.518-17.79c-5.793-1.401-11.68 2.191-13.082 7.984l-10.413 43.036c-1.402 5.792 2.191 11.679 7.984 13.082l73.518 17.79c5.793 1.401 11.68-2.192 13.082-7.985l10.413-43.035c1.402-5.793-2.191-11.68-7.984-13.082" fill="url(#cC)"/></g></g></svg>