<svg xmlns="http://www.w3.org/2000/svg" height="1352.667" width="1394.803"><defs><linearGradient id="b" spreadMethod="pad" gradientTransform="scale(-293.93229 293.93229) rotate(46.823 -3.812 -4.09)" gradientUnits="userSpaceOnUse" y2="0" x2="1" y1="0" x1="0"><stop offset="0" stop-color="#fff"/><stop offset="1" stop-opacity="0" stop-color="#fff"/></linearGradient><linearGradient id="aM" spreadMethod="pad" gradientTransform="scale(-293.93229 293.93229) rotate(46.823 -3.812 -4.09)" gradientUnits="userSpaceOnUse" y2="0" x2="1" y1="0" x1="0"><stop offset="0" stop-color="#945700"/><stop offset="1" stop-color="#ffe5d4"/></linearGradient><linearGradient id="bk" spreadMethod="pad" gradientTransform="matrix(258.05283 -223.47133 -137.74458 -308.05304 1120.652 839.234)" gradientUnits="userSpaceOnUse" y2="0" x2="1" y1="0" x1="0"><stop offset="0" stop-color="#f05f6f"/><stop offset="1" stop-color="#9f2c69"/></linearGradient><linearGradient id="o" spreadMethod="pad" gradientTransform="matrix(198.00002 -554 -554 -198.00002 213.497 640.8)" gradientUnits="userSpaceOnUse" y2="0" x2="1" y1="0" x1="0"><stop offset="0" stop-color="#a8f3f8"/><stop offset="1" stop-color="#6ab2ff"/></linearGradient><linearGradient id="bi" spreadMethod="pad" gradientTransform="matrix(258.05283 -223.47133 -137.74458 -308.05304 619.73 568.571)" gradientUnits="userSpaceOnUse" y2="0" x2="1" y1="0" x1="0"><stop offset="0" stop-color="#f05f6f"/><stop offset="1" stop-color="#9f2c69"/></linearGradient><linearGradient id="q" spreadMethod="pad" gradientTransform="scale(-655.7874 655.7874) rotate(67.479 -1.026 -1.96)" gradientUnits="userSpaceOnUse" y2="0" x2="1" y1="0" x1="0"><stop offset="0" stop-color="#a8f3f8"/><stop offset="1" stop-color="#6ab2ff"/></linearGradient><linearGradient id="bg" spreadMethod="pad" gradientTransform="matrix(616.70123 -455.36057 -365.19409 -669.29089 391.62 121.726)" gradientUnits="userSpaceOnUse" y2="0" x2="1" y1="0" x1="0"><stop offset="0" stop-color="#f05f6f"/><stop offset="1" stop-color="#9f2c69"/></linearGradient><linearGradient id="s" spreadMethod="pad" gradientTransform="scale(733.84205 -733.84205) rotate(63.54 1.114 .006)" gradientUnits="userSpaceOnUse" y2="0" x2="1" y1="0" x1="0"><stop offset="0" stop-color="#fff3f8"/><stop offset="1" stop-color="#fff"/></linearGradient><linearGradient id="t" spreadMethod="pad" gradientTransform="matrix(556 -688 -688 -556 533.96 622.608)" gradientUnits="userSpaceOnUse" y2="0" x2="1" y1="0" x1="0"><stop offset="0" stop-color="#a8f3f8"/><stop offset="1" stop-color="#6a88ff"/></linearGradient><linearGradient id="u" spreadMethod="pad" gradientTransform="matrix(556 -688 -688 -556 530.404 619.734)" gradientUnits="userSpaceOnUse" y2="0" x2="1" y1="0" x1="0"><stop offset="0" stop-color="#a8f3f8"/><stop offset="1" stop-color="#6a88ff"/></linearGradient><linearGradient id="v" spreadMethod="pad" gradientTransform="matrix(879.32324 0 0 -879.32324 363.673 118.499)" gradientUnits="userSpaceOnUse" y2="0" x2="1" y1="0" x1="0"><stop offset="0" stop-color="#f05f6f"/><stop offset="1" stop-color="#9f2c69"/></linearGradient><linearGradient id="be" spreadMethod="pad" gradientTransform="matrix(616.70123 -455.36057 -365.19409 -669.29089 1326.82 469.146)" gradientUnits="userSpaceOnUse" y2="0" x2="1" y1="0" x1="0"><stop offset="0" stop-color="#f05f6f"/><stop offset="1" stop-color="#9f2c69"/></linearGradient><linearGradient id="bc" spreadMethod="pad" gradientTransform="matrix(616.70123 -455.36057 -365.19409 -669.29089 1086.34 562.14)" gradientUnits="userSpaceOnUse" y2="0" x2="1" y1="0" x1="0"><stop offset="0" stop-color="#f05f6f"/><stop offset="1" stop-color="#9f2c69"/></linearGradient><linearGradient id="y" spreadMethod="pad" gradientTransform="matrix(880.77191 0 0 -880.77191 354.981 227.463)" gradientUnits="userSpaceOnUse" y2="0" x2="1" y1="0" x1="0"><stop offset="0" stop-color="#fff"/><stop offset="1" stop-color="#fff"/></linearGradient><linearGradient id="ba" spreadMethod="pad" gradientTransform="matrix(616.70123 -455.36057 -365.19409 -669.29089 516.866 303.613)" gradientUnits="userSpaceOnUse" y2="0" x2="1" y1="0" x1="0"><stop offset="0" stop-color="#f05f6f"/><stop offset="1" stop-color="#9f2c69"/></linearGradient><linearGradient id="aY" spreadMethod="pad" gradientTransform="matrix(616.70123 -455.36057 -365.19409 -669.29089 1078.356 549.059)" gradientUnits="userSpaceOnUse" y2="0" x2="1" y1="0" x1="0"><stop offset="0" stop-color="#f05f6f"/><stop offset="1" stop-color="#9f2c69"/></linearGradient><linearGradient id="aW" spreadMethod="pad" gradientTransform="matrix(616.70123 -455.36057 -365.19409 -669.29089 655.936 691.804)" gradientUnits="userSpaceOnUse" y2="0" x2="1" y1="0" x1="0"><stop offset="0" stop-color="#f05f6f"/><stop offset="1" stop-color="#9f2c69"/></linearGradient><linearGradient id="a" spreadMethod="pad" gradientTransform="scale(734.12534 -734.12534) rotate(-89.689 .735 -.342)" gradientUnits="userSpaceOnUse" y2="0" x2="1" y1="0" x1="0"><stop offset="0" stop-opacity="0" stop-color="#fff"/><stop offset="1" stop-color="#fff"/></linearGradient><linearGradient id="aT" spreadMethod="pad" gradientTransform="scale(124.97805 -124.97805) rotate(40.888 10.55 6.39)" gradientUnits="userSpaceOnUse" y2="0" x2="1" y1="0" x1="0"><stop offset="0" stop-color="#f0806f"/><stop offset="1" stop-color="#d32c69"/></linearGradient><linearGradient id="D" spreadMethod="pad" gradientTransform="scale(734.12534 -734.12534) rotate(-89.689 .735 -.342)" gradientUnits="userSpaceOnUse" y2="0" x2="1" y1="0" x1="0"><stop offset="0" stop-color="#f05f6f"/><stop offset="1" stop-color="#6f2c69"/></linearGradient><linearGradient id="aS" spreadMethod="pad" gradientTransform="scale(106.90472 -106.90472) rotate(23.519 19.021 15.148)" gradientUnits="userSpaceOnUse" y2="0" x2="1" y1="0" x1="0"><stop offset="0" stop-color="#ff826a"/><stop offset="1" stop-color="#ffcbaa"/></linearGradient><linearGradient id="aR" spreadMethod="pad" gradientTransform="scale(29.8346 -29.8346) rotate(23.519 62.765 57.948)" gradientUnits="userSpaceOnUse" y2="0" x2="1" y1="0" x1="0"><stop offset="0" stop-color="#ff826a"/><stop offset="1" stop-color="#ffcbaa"/></linearGradient><linearGradient id="G" spreadMethod="pad" gradientTransform="matrix(1686.014 -1244.9209 -998.41272 -1829.7902 1203.703 193.226)" gradientUnits="userSpaceOnUse" y2="0" x2="1" y1="0" x1="0"><stop offset="0" stop-color="#f05f6f"/><stop offset="1" stop-color="#9f2c69"/></linearGradient><linearGradient id="H" spreadMethod="pad" gradientTransform="scale(-562.32608 562.32608) rotate(-25.715 2.333 5.392)" gradientUnits="userSpaceOnUse" y2="0" x2="1" y1="0" x1="0"><stop offset="0" stop-color="#ff826a"/><stop offset="1" stop-color="#ffcbaa"/></linearGradient><linearGradient id="aQ" spreadMethod="pad" gradientTransform="scale(-316.12028 316.12028) rotate(70.677 -2.445 -2.381)" gradientUnits="userSpaceOnUse" y2="0" x2="1" y1="0" x1="0"><stop offset="0" stop-color="#fff"/><stop offset="1" stop-color="#fff"/></linearGradient><linearGradient id="aN" spreadMethod="pad" gradientTransform="scale(-310.29651 310.29651) rotate(70.677 -2.522 -2.449)" gradientUnits="userSpaceOnUse" y2="0" x2="1" y1="0" x1="0"><stop offset="0" stop-color="#ff826a"/><stop offset=".518" stop-color="#ff826a"/><stop offset="1" stop-color="#ffcbaa"/></linearGradient><linearGradient id="bm" spreadMethod="pad" gradientTransform="matrix(1686.014 -1244.9209 -998.41272 -1829.7902 857.634 814.908)" gradientUnits="userSpaceOnUse" y2="0" x2="1" y1="0" x1="0"><stop offset="0" stop-color="#f05f6f"/><stop offset="1" stop-color="#9f2c69"/></linearGradient><linearGradient id="m" spreadMethod="pad" gradientTransform="matrix(-238.00002 574 574 238.00002 1075.71 632.838)" gradientUnits="userSpaceOnUse" y2="0" x2="1" y1="0" x1="0"><stop offset="0" stop-color="#a8f3f8"/><stop offset="1" stop-color="#6ab2ff"/></linearGradient><linearGradient id="aJ" spreadMethod="pad" gradientTransform="scale(384.8842 -384.8842) rotate(-52.984 .162 -2.975)" gradientUnits="userSpaceOnUse" y2="0" x2="1" y1="0" x1="0"><stop offset="0" stop-color="#ff826a"/><stop offset="1" stop-color="#ffcbaa"/></linearGradient><linearGradient id="d" spreadMethod="pad" gradientTransform="scale(683.4695 -683.4695) rotate(58.262 1.84 .117)" gradientUnits="userSpaceOnUse" y2="0" x2="1" y1="0" x1="0"><stop offset="0" stop-color="#fff"/><stop offset="1" stop-opacity="0" stop-color="#fff"/></linearGradient><linearGradient id="aI" spreadMethod="pad" gradientTransform="scale(-38.54699 38.54699) rotate(-45.659 7.387 35.114)" gradientUnits="userSpaceOnUse" y2="0" x2="1" y1="0" x1="0"><stop offset="0" stop-color="#f05f6f"/><stop offset="1" stop-color="#9f2c69"/></linearGradient><linearGradient id="O" spreadMethod="pad" gradientTransform="scale(683.4695 -683.4695) rotate(58.262 1.84 .117)" gradientUnits="userSpaceOnUse" y2="0" x2="1" y1="0" x1="0"><stop offset="0" stop-color="#945700"/><stop offset="1" stop-color="#ffe5d4"/></linearGradient><linearGradient id="aG" spreadMethod="pad" gradientTransform="matrix(133.47632 0 0 -133.47632 715.04 414.291)" gradientUnits="userSpaceOnUse" y2="0" x2="1" y1="0" x1="0"><stop offset="0" stop-color="#fff"/><stop offset="1" stop-color="#fff"/></linearGradient><linearGradient id="Q" spreadMethod="pad" gradientTransform="matrix(163.11143 0 0 -163.11143 661.22 673.709)" gradientUnits="userSpaceOnUse" y2="0" x2="1" y1="0" x1="0"><stop offset="0" stop-color="#fff"/><stop offset="1" stop-color="#fff"/></linearGradient><linearGradient id="R" spreadMethod="pad" gradientTransform="scale(-358.14036 358.14036) rotate(-66.023 .174 3.131)" gradientUnits="userSpaceOnUse" y2="0" x2="1" y1="0" x1="0"><stop offset="0" stop-color="#00c9ed"/><stop offset="1" stop-color="#0085bf"/></linearGradient><linearGradient id="aD" spreadMethod="pad" gradientTransform="scale(-331.06176 331.06176) rotate(-45.659 .728 4.802)" gradientUnits="userSpaceOnUse" y2="0" x2="1" y1="0" x1="0"><stop offset="0" stop-color="#f05f6f"/><stop offset=".998" stop-color="#512c30"/><stop offset="1" stop-color="#512c30"/></linearGradient><linearGradient id="e" spreadMethod="pad" gradientTransform="scale(-331.06176 331.06176) rotate(-45.659 .728 4.802)" gradientUnits="userSpaceOnUse" y2="0" x2="1" y1="0" x1="0"><stop offset="0" stop-opacity="0" stop-color="#fff"/><stop offset=".998" stop-color="#fff"/><stop offset="1" stop-color="#fff"/></linearGradient><linearGradient id="aw" spreadMethod="pad" gradientTransform="matrix(186.52991 0 0 -186.52991 754.56 438.446)" gradientUnits="userSpaceOnUse" y2="0" x2="1" y1="0" x1="0"><stop offset="0" stop-color="#f09a6f"/><stop offset="1" stop-color="#d62c69"/></linearGradient><linearGradient id="f" spreadMethod="pad" gradientTransform="scale(-361.24327 361.24327) rotate(-83.528 -.256 2.208)" gradientUnits="userSpaceOnUse" y2="0" x2="1" y1="0" x1="0"><stop offset="0" stop-color="#fff"/><stop offset="1" stop-opacity=".5" stop-color="#fff"/></linearGradient><linearGradient id="av" spreadMethod="pad" gradientTransform="scale(239.27203 -239.27203) rotate(-1.418 -30.014 -88.008)" gradientUnits="userSpaceOnUse" y2="0" x2="1" y1="0" x1="0"><stop offset="0" stop-color="#fff"/><stop offset="1" stop-color="#fff"/></linearGradient><linearGradient id="W" spreadMethod="pad" gradientTransform="scale(-361.24327 361.24327) rotate(-83.528 -.256 2.208)" gradientUnits="userSpaceOnUse" y2="0" x2="1" y1="0" x1="0"><stop offset="0" stop-color="#0077ed"/><stop offset="1" stop-color="#004def"/></linearGradient><linearGradient id="at" spreadMethod="pad" gradientTransform="scale(-314.2985 314.2985) rotate(49.695 -2.669 -3.976)" gradientUnits="userSpaceOnUse" y2="0" x2="1" y1="0" x1="0"><stop offset="0" stop-color="#072ed7"/><stop offset=".458" stop-color="#044ccc"/><stop offset="1" stop-color="#006fbf"/></linearGradient><linearGradient id="g" spreadMethod="pad" gradientTransform="scale(-314.2985 314.2985) rotate(49.695 -2.669 -3.976)" gradientUnits="userSpaceOnUse" y2="0" x2="1" y1="0" x1="0"><stop offset="0" stop-color="#fff"/><stop offset=".458" stop-opacity=".771" stop-color="#fff"/><stop offset="1" stop-opacity=".5" stop-color="#fff"/></linearGradient><linearGradient id="h" spreadMethod="pad" gradientTransform="scale(-336.29431 336.29431) rotate(-83.528 -.342 2.361)" gradientUnits="userSpaceOnUse" y2="0" x2="1" y1="0" x1="0"><stop offset="0" stop-color="#fff"/><stop offset="1" stop-opacity=".5" stop-color="#fff"/></linearGradient><linearGradient id="ap" spreadMethod="pad" gradientTransform="scale(150.13715 -150.13715) rotate(86.649 3.994 2.443)" gradientUnits="userSpaceOnUse" y2="0" x2="1" y1="0" x1="0"><stop offset="0" stop-color="#072ed7"/><stop offset="1" stop-color="#006fbf"/></linearGradient><linearGradient id="aa" spreadMethod="pad" gradientTransform="scale(-336.29431 336.29431) rotate(-83.528 -.342 2.361)" gradientUnits="userSpaceOnUse" y2="0" x2="1" y1="0" x1="0"><stop offset="0" stop-color="#0077ed"/><stop offset="1" stop-color="#004def"/></linearGradient><linearGradient id="i" spreadMethod="pad" gradientTransform="scale(150.13715 -150.13715) rotate(86.649 3.994 2.443)" gradientUnits="userSpaceOnUse" y2="0" x2="1" y1="0" x1="0"><stop offset="0" stop-color="#fff"/><stop offset="1" stop-opacity=".5" stop-color="#fff"/></linearGradient><linearGradient id="ac" spreadMethod="pad" gradientTransform="scale(281.23013 -281.23013) rotate(86.649 2.949 .115)" gradientUnits="userSpaceOnUse" y2="0" x2="1" y1="0" x1="0"><stop offset="0" stop-color="#00e2d7"/><stop offset=".471" stop-color="#78f0ea"/><stop offset="1" stop-color="#fff"/></linearGradient><linearGradient id="ad" spreadMethod="pad" gradientTransform="matrix(177.77066 0 0 -177.77066 835.241 89.6)" gradientUnits="userSpaceOnUse" y2="0" x2="1" y1="0" x1="0"><stop offset="0" stop-color="#ff826a"/><stop offset="1" stop-color="#ffcbaa"/></linearGradient><linearGradient id="ak" spreadMethod="pad" gradientTransform="scale(576.22685 -576.22685) rotate(-1.418 -16.306 -40.618)" gradientUnits="userSpaceOnUse" y2="0" x2="1" y1="0" x1="0"><stop offset="0" stop-color="#07bbd7"/><stop offset=".002" stop-color="#07bbd7"/><stop offset="1" stop-color="#0074bf"/></linearGradient><linearGradient id="aj" spreadMethod="pad" gradientTransform="scale(192.83957 -192.83957) rotate(71.11 3.146 2.683)" gradientUnits="userSpaceOnUse" y2="0" x2="1" y1="0" x1="0"><stop offset="0" stop-color="#945700"/><stop offset="1" stop-color="#ffe5d4"/></linearGradient><linearGradient id="ag" spreadMethod="pad" gradientTransform="scale(-71.19793 71.19793) rotate(-53.437 -5.326 14.264)" gradientUnits="userSpaceOnUse" y2="0" x2="1" y1="0" x1="0"><stop offset="0" stop-color="#fff"/><stop offset="1" stop-color="#fff"/></linearGradient><linearGradient id="c" spreadMethod="pad" gradientTransform="scale(192.83957 -192.83957) rotate(71.11 3.146 2.683)" gradientUnits="userSpaceOnUse" y2="0" x2="1" y1="0" x1="0"><stop offset="0" stop-color="#fff"/><stop offset="1" stop-opacity="0" stop-color="#fff"/></linearGradient><linearGradient id="bo" spreadMethod="pad" gradientTransform="matrix(1094.2794 -807.99524 -648.00317 -1187.595 416.563 414.838)" gradientUnits="userSpaceOnUse" y2="0" x2="1" y1="0" x1="0"><stop offset="0" stop-color="#f05f6f"/><stop offset="1" stop-color="#9f2c69"/></linearGradient><linearGradient id="j" spreadMethod="pad" gradientTransform="matrix(556 -688 -688 -556 562.743 645.868)" gradientUnits="userSpaceOnUse" y2="0" x2="1" y1="0" x1="0"><stop offset="0" stop-color="#a8f3f8"/><stop offset="1" stop-color="#6a88ff"/></linearGradient><clipPath id="aK" clipPathUnits="userSpaceOnUse"><path d="M1037.967 657.562l64.586-111.948c3.005-1.203 21.528-6.457 36.598-4.305 15.07 2.153-77.502 116.253-101.184 116.253"/></clipPath><clipPath id="ah" clipPathUnits="userSpaceOnUse"><path d="M918.55 136.546c-10.493 0-23.709-5.484-31.065-8.979 10.871 2.64 31.665 6.686 36.381.396 6.46-8.611 20.991-36.06 43.864-48.17.225-.119.45-.237.673-.352-22.846 19.345-27.302 38.171-37.001 51.752-2.79 3.905-7.459 5.353-12.847 5.353h-.005"/></clipPath><clipPath id="af" clipPathUnits="userSpaceOnUse"><path d="M876.16 89.556h122.423V35.391H876.16z"/></clipPath><clipPath id="ae" clipPathUnits="userSpaceOnUse"><path d="M881.886 124.734l-6.458-38.752C918.485 88.135 968 45.078 985.223 42.926c17.222-2.153 21.529 8.612-8.611 30.14-30.141 21.528-34.447 43.056-45.21 58.127-2.791 3.907-7.462 5.354-12.852 5.353-15.401-.001-36.664-11.812-36.664-11.812"/></clipPath><clipPath id="k" clipPathUnits="userSpaceOnUse"><path d="M632.882 920.747c-156.918-177.768 359.924-493.799-39.504-493.799-311.404 0-500.381-280.916-185.448-385.162C492.768 13.704 580.396.061 665.869 0h1.117c297.756.202 569.241 165.259 606.373 458.936 33.468 264.708-264.415 527.513-484.485 527.534-60.829.006-115.689-20.065-155.992-65.723"/></clipPath><clipPath id="am" clipPathUnits="userSpaceOnUse"><path d="M676.513 235.64h518.097v-99.371H676.513z"/></clipPath><clipPath id="ao" clipPathUnits="userSpaceOnUse"><path d="M835.159 153.309s-66.297 50.004-141.647 52.156c-75.35 2.154 120.265 28.651 187.298 30.14 96.878 2.153 251.824-96.934 306.751-99.059 54.927-2.125-229.249 8.64-229.249 8.64z"/></clipPath><clipPath id="ab" clipPathUnits="userSpaceOnUse"><path d="M742.069 771.585h155.963V547.768H742.069z"/></clipPath><clipPath id="bn" clipPathUnits="userSpaceOnUse"><path d="M243.658 544.769h105.604v-82.498H243.658z"/></clipPath><clipPath id="l" clipPathUnits="userSpaceOnUse"><path d="M639.889 1597.48h500.361V801.265H639.889z"/></clipPath><clipPath id="aq" clipPathUnits="userSpaceOnUse"><path d="M1068.11 435.063h115.67v-212.39h-115.67z"/></clipPath><clipPath id="as" clipPathUnits="userSpaceOnUse"><path d="M1068.107 289.426s85.645-65.264 103.337-66.738c25.834-2.152 8.611 232.508-28.667 210.978-9.496-5.483-48.835-38.751-48.835-38.751z"/></clipPath><clipPath id="Z" clipPathUnits="userSpaceOnUse"><path d="M900.185 646.798s2.153-53.821 23.682-101.183c21.528-47.363-27.988-109.795-10.764-148.546 17.223-38.751 30.139-40.905 25.834-75.35-4.306-34.445-124.865 4.306-127.019 8.611-2.152 4.306 12.634 208.744 2.154 245.424-8.612 30.14 19.376 15.071 12.917 62.433-2.057 15.083 73.196 8.611 73.196 8.611"/></clipPath><clipPath id="bl" clipPathUnits="userSpaceOnUse"><path d="M592.309 1014.5h160.552V888.588H592.309z"/></clipPath><clipPath id="X" clipPathUnits="userSpaceOnUse"><path d="M811.701 648.179h128.07V307.574h-128.07z"/></clipPath><clipPath id="au" clipPathUnits="userSpaceOnUse"><path d="M502.681 298.038h283.404V78.018H502.681z"/></clipPath><clipPath id="n" clipPathUnits="userSpaceOnUse"><path d="M0 1056.83h500.357V260.616H0z"/></clipPath><clipPath id="V" clipPathUnits="userSpaceOnUse"><path d="M922.133 671.923s3.887-76.793 29.721-96.169c24.356-18.267 25.871-44.671 0-94.724-32.974-63.795 23.68-73.198 8.611-133.477-20.689-82.756-111.405-10.779-168.146 9.9-56.742 20.679-45.739 161.953-45.739 161.953l89.02 15.445s-60.605 55.899-30.14 71.043c16.952 8.428 7.315 37.141 11.89 64.586z"/></clipPath><clipPath id="ax" clipPathUnits="userSpaceOnUse"><path d="M0 1597.477h1663.364V0H0z"/></clipPath><clipPath id="ay" clipPathUnits="userSpaceOnUse"><path d="M754.559 597.283h214.517V264.2H754.559z"/></clipPath><clipPath id="az" clipPathUnits="userSpaceOnUse"><path d="M934.169 582.949C710.735 623.118 741.79 420.026 786.084 298.037c0 0 96.878-32.292 150.7 23.682-50.466 62.202-30.14 148.546 4.305 191.603 0 0-2 64.979-6.92 69.627"/></clipPath><clipPath id="aA" clipPathUnits="userSpaceOnUse"><path d="M789.94 597.283h179.136V264.2H789.94z"/></clipPath><clipPath id="aC" clipPathUnits="userSpaceOnUse"><path d="M801.155 595.13s.322-46.874 34.445-60.279c60.279-23.682 67.493-91.318 21.528-129.171-36.598-30.14-88.266-15.07-58.127-103.337 30.141-88.266 137.783 4.306 137.783 4.306l32.292 111.948v75.35l-17.222 94.724-58.127 8.612z"/></clipPath><clipPath id="T" clipPathUnits="userSpaceOnUse"><path d="M745.721 671.923h224.972V308.689H745.721z"/></clipPath><clipPath id="bj" clipPathUnits="userSpaceOnUse"><path d="M1078.79 875.251h27.08v-22.98h-27.08z"/></clipPath><clipPath id="S" clipPathUnits="userSpaceOnUse"><path d="M775.251 641.931c-42.588-33.119 23.046-116.458 68.96-145.832 0 0-124.026-96.689 33.127-150.994 157.153-54.306 151.526 51.45 130.506 84.077-21.019 32.626-18.766 41.903.55 98.372 12.931 37.808-66.43 69.861-53.444 98.391 30.105 66.14-20.073 118.631-55.536 128.649-16.997 4.802-31.067 6.927-42.748 6.928-78.125.008-49.776-94.987-81.415-119.591"/></clipPath><clipPath id="aE" clipPathUnits="userSpaceOnUse"><path d="M786.084 298.038s96.878-32.292 150.7 23.681c-50.467 62.202-32.294 144.241 2.153 187.297 0 0 .152 69.285-4.768 73.933-19.583 3.521-37.235 5.172-53.07 5.174-164.842.017-135.427-178.789-95.015-290.085"/></clipPath><clipPath id="aF" clipPathUnits="userSpaceOnUse"><path d="M715.041 586.519h133.476V242.064H715.041z"/></clipPath><clipPath id="P" clipPathUnits="userSpaceOnUse"><path d="M661.22 825.484h163.111V521.933H661.22z"/></clipPath><clipPath id="aH" clipPathUnits="userSpaceOnUse"><path d="M835.6 599.436h47.363v-23.681H835.6z"/></clipPath><clipPath id="p" clipPathUnits="userSpaceOnUse"><path d="M1163.01 821.245h500.35V5.052h-500.35z"/></clipPath><clipPath id="N" clipPathUnits="userSpaceOnUse"><path d="M857.128 741.524c-2.152 0-99.03 27.986-109.795 12.917-10.763-15.071 60.28-137.782 60.28-137.782l161.463 103.336z"/></clipPath><clipPath id="bh" clipPathUnits="userSpaceOnUse"><path d="M577.87 604.588h27.075v-22.979H577.87z"/></clipPath><clipPath id="L" clipPathUnits="userSpaceOnUse"><path d="M746.223 758.896h222.853V616.659H746.223z"/></clipPath><clipPath id="r" clipPathUnits="userSpaceOnUse"><path d="M381.919 663.972H785.04V399.358H381.919z"/></clipPath><clipPath id="K" clipPathUnits="userSpaceOnUse"><path d="M786.084 526.239s-82.883 196.985-80.731 244.348c2.153 47.363 58.127 27.987 99.031 19.375C845.287 781.351 968 744.752 968 744.752s23.681-2.152 34.446-12.917c10.763-10.763 34.445-45.209 30.139-51.668-7.506-11.258-54.796-12.159-62.432 38.751-201.597 9.028-202.043 29.454-196.986 7.535 6.459-27.987 75.35-146.393 75.35-146.393s-25.834-43.057-62.433-53.821"/></clipPath><clipPath id="J" clipPathUnits="userSpaceOnUse"><path d="M661.22 825.484h371.88V521.933H661.22z"/></clipPath><clipPath id="aO" clipPathUnits="userSpaceOnUse"><path d="M1145.61 524.086c-8.987-3.456-6.459-19.319-6.459-60.279 0-23.682 4.305-49.515 24.686-48.447a.79.79 0 01.072.007l18.299 1.076s13.127 7.898-3.23 63.51c-9.214 31.329-16.849 45.305-27.635 45.304-1.814 0-3.718-.396-5.733-1.171"/></clipPath><clipPath id="aP" clipPathUnits="userSpaceOnUse"><path d="M1121.93 530.545h41.29V409.986h-41.29z"/></clipPath><clipPath id="I" clipPathUnits="userSpaceOnUse"><path d="M0 1597.477h1663.364V0H0z"/></clipPath><clipPath id="F" clipPathUnits="userSpaceOnUse"><path d="M938.378 392.819h160.552V266.906H938.378z"/></clipPath><clipPath id="E" clipPathUnits="userSpaceOnUse"><path d="M0 1597.477h1663.364V0H0z"/></clipPath><clipPath id="bf" clipPathUnits="userSpaceOnUse"><path d="M293.305 195.434h61.258v-47.459h-61.258z"/></clipPath><clipPath id="aU" clipPathUnits="userSpaceOnUse"><path d="M0 1597.477h1663.364V0H0z"/></clipPath><clipPath id="aV" clipPathUnits="userSpaceOnUse"><path d="M557.621 765.511h61.257v-47.458h-61.257z"/></clipPath><clipPath id="C" clipPathUnits="userSpaceOnUse"><path d="M1031.495 118.574c0-45.604-107.988-82.573-241.198-82.573S549.099 72.97 549.099 118.574c0 45.603 107.988 82.572 241.198 82.572s241.198-36.969 241.198-82.572"/></clipPath><clipPath id="aX" clipPathUnits="userSpaceOnUse"><path d="M980.041 622.766h61.259v-47.458h-61.259z"/></clipPath><clipPath id="A" clipPathUnits="userSpaceOnUse"><path d="M549.099 201.146H1031.5V36.001H549.099z"/></clipPath><clipPath id="aZ" clipPathUnits="userSpaceOnUse"><path d="M418.551 377.321h61.257v-47.459h-61.257z"/></clipPath><clipPath id="z" clipPathUnits="userSpaceOnUse"><path d="M632.882 920.747c-156.918-177.768 359.924-493.799-39.504-493.799-311.404 0-500.381-280.916-185.448-385.162C492.768 13.704 580.396.061 665.869 0h1.117c297.756.202 569.241 165.259 606.373 458.936 33.468 264.708-264.415 527.513-484.485 527.534-60.829.006-115.689-20.065-155.992-65.723"/></clipPath><clipPath id="bb" clipPathUnits="userSpaceOnUse"><path d="M988.025 635.848h61.255V588.39h-61.255z"/></clipPath><clipPath id="x" clipPathUnits="userSpaceOnUse"><path d="M354.981 260.54h880.769v-66.155H354.981z"/></clipPath><clipPath id="bd" clipPathUnits="userSpaceOnUse"><path d="M1228.5 542.854h61.26v-47.459h-61.26z"/></clipPath><clipPath id="w" clipPathUnits="userSpaceOnUse"><path d="M363.673 207.41l22.701-157.917a472.95 472.95 0 0121.556-7.707 825.957 825.957 0 01113.865-28.877l322.023 7.407c117.853 27.865 223.449 83.967 300.928 165.513l-25.921 41.244z"/></clipPath><clipPath id="al" clipPathUnits="userSpaceOnUse"><path d="M1166.458 417.521a3.362 3.362 0 01-3.241-2.473c-4.283-15.585-29.044-101.891-25.143-174.06 0 0-176.533 92.572-236.812 86.112-60.28-6.457-114.1-25.833-114.1-25.833s-198.063-60.279-221.743-81.807c-23.682-21.53-51.669-75.35 0-90.421 51.667-15.07 310.009-43.057 310.009-43.057l6.458 38.752s-34.445 21.528-81.808 49.515c0 0 119.483 16.147 233.584-9.688 114.1-25.834 195.908-49.515 194.833-1.076l-45.211 254.036z"/></clipPath><mask id="B" height="1" width="1" y="0" x="0" maskUnits="userSpaceOnUse"><path d="M-32768 32767h65535v-65535h-65535z" fill="url(#a)"/></mask><mask id="aL" height="1" width="1" y="0" x="0" maskUnits="userSpaceOnUse"><path d="M-32768 32767h65535v-65535h-65535z" fill="url(#b)"/></mask><mask id="ai" height="1" width="1" y="0" x="0" maskUnits="userSpaceOnUse"><path d="M-32768 32767h65535v-65535h-65535z" fill="url(#c)"/></mask><mask id="M" height="1" width="1" y="0" x="0" maskUnits="userSpaceOnUse"><path d="M-32768 32767h65535v-65535h-65535z" fill="url(#d)"/></mask><mask id="aB" height="1" width="1" y="0" x="0" maskUnits="userSpaceOnUse"><path d="M-32768 32767h65535v-65535h-65535z" fill="url(#e)"/></mask><mask id="U" height="1" width="1" y="0" x="0" maskUnits="userSpaceOnUse"><path d="M-32768 32767h65535v-65535h-65535z" fill="url(#f)"/></mask><mask id="ar" height="1" width="1" y="0" x="0" maskUnits="userSpaceOnUse"><path d="M-32768 32767h65535v-65535h-65535z" fill="url(#g)"/></mask><mask id="Y" height="1" width="1" y="0" x="0" maskUnits="userSpaceOnUse"><path d="M-32768 32767h65535v-65535h-65535z" fill="url(#h)"/></mask><mask id="an" height="1" width="1" y="0" x="0" maskUnits="userSpaceOnUse"><path d="M-32768 32767h65535v-65535h-65535z" fill="url(#i)"/></mask></defs><path d="M632.882 920.747c-156.918-177.768 359.924-493.799-39.504-493.799-311.404 0-500.381-280.916-185.448-385.162C492.768 13.704 580.396.061 665.869 0h1.117c297.756.202 569.241 165.259 606.373 458.936 33.468 264.708-264.415 527.513-484.485 527.534-60.829.006-115.689-20.065-155.992-65.723" fill="url(#j)" transform="matrix(1.33333 0 0 -1.33333 -324.877 1352.667)"/><g clip-path="url(#k)" transform="matrix(1.33333 0 0 -1.33333 -324.877 1352.667)"><g clip-path="url(#l)" opacity=".48"><path d="M649.165 1427.893s-96.581-475.273 333.536-612.64c430.116-137.366-156.799 782.224-156.799 782.224s-168.859-101.956-176.737-169.584" fill="url(#m)"/></g><g clip-path="url(#n)" opacity=".33"><path d="M9.276 887.244s-96.581-475.274 333.535-612.64c430.116-137.366-156.799 782.224-156.799 782.224S17.154 954.871 9.276 887.244" fill="url(#o)"/></g><g clip-path="url(#p)" opacity=".54"><path d="M1172.283 631.68s-96.581-475.272 333.536-612.64c430.116-137.366-156.799 782.225-156.799 782.225S1214.919 907.08 1172.283 631.68" fill="url(#q)"/></g><g clip-path="url(#r)" opacity=".24"><path d="M381.919 429.119c4.5 0 371.915-83.298 399.501 28.823 27.585 112.12-111.528 206.03-111.528 206.03z" fill="url(#s)"/></g></g><path d="M485.84 581.672c0-34.544 36.355-62.547 81.202-62.547s81.203 28.003 81.203 62.547-36.356 62.548-81.203 62.548-81.202-28.004-81.202-62.548" fill="url(#t)" transform="matrix(1.33333 0 0 -1.33333 -324.877 1352.667)"/><path d="M428.78 695.245c0-17.272 18.176-31.273 40.6-31.273 22.424 0 40.601 14.001 40.601 31.273 0 17.273-18.177 31.274-40.601 31.274s-40.6-14.001-40.6-31.274" fill="url(#u)" transform="matrix(1.33333 0 0 -1.33333 -324.877 1352.667)"/><path d="M363.673 207.41l22.701-157.917a472.95 472.95 0 0121.556-7.707 825.957 825.957 0 01113.865-28.877l322.023 7.407c117.853 27.865 223.449 83.967 300.928 165.513l-25.921 41.244z" fill="url(#v)" transform="matrix(1.33333 0 0 -1.33333 -324.877 1352.667)"/><g clip-path="url(#w)" transform="matrix(1.33333 0 0 -1.33333 -324.877 1352.667)"><g clip-path="url(#x)" opacity=".2"><path d="M363.673 194.385l872.08 25.593-17.384 40.561-863.388-26.075z" fill="url(#y)"/></g></g><g clip-path="url(#z)" transform="matrix(1.33333 0 0 -1.33333 -324.877 1352.667)"><g clip-path="url(#A)"><g mask="url(#B)" clip-path="url(#C)" opacity=".5"><path d="M1031.495 118.574c0-45.604-107.988-82.573-241.198-82.573S549.099 72.97 549.099 118.574c0 45.603 107.988 82.572 241.198 82.572s241.198-36.969 241.198-82.572" fill="url(#D)"/></g></g></g><g clip-path="url(#E)" transform="matrix(1.33333 0 0 -1.33333 -324.877 1352.667)"><g clip-path="url(#F)" opacity=".26"><path d="M1090.643 296.422l-120.725-29.213c-5.793-1.402-11.679 2.191-13.081 7.984l-18.155 75.028c-1.402 5.793 2.19 11.68 7.983 13.081l120.725 29.214c5.793 1.401 11.68-2.191 13.081-7.984l18.155-75.028c1.403-5.793-2.19-11.679-7.983-13.082" fill="url(#G)"/></g></g><path d="M705.352 770.587c-2.151-47.363 80.732-244.348 80.732-244.348 36.599 10.764 62.433 53.821 62.433 53.821s-68.891 118.407-75.35 146.394c-5.058 21.918-4.611 1.492 196.985-7.536 7.638-50.91 54.927-50.009 62.433-38.751 4.306 6.459-19.376 40.905-30.14 51.668C991.681 742.6 968 744.753 968 744.753s-122.713 36.598-163.616 45.209c-20.455 4.306-44.671 11.305-64.048 11.303-19.372-.002-33.907-6.999-34.984-30.678" fill="url(#H)" transform="matrix(1.33333 0 0 -1.33333 -324.877 1352.667)"/><g clip-path="url(#I)" transform="matrix(1.33333 0 0 -1.33333 -324.877 1352.667)"><g clip-path="url(#J)"><g clip-path="url(#K)" opacity=".6"><g clip-path="url(#L)"><g mask="url(#M)" clip-path="url(#N)" opacity=".6"><path d="M857.128 741.524c-2.152 0-99.03 27.986-109.795 12.917-10.763-15.071 60.28-137.782 60.28-137.782l161.463 103.336z" fill="url(#O)"/></g></g><g clip-path="url(#P)" opacity=".2"><path d="M824.331 785.251s-90.273 18.141-104.985-4.976c-15.069-23.682 66.738-238.966 66.738-238.966l-23.68-19.376-79.656 139.936-21.528 163.616 92.572-10.765z" fill="url(#Q)"/></g></g></g></g><path d="M775.251 641.931c-42.588-33.119 22.535-115.462 68.449-144.835 0 0-123.515-97.686 33.638-151.991 157.153-54.306 151.526 51.45 130.506 84.077-21.019 32.626-18.766 41.903.55 98.372 12.931 37.808-66.43 69.861-53.444 98.391 30.105 66.14-20.073 118.631-55.536 128.649-16.997 4.802-31.067 6.927-42.748 6.928-78.125.008-49.776-94.987-81.415-119.591" fill="url(#R)" transform="matrix(1.33333 0 0 -1.33333 -324.877 1352.667)"/><g clip-path="url(#S)" transform="matrix(1.33333 0 0 -1.33333 -324.877 1352.667)"><g clip-path="url(#T)"><g mask="url(#U)" clip-path="url(#V)" opacity=".4"><path d="M922.133 671.923s3.887-76.793 29.721-96.169c24.356-18.267 25.871-44.671 0-94.724-32.974-63.795 23.68-73.198 8.611-133.477-20.689-82.756-111.405-10.779-168.146 9.9-56.742 20.679-45.739 161.953-45.739 161.953l89.02 15.445s-60.605 55.899-30.14 71.043c16.952 8.428 7.315 37.141 11.89 64.586z" fill="url(#W)"/></g></g><g clip-path="url(#X)"><g mask="url(#Y)" clip-path="url(#Z)" opacity=".4"><path d="M900.185 646.798s2.153-53.821 23.682-101.183c21.528-47.363-27.988-109.795-10.764-148.546 17.223-38.751 30.139-40.905 25.834-75.35-4.306-34.445-124.865 4.306-127.019 8.611-2.152 4.306 12.634 208.744 2.154 245.424-8.612 30.14 19.376 15.071 12.917 62.433-2.057 15.083 73.196 8.611 73.196 8.611" fill="url(#aa)"/></g></g><g clip-path="url(#ab)" opacity=".5"><path d="M788.238 547.768s-38.751 66.737-12.917 88.267c12.917 10.763 14.66 9.126 21.528 36.597 6.458 25.834-2.153 109.795 101.184 81.809-64.585 36.597-116.254 8.611-124.866-27.988-8.611-36.598-36.597-118.406-30.139-135.628 6.459-17.223 45.21-43.057 45.21-43.057" fill="url(#ac)"/></g></g><path d="M881.886 124.734l-6.458-38.752C918.485 88.135 968 45.078 985.223 42.926c17.222-2.153 21.529 8.612-8.611 30.14-30.141 21.528-34.447 43.056-45.21 58.127-2.791 3.907-7.462 5.354-12.852 5.353-15.401-.001-36.664-11.812-36.664-11.812" fill="url(#ad)" transform="matrix(1.33333 0 0 -1.33333 -324.877 1352.667)"/><g clip-path="url(#ae)" transform="matrix(1.33333 0 0 -1.33333 -324.877 1352.667)"><g clip-path="url(#af)" opacity=".2"><path d="M876.504 84.906s34.446 12.918 58.127-4.306c23.681-17.223 54.898-38.213 61.894-37.405 6.997.807-5.92-7.804-8.074-7.804-2.152 0-58.125 15.069-58.125 15.069l-36.599 21.529s-6.459 2.153-12.917 2.153c-6.459 0-4.306 10.764-4.306 10.764" fill="url(#ag)"/></g></g><g clip-path="url(#ah)" transform="matrix(1.33333 0 0 -1.33333 -324.877 1352.667)"><g mask="url(#ai)"><path d="M918.55 136.546c-10.493 0-23.709-5.484-31.065-8.979 10.871 2.64 31.665 6.686 36.381.396 6.46-8.611 20.991-36.06 43.864-48.17.225-.119.45-.237.673-.352-22.846 19.345-27.302 38.171-37.001 51.752-2.79 3.905-7.459 5.353-12.847 5.353h-.005" fill="url(#aj)"/></g></g><path d="M1166.458 416.443a3.36 3.36 0 01-3.241-2.471c-4.283-15.585-29.044-101.892-25.143-174.062 0 0-175.457 90.421-236.812 86.115-60.28-6.459-114.1-25.835-114.1-25.835s-198.063-60.28-221.743-81.808c-23.682-21.528-51.669-75.349 0-90.419 51.667-15.07 310.009-43.057 310.009-43.057l6.458 38.751s-34.445 21.529-81.808 49.516c0 0 119.483 16.146 233.584-9.688 114.1-25.835 195.908-49.516 194.833-1.076l-46.287 254.034z" fill="url(#ak)" transform="matrix(1.33333 0 0 -1.33333 -324.877 1352.667)"/><g clip-path="url(#al)" transform="matrix(1.33333 0 0 -1.33333 -324.877 1352.667)"><g clip-path="url(#am)"><g mask="url(#an)" clip-path="url(#ao)" opacity=".2"><path d="M835.159 153.309s-66.297 50.004-141.647 52.156c-75.35 2.154 120.265 28.651 187.298 30.14 96.878 2.153 251.824-96.934 306.751-99.059 54.927-2.125-229.249 8.64-229.249 8.64z" fill="url(#ap)"/></g></g><g clip-path="url(#aq)"><g mask="url(#ar)" clip-path="url(#as)" opacity=".4"><path d="M1068.107 289.426s85.645-65.264 103.337-66.738c25.834-2.152 8.611 232.508-28.667 210.978-9.496-5.483-48.835-38.751-48.835-38.751z" fill="url(#at)"/></g></g><g clip-path="url(#au)" opacity=".2"><path d="M786.084 298.037s-199.857-66.581-217.436-86.113c-19.376-21.528-32.293-45.21-23.682-64.586 8.611-19.375 130.606-39.109 130.606-39.109s-190.885-92.214-171.51 45.568c19.376 137.782 282.022 144.24 282.022 144.24" fill="url(#av)"/></g></g><path d="M786.084 298.038s96.878-32.292 150.7 23.681c-50.467 62.202-30.14 148.546 4.305 191.602 0 0-2 64.98-6.92 69.628-19.583 3.521-37.235 5.172-53.07 5.174-164.842.017-135.427-178.789-95.015-290.085" fill="url(#aw)" transform="matrix(1.33333 0 0 -1.33333 -324.877 1352.667)"/><g clip-path="url(#ax)" transform="matrix(1.33333 0 0 -1.33333 -324.877 1352.667)"><g clip-path="url(#ay)"><g clip-path="url(#az)"><g clip-path="url(#aA)" opacity=".8"><g mask="url(#aB)" clip-path="url(#aC)" opacity=".3"><path d="M801.155 595.13s.322-46.874 34.445-60.279c60.279-23.682 67.493-91.318 21.528-129.171-36.598-30.14-88.266-15.07-58.127-103.337 30.141-88.266 137.783 4.306 137.783 4.306l32.292 111.948v75.35l-17.222 94.724-58.127 8.612z" fill="url(#aD)"/></g></g></g></g></g><g clip-path="url(#aE)" transform="matrix(1.33333 0 0 -1.33333 -324.877 1352.667)"><g clip-path="url(#aF)" opacity=".2"><path d="M848.517 586.519s-86.555-36.13-83.961-152.853c2.153-96.878 43.057-191.602 43.057-191.602l-92.573 81.807s8.612 260.495 133.477 262.648" fill="url(#aG)"/></g><g clip-path="url(#aH)" opacity=".4"><path d="M882.962 587.595c0-6.539-10.602-11.841-23.68-11.841-13.08 0-23.682 5.302-23.682 11.841s10.602 11.841 23.682 11.841c13.078 0 23.68-5.302 23.68-11.841" fill="url(#aI)"/></g></g><path d="M997.063 689.854c15.07-30.139 40.904-32.292 40.904-32.292l64.586-111.948c-38.752 10.765-167.922 36.6-167.922 36.6-27.987 2.151-28.201-71.031 4.306-73.198 32.292-2.152 148.546-12.917 191.602-15.069 43.056-2.154 58.127 10.763 60.281 25.834 2.152 15.07-133.477 146.394-133.477 146.394-9.858 37.241-29.088 50.325-43.672 50.322-14.079-.003-23.827-12.204-16.608-26.643" fill="url(#aJ)" transform="matrix(1.33333 0 0 -1.33333 -324.877 1352.667)"/><g clip-path="url(#aK)" transform="matrix(1.33333 0 0 -1.33333 -324.877 1352.667)"><g mask="url(#aL)"><path d="M1037.967 657.562l64.586-111.948c3.005-1.203 21.528-6.457 36.598-4.305 15.07 2.153-77.502 116.253-101.184 116.253" fill="url(#aM)"/></g></g><path d="M1145.61 524.086c-8.987-3.456-6.459-19.319-6.459-60.279 0-23.682 4.305-49.515 24.686-48.447a.79.79 0 01.072.007l18.299 1.076s13.127 7.898-3.23 63.51c-9.214 31.329-16.849 45.305-27.635 45.304-1.814 0-3.718-.396-5.733-1.171" fill="url(#aN)" transform="matrix(1.33333 0 0 -1.33333 -324.877 1352.667)"/><g clip-path="url(#aO)" transform="matrix(1.33333 0 0 -1.33333 -324.877 1352.667)"><g clip-path="url(#aP)" opacity=".2"><path d="M1152.606 525.97s-11.302-8.343-9.15-34.177c2.154-25.834-1.383-69.529 19.761-77.821l-30.524-3.986-10.765 68.89 8.611 34.446 15.071 17.223z" fill="url(#aQ)"/></g></g><path d="M845.9 587.382c-.837-2.706 1.275-5.429 4.107-5.397l13.808.157c3.492.04 6.502 2.48 7.227 5.897 3.035 14.298 5.21 22.035 5.457 22.159-.28-.076-10.921-2.913-27.35 1.921 0 0-.447-15.683-3.249-24.737m30.599 22.816a.032.032 0 01.006.002l-.006-.002" fill="url(#aR)" transform="matrix(1.33333 0 0 -1.33333 -324.877 1352.667)"/><path d="M852.102 710.823c-4.803-13.812-31.64-21.653-31.64-21.653s-21.058-75.36 39.973-80.79c61.03-5.429 63.114 64.101 63.114 64.101-36.933 2.73-60.506 29.047-68.07 38.856-.4.519-.981.766-1.555.766-.773 0-1.532-.448-1.822-1.28" fill="url(#aS)" transform="matrix(1.33333 0 0 -1.33333 -324.877 1352.667)"/><path d="M842.059 648.951l15.069-2.153 2.153 30.14z" fill="url(#aT)" transform="matrix(1.33333 0 0 -1.33333 -324.877 1352.667)"/><g clip-path="url(#aU)" transform="matrix(1.33333 0 0 -1.33333 -324.877 1352.667)"><g clip-path="url(#aV)" opacity=".05"><path d="M610.591 726.927l-35.42-8.571c-5.793-1.402-11.679 2.191-13.081 7.984l-4.166 17.215c-1.401 5.793 2.192 11.68 7.985 13.082l35.418 8.571c5.793 1.402 11.68-2.191 13.082-7.984l4.166-17.216c1.402-5.793-2.191-11.68-7.984-13.081" fill="url(#aW)"/></g><g clip-path="url(#aX)" opacity=".05"><path d="M1033.012 584.182l-35.42-8.57c-5.793-1.403-11.68 2.19-13.082 7.983l-4.165 17.216c-1.402 5.793 2.19 11.68 7.983 13.081l35.42 8.571c5.793 1.402 11.68-2.191 13.081-7.984l4.166-17.215c1.403-5.793-2.19-11.68-7.983-13.082" fill="url(#aY)"/></g><g clip-path="url(#aZ)" opacity=".05"><path d="M471.521 338.737l-35.42-8.572c-5.793-1.401-11.68 2.192-13.081 7.985l-4.166 17.215c-1.402 5.793 2.191 11.679 7.984 13.082l35.419 8.57c5.793 1.402 11.68-2.19 13.082-7.983l4.166-17.216c1.402-5.793-2.191-11.68-7.984-13.081" fill="url(#ba)"/></g><g clip-path="url(#bb)" opacity=".05"><path d="M1040.995 597.264l-35.419-8.571c-5.793-1.402-11.68 2.191-13.082 7.984l-4.166 17.215c-1.401 5.793 2.192 11.68 7.985 13.082l35.419 8.57c5.794 1.403 11.679-2.19 13.082-7.983l4.166-17.216c1.401-5.793-2.192-11.68-7.985-13.081" fill="url(#bc)"/></g><g clip-path="url(#bd)" opacity=".15"><path d="M1281.475 504.27l-35.42-8.571c-5.793-1.403-11.68 2.19-13.081 7.983l-4.166 17.216c-1.402 5.793 2.19 11.68 7.983 13.081l35.42 8.571c5.793 1.403 11.68-2.19 13.082-7.984l4.165-17.215c1.403-5.793-2.19-11.68-7.983-13.081" fill="url(#be)"/></g><g clip-path="url(#bf)" opacity=".15"><path d="M346.275 156.85l-35.419-8.571c-5.793-1.402-11.68 2.191-13.082 7.984l-4.166 17.215c-1.402 5.793 2.191 11.68 7.985 13.082l35.419 8.57c5.793 1.403 11.68-2.19 13.082-7.983l4.165-17.216c1.402-5.793-2.191-11.68-7.984-13.081" fill="url(#bg)"/></g><g clip-path="url(#bh)" opacity=".15"><path d="M596.659 583.219l-5.405-1.308c-5.793-1.401-11.679 2.192-13.081 7.985-1.402 5.793 2.191 11.68 7.984 13.081l5.404 1.308c5.793 1.402 11.68-2.191 13.081-7.984 1.402-5.793-2.191-11.68-7.983-13.082" fill="url(#bi)"/></g><g clip-path="url(#bj)" opacity=".15"><path d="M1097.58 853.882l-5.404-1.307c-5.793-1.402-11.68 2.191-13.081 7.984-1.402 5.793 2.191 11.68 7.984 13.081l5.404 1.308c5.793 1.402 11.679-2.192 13.081-7.985 1.402-5.793-2.191-11.679-7.984-13.081" fill="url(#bk)"/></g><g clip-path="url(#bl)" opacity=".05"><path d="M744.574 918.105l-120.725-29.214c-5.793-1.401-11.68 2.191-13.081 7.984l-18.155 75.028c-1.403 5.793 2.19 11.679 7.983 13.082l120.725 29.213c5.793 1.401 11.679-2.192 13.081-7.985l18.156-75.027c1.401-5.793-2.191-11.68-7.984-13.081" fill="url(#bm)"/></g><g clip-path="url(#bn)" opacity=".1"><path d="M340.975 480.365l-73.518-17.791c-5.794-1.402-11.68 2.191-13.082 7.984l-10.414 43.035c-1.402 5.794 2.191 11.68 7.984 13.082l73.519 17.79c5.793 1.403 11.679-2.19 13.081-7.983l10.414-43.036c1.402-5.793-2.191-11.68-7.984-13.081" fill="url(#bo)"/></g></g></svg>